999
dxfrw 0.6.3
  0
SECTION
  2
HEADER
  9
$ACADVER
  1
AC1021
  9
$DWGCODEPAGE
  3
ANSI_1252
  9
$INSBASE
 10
0
 20
0
 30
0
  9
$EXTMIN
 10
-1.625
 20
0
 30
0
  9
$EXTMAX
 10
15
 20
11.625
 30
0
  9
$LIMMIN
 10
0
 20
0
  9
$LIMMAX
 10
420
 20
297
  9
$ORTHOMODE
 70
    0
  9
$REGENMODE
 70
    1
  9
$FILLMODE
 70
    1
  9
$QTEXTMODE
 70
    0
  9
$MIRRTEXT
 70
    0
  9
$LTSCALE
 40
1
  9
$ATTMODE
 70
    0
  9
$TEXTSIZE
 40
2.5
  9
$TRACEWID
 40
15.68
  9
$TEXTSTYLE
  7
STANDARD
  9
$CLAYER
  8
Traves
  9
$CELTYPE
  6
BYLAYER
  9
$CECOLOR
 62
  256
  9
$CELTSCALE
 40
1
  9
$DISPSILH
 70
    0
  9
$DIMSCALE
 40
0.2
  9
$DIMASZ
 40
2
  9
$DIMEXO
 40
0.625
  9
$DIMDLI
 40
3.75
  9
$DIMRND
 40
0
  9
$DIMDLE
 40
0
  9
$DIMEXE
 40
1.25
  9
$DIMTP
 40
0
  9
$DIMTM
 40
0
  9
$DIMTXT
 40
2.5
  9
$DIMCEN
 40
2.5
  9
$DIMTSZ
 40
0
  9
$DIMTOL
 70
    0
  9
$DIMLIM
 70
    0
  9
$DIMTIH
 70
    0
  9
$DIMTOH
 70
    0
  9
$DIMSE1
 70
    0
  9
$DIMSE2
 70
    0
  9
$DIMTAD
 70
    1
  9
$DIMZIN
 70
    8
  9
$DIMBLK
  1

  9
$DIMASO
 70
    1
  9
$DIMSHO
 70
    1
  9
$DIMPOST
  1

  9
$DIMAPOST
  1

  9
$DIMALT
 70
    0
  9
$DIMALTD
 70
    3
  9
$DIMALTF
 40
0.03937
  9
$DIMLFAC
 40
1
  9
$DIMTOFL
 70
    1
  9
$DIMTVP
 40
0
  9
$DIMTIX
 70
    0
  9
$DIMSOXD
 70
    0
  9
$DIMSAH
 70
    0
  9
$DIMBLK1
  1

  9
$DIMBLK2
  1

  9
$DIMSTYLE
  2
STANDARD
  9
$DIMCLRD
 70
    0
  9
$DIMCLRE
 70
    0
  9
$DIMCLRT
 70
    0
  9
$DIMTFAC
 40
1
  9
$DIMGAP
 40
0.625
  9
$DIMJUST
 70
    0
  9
$DIMSD1
 70
    0
  9
$DIMSD2
 70
    0
  9
$DIMTOLJ
 70
    0
  9
$DIMTZIN
 70
    8
  9
$DIMALTZ
 70
    0
  9
$DIMALTTZ
 70
    0
  9
$DIMUPT
 70
    0
  9
$DIMDEC
 70
    4
  9
$DIMTDEC
 70
    2
  9
$DIMALTU
 70
    2
  9
$DIMALTTD
 70
    3
  9
$DIMTXSTY
  7
standard
  9
$DIMAUNIT
 70
    0
  9
$DIMADEC
 70
    2
  9
$DIMALTRND
 40
0
  9
$DIMAZIN
 70
    0
  9
$DIMDSEP
 70
    0
  9
$DIMATFIT
 70
    3
  9
$DIMFRAC
 70
    0
  9
$DIMLDRBLK
  1
STANDARD
  9
$DIMLUNIT
 70
    2
  9
$DIMLWD
 70
   -2
  9
$DIMLWE
 70
   -2
  9
$DIMTMOVE
 70
    0
  9
$DIMFXL
 40
1
  9
$DIMFXLON
 70
    0
  9
$DIMJOGANG
 40
0.7854
  9
$DIMTFILL
 70
    0
  9
$DIMTFILLCLR
 70
    0
  9
$DIMARCSYM
 70
    0
  9
$DIMLTYPE
  6

  9
$DIMLTEX1
  6

  9
$DIMLTEX2
  6

  9
$LUNITS
 70
    2
  9
$LUPREC
 70
    4
  9
$SKETCHINC
 40
1
  9
$FILLETRAD
 40
0
  9
$AUNITS
 70
    0
  9
$AUPREC
 70
    2
  9
$MENU
  1
.
  9
$ELEVATION
 40
0
  9
$PELEVATION
 40
0
  9
$THICKNESS
 40
0
  9
$LIMCHECK
 70
    0
  9
$CHAMFERA
 40
0
  9
$CHAMFERB
 40
0
  9
$CHAMFERC
 40
0
  9
$CHAMFERD
 40
0
  9
$SKPOLY
 70
    0
  9
$USRTIMER
 70
    1
  9
$ANGBASE
 50
0
  9
$ANGDIR
 70
    0
  9
$PDMODE
 70
   34
  9
$PDSIZE
 40
0
  9
$PLINEWID
 40
0
  9
$SPLFRAME
 70
    0
  9
$SPLINETYPE
 70
    2
  9
$SPLINESEGS
 70
    8
  9
$HANDSEED
  5
20000
  9
$SURFTAB1
 70
    6
  9
$SURFTAB2
 70
    6
  9
$SURFTYPE
 70
    6
  9
$SURFU
 70
    6
  9
$SURFV
 70
    6
  9
$UCSBASE
  2

  9
$UCSNAME
  2

  9
$UCSORG
 10
0
 20
0
 30
0
  9
$UCSXDIR
 10
1
 20
0
 30
0
  9
$UCSYDIR
 10
0
 20
1
 30
0
  9
$UCSORTHOREF
  2

  9
$UCSORTHOVIEW
 70
    0
  9
$UCSORGTOP
 10
0
 20
0
 30
0
  9
$UCSORGBOTTOM
 10
0
 20
0
 30
0
  9
$UCSORGLEFT
 10
0
 20
0
 30
0
  9
$UCSORGRIGHT
 10
0
 20
0
 30
0
  9
$UCSORGFRONT
 10
0
 20
0
 30
0
  9
$UCSORGBACK
 10
0
 20
0
 30
0
  9
$PUCSBASE
  2

  9
$PUCSNAME
  2

  9
$PUCSORG
 10
0
 20
0
 30
0
  9
$PUCSXDIR
 10
1
 20
0
 30
0
  9
$PUCSYDIR
 10
0
 20
1
 30
0
  9
$PUCSORTHOREF
  2

  9
$PUCSORTHOVIEW
 70
    0
  9
$PUCSORGTOP
 10
0
 20
0
 30
0
  9
$PUCSORGBOTTOM
 10
0
 20
0
 30
0
  9
$PUCSORGLEFT
 10
0
 20
0
 30
0
  9
$PUCSORGRIGHT
 10
0
 20
0
 30
0
  9
$PUCSORGFRONT
 10
0
 20
0
 30
0
  9
$PUCSORGBACK
 10
0
 20
0
 30
0
  9
$USERI1
 70
    0
  9
$USERI2
 70
    0
  9
$USERI3
 70
    0
  9
$USERI4
 70
    0
  9
$USERI5
 70
    0
  9
$USERR1
 40
0
  9
$USERR2
 40
0
  9
$USERR3
 40
0
  9
$USERR4
 40
0
  9
$USERR5
 40
0
  9
$WORLDVIEW
 70
    1
  9
$SHADEDGE
 70
    3
  9
$SHADEDIF
 70
   70
  9
$TILEMODE
 70
    1
  9
$MAXACTVP
 70
   64
  9
$PINSBASE
 10
0.04207526881720431
 20
0.0125
 30
0
  9
$PLIMCHECK
 70
    0
  9
$PEXTMIN
 10
0
 20
0
 30
0
  9
$PEXTMAX
 10
0
 20
0
 30
0
  9
$GRIDMODE
 70
    1
  9
$SNAPSTYLE
 70
    0
  9
$GRIDUNIT
 10
0
 20
0
  9
$PLIMMIN
 10
0
 20
0
  9
$PLIMMAX
 10
0.297
 20
0.21
  9
$UNITMODE
 70
    0
  9
$VISRETAIN
 70
    1
  9
$PLINEGEN
 70
    0
  9
$PSLTSCALE
 70
    1
  9
$TREEDEPTH
 70
 3020
  9
$CMLSTYLE
  2
Standard
  9
$CMLJUST
 70
    0
  9
$CMLSCALE
 40
20
  9
$PROXYGRAPHICS
 70
    1
  9
$MEASUREMENT
 70
    1
  9
$CELWEIGHT
370
   -1
  9
$ENDCAPS
280
    0
  9
$JOINSTYLE
280
    0
  9
$LWDISPLAY
290
    0
  9
$INSUNITS
 70
    6
  9
$HYPERLINKBASE
  1

  9
$STYLESHEET
  1

  9
$XEDIT
290
    1
  9
$CEPSNTYPE
380
    0
  9
$PSTYLEMODE
290
    1
  9
$EXTNAMES
290
    1
  9
$PSVPSCALE
 40
0.01591398807724013
  9
$OLESTARTUP
290
    0
  9
$SORTENTS
280
  127
  9
$INDEXCTL
280
    0
  9
$HIDETEXT
280
    1
  9
$XCLIPFRAME
290
    0
  9
$HALOGAP
280
    0
  9
$OBSCOLOR
 70
  257
  9
$OBSLTYPE
280
    0
  9
$INTERSECTIONDISPLAY
280
    0
  9
$INTERSECTIONCOLOR
 70
  257
  9
$DIMASSOC
280
    1
  9
$PROJECTNAME
  1

  9
$CAMERADISPLAY
290
    0
  9
$LENSLENGTH
 40
50
  9
$CAMERAHEIGHT
 40
0
  9
$STEPSPERSEC
 40
2
  9
$STEPSIZE
 40
50
  9
$3DDWFPREC
 40
2
  9
$PSOLWIDTH
 40
5
  9
$PSOLHEIGHT
 40
80
  9
$LOFTANG1
 40
1.570796326794897
  9
$LOFTANG2
 40
1.570796326794897
  9
$LOFTMAG1
 40
0
  9
$LOFTMAG2
 40
0
  9
$LOFTPARAM
 70
    7
  9
$LOFTNORMALS
280
    1
  9
$LATITUDE
 40
1
  9
$LONGITUDE
 40
1
  9
$NORTHDIRECTION
 40
0
  9
$TIMEZONE
 70
-8000
  9
$LIGHTGLYPHDISPLAY
280
    1
  9
$TILEMODELIGHTSYNCH
280
    1
  9
$SOLIDHIST
280
    1
  9
$SHOWHIST
280
    1
  9
$DWFFRAME
280
    2
  9
$DGNFRAME
280
    0
  9
$REALWORLDSCALE
290
    1
  9
$INTERFERECOLOR
 62
    1
  9
$CSHADOW
280
    0
  9
$SHADOWPLANELOCATION
 40
0
  0
ENDSEC
  0
SECTION
  2
CLASSES
  0
ENDSEC
  0
SECTION
  2
TABLES
  0
TABLE
  2
VPORT
  5
8
330
0
100
AcDbSymbolTable
 70
    1
  0
VPORT
  5
31
330
2
100
AcDbSymbolTableRecord
100
AcDbViewportTableRecord
  2
*ACTIVE
 70
    0
 10
0
 20
0
 11
1
 21
1
 12
8.497389434889435
 22
5.883906633906634
 13
0
 23
0
 14
10
 24
10
 15
10
 25
10
 16
0
 26
0
 36
1
 17
0
 27
0
 37
0
 40
11.91062653562654
 41
1.730215827338129
 42
50
 43
0
 44
0
 50
0
 51
0
 71
    0
 72
  100
 73
    1
 74
    3
 75
    0
 76
    1
 77
    0
 78
    0
281
    0
 65
    1
110
0
120
0
130
0
111
1
121
0
131
0
112
0
122
1
132
0
 79
    0
146
0
348
10020
 60
    7
 61
    5
292
1
282
    1
141
0
142
0
 63
  250
421
3358443
  0
ENDTAB
  0
TABLE
  2
LTYPE
  5
5
330
0
100
AcDbSymbolTable
 70
    4
  0
LTYPE
  5
14
330
5
100
AcDbSymbolTableRecord
100
AcDbLinetypeTableRecord
  2
ByBlock
 70
    0
  3

 72
   65
 73
    0
 40
0
  0
LTYPE
  5
15
330
5
100
AcDbSymbolTableRecord
100
AcDbLinetypeTableRecord
  2
ByLayer
 70
    0
  3

 72
   65
 73
    0
 40
0
  0
LTYPE
  5
16
330
5
100
AcDbSymbolTableRecord
100
AcDbLinetypeTableRecord
  2
Continuous
 70
    0
  3
Solid line
 72
   65
 73
    0
 40
0
  0
LTYPE
  5
32
330
5
100
AcDbSymbolTableRecord
100
AcDbLinetypeTableRecord
  2
DOT
 70
    0
  3
Dot . . . . . . . . . . . . . . . . . . . . . .
 72
   65
 73
    2
 40
6.35
 49
0
 74
    0
 49
-6.35
 74
    0
  0
LTYPE
  5
33
330
5
100
AcDbSymbolTableRecord
100
AcDbLinetypeTableRecord
  2
DOTTINY
 70
    0
  3
Dot (.15x) .....................................
 72
   65
 73
    2
 40
0.9525
 49
0
 74
    0
 49
-0.9525
 74
    0
  0
LTYPE
  5
34
330
5
100
AcDbSymbolTableRecord
100
AcDbLinetypeTableRecord
  2
DOT2
 70
    0
  3
Dot (.5x) .....................................
 72
   65
 73
    2
 40
3.175
 49
0
 74
    0
 49
-3.175
 74
    0
  0
LTYPE
  5
35
330
5
100
AcDbSymbolTableRecord
100
AcDbLinetypeTableRecord
  2
DOTX2
 70
    0
  3
Dot (2x) .  .  .  .  .  .  .  .  .  .  .  .  .
 72
   65
 73
    2
 40
12.7
 49
0
 74
    0
 49
-12.7
 74
    0
  0
LTYPE
  5
36
330
5
100
AcDbSymbolTableRecord
100
AcDbLinetypeTableRecord
  2
DASHED
 70
    0
  3
Dashed _ _ _ _ _ _ _ _ _ _ _ _ _ _ _ _ _
 72
   65
 73
    2
 40
19.05
 49
12.7
 74
    0
 49
-6.35
 74
    0
  0
LTYPE
  5
37
330
5
100
AcDbSymbolTableRecord
100
AcDbLinetypeTableRecord
  2
DASHEDTINY
 70
    0
  3
Dashed (.15x) _ _ _ _ _ _ _ _ _ _ _ _ _ _ _ _ _
 72
   65
 73
    2
 40
2.8575
 49
1.905
 74
    0
 49
-0.9525
 74
    0
  0
LTYPE
  5
38
330
5
100
AcDbSymbolTableRecord
100
AcDbLinetypeTableRecord
  2
DASHED2
 70
    0
  3
Dashed (.5x) _ _ _ _ _ _ _ _ _ _ _ _ _ _ _ _ _
 72
   65
 73
    2
 40
9.524999999999999
 49
6.35
 74
    0
 49
-3.175
 74
    0
  0
LTYPE
  5
39
330
5
100
AcDbSymbolTableRecord
100
AcDbLinetypeTableRecord
  2
DASHEDX2
 70
    0
  3
Dashed (2x) ____  ____  ____  ____  ____  ___
 72
   65
 73
    2
 40
38.09999999999999
 49
25.4
 74
    0
 49
-12.7
 74
    0
  0
LTYPE
  5
3A
330
5
100
AcDbSymbolTableRecord
100
AcDbLinetypeTableRecord
  2
DASHDOT
 70
    0
  3
Dash dot __ . __ . __ . __ . __ . __ . __ . __
 72
   65
 73
    4
 40
25.4
 49
12.7
 74
    0
 49
-6.35
 74
    0
 49
0
 74
    0
 49
-6.35
 74
    0
  0
LTYPE
  5
3B
330
5
100
AcDbSymbolTableRecord
100
AcDbLinetypeTableRecord
  2
DASHDOTTINY
 70
    0
  3
Dash dot (.15x) _._._._._._._._._._._._._._._.
 72
   65
 73
    4
 40
3.81
 49
1.905
 74
    0
 49
-0.9525
 74
    0
 49
0
 74
    0
 49
-0.9525
 74
    0
  0
LTYPE
  5
3C
330
5
100
AcDbSymbolTableRecord
100
AcDbLinetypeTableRecord
  2
DASHDOT2
 70
    0
  3
Dash dot (.5x) _._._._._._._._._._._._._._._.
 72
   65
 73
    4
 40
12.7
 49
6.35
 74
    0
 49
-3.175
 74
    0
 49
0
 74
    0
 49
-3.175
 74
    0
  0
LTYPE
  5
3D
330
5
100
AcDbSymbolTableRecord
100
AcDbLinetypeTableRecord
  2
DASHDOTX2
 70
    0
  3
Dash dot (2x) ____  .  ____  .  ____  .  ___
 72
   65
 73
    4
 40
50.8
 49
25.4
 74
    0
 49
-12.7
 74
    0
 49
0
 74
    0
 49
-12.7
 74
    0
  0
LTYPE
  5
3E
330
5
100
AcDbSymbolTableRecord
100
AcDbLinetypeTableRecord
  2
DIVIDE
 70
    0
  3
Divide ____ . . ____ . . ____ . . ____ . . ____
 72
   65
 73
    6
 40
31.75
 49
12.7
 74
    0
 49
-6.35
 74
    0
 49
0
 74
    0
 49
-6.35
 74
    0
 49
0
 74
    0
 49
-6.35
 74
    0
  0
LTYPE
  5
3F
330
5
100
AcDbSymbolTableRecord
100
AcDbLinetypeTableRecord
  2
DIVIDETINY
 70
    0
  3
Divide (.15x) __..__..__..__..__..__..__..__.._
 72
   65
 73
    6
 40
4.7625
 49
1.905
 74
    0
 49
-0.9525
 74
    0
 49
0
 74
    0
 49
-0.9525
 74
    0
 49
0
 74
    0
 49
-0.9525
 74
    0
  0
LTYPE
  5
40
330
5
100
AcDbSymbolTableRecord
100
AcDbLinetypeTableRecord
  2
DIVIDE2
 70
    0
  3
Divide (.5x) __..__..__..__..__..__..__..__.._
 72
   65
 73
    6
 40
15.875
 49
6.35
 74
    0
 49
-3.175
 74
    0
 49
0
 74
    0
 49
-3.175
 74
    0
 49
0
 74
    0
 49
-3.175
 74
    0
  0
LTYPE
  5
41
330
5
100
AcDbSymbolTableRecord
100
AcDbLinetypeTableRecord
  2
DIVIDEX2
 70
    0
  3
Divide (2x) ________  .  .  ________  .  .  _
 72
   65
 73
    6
 40
63.5
 49
25.4
 74
    0
 49
-12.7
 74
    0
 49
0
 74
    0
 49
-12.7
 74
    0
 49
0
 74
    0
 49
-12.7
 74
    0
  0
LTYPE
  5
42
330
5
100
AcDbSymbolTableRecord
100
AcDbLinetypeTableRecord
  2
BORDER
 70
    0
  3
Border __ __ . __ __ . __ __ . __ __ . __ __ .
 72
   65
 73
    6
 40
44.45
 49
12.7
 74
    0
 49
-6.35
 74
    0
 49
12.7
 74
    0
 49
-6.35
 74
    0
 49
0
 74
    0
 49
-6.35
 74
    0
  0
LTYPE
  5
43
330
5
100
AcDbSymbolTableRecord
100
AcDbLinetypeTableRecord
  2
BORDERTINY
 70
    0
  3
Border (.15x) __.__.__.__.__.__.__.__.__.__.__.
 72
   65
 73
    6
 40
6.6675
 49
1.905
 74
    0
 49
-0.9525
 74
    0
 49
1.905
 74
    0
 49
-0.9525
 74
    0
 49
0
 74
    0
 49
-0.9525
 74
    0
  0
LTYPE
  5
44
330
5
100
AcDbSymbolTableRecord
100
AcDbLinetypeTableRecord
  2
BORDER2
 70
    0
  3
Border (.5x) __.__.__.__.__.__.__.__.__.__.__.
 72
   65
 73
    6
 40
22.225
 49
6.35
 74
    0
 49
-3.175
 74
    0
 49
6.35
 74
    0
 49
-3.175
 74
    0
 49
0
 74
    0
 49
-3.175
 74
    0
  0
LTYPE
  5
45
330
5
100
AcDbSymbolTableRecord
100
AcDbLinetypeTableRecord
  2
BORDERX2
 70
    0
  3
Border (2x) ____  ____  .  ____  ____  .  ___
 72
   65
 73
    6
 40
88.89999999999999
 49
25.4
 74
    0
 49
-12.7
 74
    0
 49
25.4
 74
    0
 49
-12.7
 74
    0
 49
0
 74
    0
 49
-12.7
 74
    0
  0
LTYPE
  5
46
330
5
100
AcDbSymbolTableRecord
100
AcDbLinetypeTableRecord
  2
CENTER
 70
    0
  3
Center ____ _ ____ _ ____ _ ____ _ ____ _ ____
 72
   65
 73
    4
 40
50.8
 49
31.75
 74
    0
 49
-6.35
 74
    0
 49
6.35
 74
    0
 49
-6.35
 74
    0
  0
LTYPE
  5
47
330
5
100
AcDbSymbolTableRecord
100
AcDbLinetypeTableRecord
  2
CENTERTINY
 70
    0
  3
Center (.15x) ___ _ ___ _ ___ _ ___ _ ___ _ ___
 72
   65
 73
    4
 40
7.619999999999999
 49
4.7625
 74
    0
 49
-0.9525
 74
    0
 49
0.9525
 74
    0
 49
-0.9525
 74
    0
  0
LTYPE
  5
48
330
5
100
AcDbSymbolTableRecord
100
AcDbLinetypeTableRecord
  2
CENTER2
 70
    0
  3
Center (.5x) ___ _ ___ _ ___ _ ___ _ ___ _ ___
 72
   65
 73
    4
 40
28.575
 49
19.05
 74
    0
 49
-3.175
 74
    0
 49
3.175
 74
    0
 49
-3.175
 74
    0
  0
LTYPE
  5
49
330
5
100
AcDbSymbolTableRecord
100
AcDbLinetypeTableRecord
  2
CENTERX2
 70
    0
  3
Center (2x) ________  __  ________  __  _____
 72
   65
 73
    4
 40
101.6
 49
63.5
 74
    0
 49
-12.7
 74
    0
 49
12.7
 74
    0
 49
-12.7
 74
    0
  0
ENDTAB
  0
TABLE
  2
LAYER
  5
2
330
0
100
AcDbSymbolTable
 70
    1
  0
LAYER
  5
10
330
2
100
AcDbSymbolTableRecord
100
AcDbLayerTableRecord
  2
0
 70
    1
 62
    7
  6
CONTINUOUS
370
    0
390
F
  0
LAYER
  5
4A
330
2
100
AcDbSymbolTableRecord
100
AcDbLayerTableRecord
  2
Cotas
 70
    0
 62
    2
  6
CONTINUOUS
370
    0
390
F
  0
LAYER
  5
4B
330
2
100
AcDbSymbolTableRecord
100
AcDbLayerTableRecord
  2
Diviciones
 70
    1
 62
    6
  6
CONTINUOUS
370
    0
390
F
  0
LAYER
  5
4C
330
2
100
AcDbSymbolTableRecord
100
AcDbLayerTableRecord
  2
Muebles
 70
    1
 62
   16
420
8388608
  6
CONTINUOUS
370
    0
390
F
  0
LAYER
  5
4D
330
2
100
AcDbSymbolTableRecord
100
AcDbLayerTableRecord
  2
No-OtraDivision
 70
    1
 62
    1
  6
CONTINUOUS
370
    0
390
F
  0
LAYER
  5
4E
330
2
100
AcDbSymbolTableRecord
100
AcDbLayerTableRecord
  2
Terreno
 70
    4
 62
    7
  6
CONTINUOUS
370
    5
390
F
  0
LAYER
  5
4F
330
2
100
AcDbSymbolTableRecord
100
AcDbLayerTableRecord
  2
Traves
 70
    0
 62
    4
  6
CONTINUOUS
370
    0
390
F
  0
ENDTAB
  0
TABLE
  2
STYLE
  5
3
330
0
100
AcDbSymbolTable
 70
    3
  0
STYLE
  5
50
330
2
100
AcDbSymbolTableRecord
100
AcDbTextStyleTableRecord
  2
STANDARD
 70
    0
 40
0
 41
1
 50
0
 71
    0
 42
1
  3
STANDARD
  4

  0
ENDTAB
  0
TABLE
  2
VIEW
  5
6
330
0
100
AcDbSymbolTable
 70
    0
  0
ENDTAB
  0
TABLE
  2
UCS
  5
7
330
0
100
AcDbSymbolTable
 70
    0
  0
ENDTAB
  0
TABLE
  2
APPID
  5
9
330
0
100
AcDbSymbolTable
 70
    1
  0
APPID
  5
12
330
9
100
AcDbSymbolTableRecord
100
AcDbRegAppTableRecord
  2
ACAD
 70
    0
  0
APPID
  5
51
330
9
100
AcDbSymbolTableRecord
100
AcDbRegAppTableRecord
  2
LibreCad
 70
    0
  0
ENDTAB
  0
TABLE
  2
DIMSTYLE
  5
A
330
0
100
AcDbSymbolTable
 70
    1
100
AcDbDimStyleTable
 71
    1
  0
DIMSTYLE
105
52
330
A
100
AcDbSymbolTableRecord
100
AcDbDimStyleTableRecord
  2
Standard
 70
    0
 40
0.2
 41
2
 42
0.625
 43
0.38
 44
1.25
 45
0
 46
0
 47
0
 48
0
 49
1
140
2.5
141
0.09
142
0
143
25.4
144
1
145
0
146
1
147
0.625
148
0
 71
    0
 72
    0
 73
    0
 74
    1
 75
    0
 76
    0
 77
    0
 78
    8
 79
    0
170
    0
171
    2
172
    0
173
    0
174
    0
175
    0
176
    0
177
    0
178
    0
179
    2
271
    4
272
    4
273
    2
274
    2
275
    0
276
    0
277
    2
278
    0
279
    0
280
    0
281
    0
282
    0
283
    1
284
    0
285
    0
286
    0
288
    0
289
    3
340
standard
341

371
   -2
372
   -2
  0
ENDTAB
  0
TABLE
  2
BLOCK_RECORD
  5
1
330
0
100
AcDbSymbolTable
 70
    2
  0
BLOCK_RECORD
  5
1F
330
1
100
AcDbSymbolTableRecord
100
AcDbBlockTableRecord
  2
*Model_Space
 70
    0
280
    1
281
    0
  0
BLOCK_RECORD
  5
1E
330
1
100
AcDbSymbolTableRecord
100
AcDbBlockTableRecord
  2
*Paper_Space
 70
    0
280
    1
281
    0
  0
BLOCK_RECORD
  5
53
330
1
100
AcDbSymbolTableRecord
100
AcDbBlockTableRecord
  2
*D2
 70
    0
280
    1
281
    0
  0
BLOCK_RECORD
  5
56
330
1
100
AcDbSymbolTableRecord
100
AcDbBlockTableRecord
  2
*D19
 70
    0
280
    1
281
    0
  0
BLOCK_RECORD
  5
59
330
1
100
AcDbSymbolTableRecord
100
AcDbBlockTableRecord
  2
*D5
 70
    0
280
    1
281
    0
  0
BLOCK_RECORD
  5
5C
330
1
100
AcDbSymbolTableRecord
100
AcDbBlockTableRecord
  2
*D4
 70
    0
280
    1
281
    0
  0
BLOCK_RECORD
  5
5F
330
1
100
AcDbSymbolTableRecord
100
AcDbBlockTableRecord
  2
*D9
 70
    0
280
    1
281
    0
  0
BLOCK_RECORD
  5
62
330
1
100
AcDbSymbolTableRecord
100
AcDbBlockTableRecord
  2
*D15
 70
    0
280
    1
281
    0
  0
BLOCK_RECORD
  5
65
330
1
100
AcDbSymbolTableRecord
100
AcDbBlockTableRecord
  2
*D11
 70
    0
280
    1
281
    0
  0
BLOCK_RECORD
  5
68
330
1
100
AcDbSymbolTableRecord
100
AcDbBlockTableRecord
  2
*D10
 70
    0
280
    1
281
    0
  0
BLOCK_RECORD
  5
6B
330
1
100
AcDbSymbolTableRecord
100
AcDbBlockTableRecord
  2
*D3
 70
    0
280
    1
281
    0
  0
BLOCK_RECORD
  5
6E
330
1
100
AcDbSymbolTableRecord
100
AcDbBlockTableRecord
  2
*D17
 70
    0
280
    1
281
    0
  0
BLOCK_RECORD
  5
71
330
1
100
AcDbSymbolTableRecord
100
AcDbBlockTableRecord
  2
*D1
 70
    0
280
    1
281
    0
  0
BLOCK_RECORD
  5
74
330
1
100
AcDbSymbolTableRecord
100
AcDbBlockTableRecord
  2
*D7
 70
    0
280
    1
281
    0
  0
BLOCK_RECORD
  5
77
330
1
100
AcDbSymbolTableRecord
100
AcDbBlockTableRecord
  2
*D18
 70
    0
280
    1
281
    0
  0
BLOCK_RECORD
  5
7A
330
1
100
AcDbSymbolTableRecord
100
AcDbBlockTableRecord
  2
*D13
 70
    0
280
    1
281
    0
  0
BLOCK_RECORD
  5
7D
330
1
100
AcDbSymbolTableRecord
100
AcDbBlockTableRecord
  2
*D8
 70
    0
280
    1
281
    0
  0
BLOCK_RECORD
  5
80
330
1
100
AcDbSymbolTableRecord
100
AcDbBlockTableRecord
  2
*D6
 70
    0
280
    1
281
    0
  0
BLOCK_RECORD
  5
83
330
1
100
AcDbSymbolTableRecord
100
AcDbBlockTableRecord
  2
*D12
 70
    0
280
    1
281
    0
  0
BLOCK_RECORD
  5
86
330
1
100
AcDbSymbolTableRecord
100
AcDbBlockTableRecord
  2
*D14
 70
    0
280
    1
281
    0
  0
BLOCK_RECORD
  5
89
330
1
100
AcDbSymbolTableRecord
100
AcDbBlockTableRecord
  2
*D16
 70
    0
280
    1
281
    0
  0
ENDTAB
  0
ENDSEC
  0
SECTION
  2
BLOCKS
  0
BLOCK
  5
20
330
1F
100
AcDbEntity
  8
0
100
AcDbBlockBegin
  2
*Model_Space
 70
    0
 10
0
 20
0
 30
0
  3
*Model_Space
  1

  0
ENDBLK
  5
21
330
1F
100
AcDbEntity
  8
0
100
AcDbBlockEnd
  0
BLOCK
  5
1C
330
1B
100
AcDbEntity
  8
0
100
AcDbBlockBegin
  2
*Paper_Space
 70
    0
 10
0
 20
0
 30
0
  3
*Paper_Space
  1

  0
ENDBLK
  5
1D
330
1F
100
AcDbEntity
  8
0
100
AcDbBlockEnd
  0
BLOCK
  5
54
330
53
100
AcDbEntity
  8
0
100
AcDbBlockBegin
  2
*D2
 70
    1
 10
0
 20
0
  3
*D2
  1

  0
LINE
  5
8C
100
AcDbEntity
  8
Cotas
  6
ByBlock
 62
    0
370
   -2
100
AcDbLine
 10
0
 20
11
 11
15
 21
11
  0
SOLID
  5
8D
100
AcDbEntity
  8
Cotas
  6
ByBlock
 62
    0
370
   -2
100
AcDbTrace
 10
0
 20
11
 30
0
 11
0.4
 21
11.06660554524365
 31
0
 12
0.4
 22
10.93339445475635
 32
0
 13
0.4
 23
10.93339445475635
 33
0
  0
SOLID
  5
8E
100
AcDbEntity
  8
Cotas
  6
ByBlock
 62
    0
370
   -2
100
AcDbTrace
 10
15
 20
11
 30
0
 11
14.6
 21
10.93339445475635
 31
0
 12
14.6
 22
11.06660554524365
 32
0
 13
14.6
 23
11.06660554524365
 33
0
  0
MTEXT
  5
8F
100
AcDbEntity
  8
Cotas
  6
CONTINUOUS
 62
    0
370
   -2
100
AcDbMText
 10
7.499999999999999
 20
11.375
 30
0
 40
0.5
 41
0.500000000000031
 71
    5
 72
    1
  1
15
  7
standard
210
0
220
0
230
1
 50
0
 73
    2
 44
1
  0
LINE
  5
90
100
AcDbEntity
  8
Cotas
  6
ByBlock
 62
    0
370
   -2
100
AcDbLine
 10
7.654042494670958e-18
 20
10.125
 11
1.530808498934192e-17
 21
11.25
  0
LINE
  5
91
100
AcDbEntity
  8
Cotas
  6
ByBlock
 62
    0
370
   -2
100
AcDbLine
 10
15
 20
10.125
 11
15
 21
11.25
  0
ENDBLK
  5
55
330
53
100
AcDbEntity
  8
0
100
AcDbBlockEnd
  0
BLOCK
  5
57
330
56
100
AcDbEntity
  8
0
100
AcDbBlockBegin
  2
*D19
 70
    1
 10
0
 20
0
  3
*D19
  1

  0
LINE
  5
92
100
AcDbEntity
  8
Cotas
  6
ByBlock
 62
    0
370
   -2
100
AcDbLine
 10
12.8
 20
9.15
 11
12.8
 21
6.65
  0
SOLID
  5
93
100
AcDbEntity
  8
Cotas
  6
ByBlock
 62
    0
370
   -2
100
AcDbTrace
 10
12.8
 20
9.15
 30
0
 11
12.86660554524365
 21
8.75
 31
0
 12
12.73339445475635
 22
8.75
 32
0
 13
12.73339445475635
 23
8.75
 33
0
  0
SOLID
  5
94
100
AcDbEntity
  8
Cotas
  6
ByBlock
 62
    0
370
   -2
100
AcDbTrace
 10
12.8
 20
6.65
 30
0
 11
12.73339445475635
 21
7.050000000000001
 31
0
 12
12.86660554524365
 22
7.050000000000001
 32
0
 13
12.86660554524365
 23
7.050000000000001
 33
0
  0
MTEXT
  5
95
100
AcDbEntity
  8
Cotas
  6
CONTINUOUS
 62
    0
370
   -2
100
AcDbMText
 10
12.425
 20
7.9
 30
0
 40
0.5
 41
0.7777777777778088
 71
    5
 72
    1
  1
2.5
  7
standard
210
0
220
0
230
1
 50
90
 73
    2
 44
1
  0
LINE
  5
96
100
AcDbEntity
  8
Cotas
  6
ByBlock
 62
    0
370
   -2
100
AcDbLine
 10
12.125
 20
9.15
 11
13.05
 21
9.15
  0
LINE
  5
97
100
AcDbEntity
  8
Cotas
  6
ByBlock
 62
    0
370
   -2
100
AcDbLine
 10
6.125000000000001
 20
6.65
 11
13.05
 21
6.65
  0
ENDBLK
  5
58
330
56
100
AcDbEntity
  8
0
100
AcDbBlockEnd
  0
BLOCK
  5
5A
330
59
100
AcDbEntity
  8
0
100
AcDbBlockBegin
  2
*D5
 70
    1
 10
0
 20
0
  3
*D5
  1

  0
LINE
  5
98
100
AcDbEntity
  8
Cotas
  6
ByBlock
 62
    0
370
   -2
100
AcDbLine
 10
8
 20
10.3
 11
12
 21
10.3
  0
SOLID
  5
99
100
AcDbEntity
  8
Cotas
  6
ByBlock
 62
    0
370
   -2
100
AcDbTrace
 10
8
 20
10.3
 30
0
 11
8.4
 21
10.36660554524365
 31
0
 12
8.4
 22
10.23339445475635
 32
0
 13
8.4
 23
10.23339445475635
 33
0
  0
SOLID
  5
9A
100
AcDbEntity
  8
Cotas
  6
ByBlock
 62
    0
370
   -2
100
AcDbTrace
 10
12
 20
10.3
 30
0
 11
11.6
 21
10.23339445475635
 31
0
 12
11.6
 22
10.36660554524365
 32
0
 13
11.6
 23
10.36660554524365
 33
0
  0
MTEXT
  5
9B
100
AcDbEntity
  8
Cotas
  6
CONTINUOUS
 62
    0
370
   -2
100
AcDbMText
 10
10
 20
10.675
 30
0
 40
0.5
 41
0.2777777777777778
 71
    5
 72
    1
  1
4
  7
standard
210
0
220
0
230
1
 50
0
 73
    2
 44
1
  0
LINE
  5
9C
100
AcDbEntity
  8
Cotas
  6
ByBlock
 62
    0
370
   -2
100
AcDbLine
 10
8
 20
10.125
 11
8
 21
10.55
  0
LINE
  5
9D
100
AcDbEntity
  8
Cotas
  6
ByBlock
 62
    0
370
   -2
100
AcDbLine
 10
12
 20
10.125
 11
12
 21
10.55
  0
ENDBLK
  5
5B
330
59
100
AcDbEntity
  8
0
100
AcDbBlockEnd
  0
BLOCK
  5
5D
330
5C
100
AcDbEntity
  8
0
100
AcDbBlockBegin
  2
*D4
 70
    1
 10
0
 20
0
  3
*D4
  1

  0
LINE
  5
9E
100
AcDbEntity
  8
Cotas
  6
ByBlock
 62
    0
370
   -2
100
AcDbLine
 10
8
 20
10.7
 11
15
 21
10.7
  0
SOLID
  5
9F
100
AcDbEntity
  8
Cotas
  6
ByBlock
 62
    0
370
   -2
100
AcDbTrace
 10
8
 20
10.7
 30
0
 11
8.4
 21
10.76660554524365
 31
0
 12
8.4
 22
10.63339445475635
 32
0
 13
8.4
 23
10.63339445475635
 33
0
  0
SOLID
  5
A0
100
AcDbEntity
  8
Cotas
  6
ByBlock
 62
    0
370
   -2
100
AcDbTrace
 10
15
 20
10.7
 30
0
 11
14.6
 21
10.63339445475635
 31
0
 12
14.6
 22
10.76660554524365
 32
0
 13
14.6
 23
10.76660554524365
 33
0
  0
MTEXT
  5
A1
100
AcDbEntity
  8
Cotas
  6
CONTINUOUS
 62
    0
370
   -2
100
AcDbMText
 10
11.5
 20
11.075
 30
0
 40
0.5
 41
0.2222222222222222
 71
    5
 72
    1
  1
7
  7
standard
210
0
220
0
230
1
 50
0
 73
    2
 44
1
  0
LINE
  5
A2
100
AcDbEntity
  8
Cotas
  6
ByBlock
 62
    0
370
   -2
100
AcDbLine
 10
8
 20
10.125
 11
8
 21
10.95
  0
LINE
  5
A3
100
AcDbEntity
  8
Cotas
  6
ByBlock
 62
    0
370
   -2
100
AcDbLine
 10
15
 20
10.125
 11
15
 21
10.95
  0
ENDBLK
  5
5E
330
5C
100
AcDbEntity
  8
0
100
AcDbBlockEnd
  0
BLOCK
  5
60
330
5F
100
AcDbEntity
  8
0
100
AcDbBlockBegin
  2
*D9
 70
    1
 10
0
 20
0
  3
*D9
  1

  0
LINE
  5
A4
100
AcDbEntity
  8
Cotas
  6
ByBlock
 62
    0
370
   -2
100
AcDbLine
 10
0
 20
10.3
 11
2
 21
10.3
  0
SOLID
  5
A5
100
AcDbEntity
  8
Cotas
  6
ByBlock
 62
    0
370
   -2
100
AcDbTrace
 10
0
 20
10.3
 30
0
 11
0.4
 21
10.36660554524365
 31
0
 12
0.4
 22
10.23339445475635
 32
0
 13
0.4
 23
10.23339445475635
 33
0
  0
SOLID
  5
A6
100
AcDbEntity
  8
Cotas
  6
ByBlock
 62
    0
370
   -2
100
AcDbTrace
 10
2
 20
10.3
 30
0
 11
1.6
 21
10.23339445475635
 31
0
 12
1.6
 22
10.36660554524365
 32
0
 13
1.6
 23
10.36660554524365
 33
0
  0
MTEXT
  5
A7
100
AcDbEntity
  8
Cotas
  6
CONTINUOUS
 62
    0
370
   -2
100
AcDbMText
 10
1
 20
10.675
 30
0
 40
0.5
 41
0.2222222222222222
 71
    5
 72
    1
  1
2
  7
standard
210
0
220
0
230
1
 50
0
 73
    2
 44
1
  0
LINE
  5
A8
100
AcDbEntity
  8
Cotas
  6
ByBlock
 62
    0
370
   -2
100
AcDbLine
 10
7.654042494670958e-18
 20
10.125
 11
1.530808498934192e-17
 21
10.55
  0
LINE
  5
A9
100
AcDbEntity
  8
Cotas
  6
ByBlock
 62
    0
370
   -2
100
AcDbLine
 10
2
 20
10.125
 11
2
 21
10.55
  0
ENDBLK
  5
61
330
5F
100
AcDbEntity
  8
0
100
AcDbBlockEnd
  0
BLOCK
  5
63
330
62
100
AcDbEntity
  8
0
100
AcDbBlockBegin
  2
*D15
 70
    1
 10
0
 20
0
  3
*D15
  1

  0
LINE
  5
AA
100
AcDbEntity
  8
Cotas
  6
ByBlock
 62
    0
370
   -2
100
AcDbLine
 10
1.8
 20
6.65
 11
1.8
 21
5.35
  0
SOLID
  5
AB
100
AcDbEntity
  8
Cotas
  6
ByBlock
 62
    0
370
   -2
100
AcDbTrace
 10
1.8
 20
6.65
 30
0
 11
1.866605545243655
 21
6.25
 31
0
 12
1.733394454756346
 22
6.25
 32
0
 13
1.733394454756346
 23
6.25
 33
0
  0
SOLID
  5
AC
100
AcDbEntity
  8
Cotas
  6
ByBlock
 62
    0
370
   -2
100
AcDbTrace
 10
1.8
 20
5.35
 30
0
 11
1.733394454756346
 21
5.75
 31
0
 12
1.866605545243655
 22
5.75
 32
0
 13
1.866605545243655
 23
5.75
 33
0
  0
MTEXT
  5
AD
100
AcDbEntity
  8
Cotas
  6
CONTINUOUS
 62
    0
370
   -2
100
AcDbMText
 10
1.425
 20
6
 30
0
 40
0.5
 41
0.6666666666666976
 71
    5
 72
    1
  1
1.3
  7
standard
210
0
220
0
230
1
 50
90
 73
    2
 44
1
  0
LINE
  5
AE
100
AcDbEntity
  8
Cotas
  6
ByBlock
 62
    0
370
   -2
100
AcDbLine
 10
1.875
 20
6.65
 11
1.55
 21
6.65
  0
LINE
  5
AF
100
AcDbEntity
  8
Cotas
  6
ByBlock
 62
    0
370
   -2
100
AcDbLine
 10
1.875
 20
5.35
 11
1.55
 21
5.35
  0
ENDBLK
  5
64
330
62
100
AcDbEntity
  8
0
100
AcDbBlockEnd
  0
BLOCK
  5
66
330
65
100
AcDbEntity
  8
0
100
AcDbBlockBegin
  2
*D11
 70
    1
 10
0
 20
0
  3
*D11
  1

  0
LINE
  5
B0
100
AcDbEntity
  8
Cotas
  6
ByBlock
 62
    0
370
   -2
100
AcDbLine
 10
-0.3999999999999995
 20
7
 11
-0.3999999999999997
 21
4
  0
SOLID
  5
B1
100
AcDbEntity
  8
Cotas
  6
ByBlock
 62
    0
370
   -2
100
AcDbTrace
 10
-0.3999999999999995
 20
7
 30
0
 11
-0.333394454756345
 21
6.6
 31
0
 12
-0.4666055452436541
 22
6.6
 32
0
 13
-0.4666055452436541
 23
6.6
 33
0
  0
SOLID
  5
B2
100
AcDbEntity
  8
Cotas
  6
ByBlock
 62
    0
370
   -2
100
AcDbTrace
 10
-0.3999999999999997
 20
4
 30
0
 11
-0.4666055452436541
 21
4.4
 31
0
 12
-0.3333944547563451
 22
4.4
 32
0
 13
-0.3333944547563451
 23
4.4
 33
0
  0
MTEXT
  5
B3
100
AcDbEntity
  8
Cotas
  6
CONTINUOUS
 62
    0
370
   -2
100
AcDbMText
 10
-0.7749999999999997
 20
5.5
 30
0
 40
0.5
 41
0.2222222222222532
 71
    5
 72
    1
  1
3
  7
standard
210
0
220
0
230
1
 50
90
 73
    2
 44
1
  0
LINE
  5
B4
100
AcDbEntity
  8
Cotas
  6
ByBlock
 62
    0
370
   -2
100
AcDbLine
 10
-0.125
 20
7
 11
-0.6499999999999995
 21
7
  0
LINE
  5
B5
100
AcDbEntity
  8
Cotas
  6
ByBlock
 62
    0
370
   -2
100
AcDbLine
 10
-0.125
 20
4
 11
-0.6499999999999997
 21
4
  0
ENDBLK
  5
67
330
65
100
AcDbEntity
  8
0
100
AcDbBlockEnd
  0
BLOCK
  5
69
330
68
100
AcDbEntity
  8
0
100
AcDbBlockBegin
  2
*D10
 70
    1
 10
0
 20
0
  3
*D10
  1

  0
LINE
  5
B6
100
AcDbEntity
  8
Cotas
  6
ByBlock
 62
    0
370
   -2
100
AcDbLine
 10
-0.4
 20
10
 11
-0.4000000000000002
 21
7
  0
SOLID
  5
B7
100
AcDbEntity
  8
Cotas
  6
ByBlock
 62
    0
370
   -2
100
AcDbTrace
 10
-0.4
 20
10
 30
0
 11
-0.3333944547563455
 21
9.6
 31
0
 12
-0.4666055452436545
 22
9.6
 32
0
 13
-0.4666055452436545
 23
9.6
 33
0
  0
SOLID
  5
B8
100
AcDbEntity
  8
Cotas
  6
ByBlock
 62
    0
370
   -2
100
AcDbTrace
 10
-0.4000000000000002
 20
7
 30
0
 11
-0.4666055452436546
 21
7.4
 31
0
 12
-0.3333944547563457
 22
7.4
 32
0
 13
-0.3333944547563457
 23
7.4
 33
0
  0
MTEXT
  5
B9
100
AcDbEntity
  8
Cotas
  6
CONTINUOUS
 62
    0
370
   -2
100
AcDbMText
 10
-0.7750000000000001
 20
8.5
 30
0
 40
0.5
 41
0.2222222222222532
 71
    5
 72
    1
  1
3
  7
standard
210
0
220
0
230
1
 50
90
 73
    2
 44
1
  0
LINE
  5
BA
100
AcDbEntity
  8
Cotas
  6
ByBlock
 62
    0
370
   -2
100
AcDbLine
 10
-0.125
 20
10
 11
-0.65
 21
10
  0
LINE
  5
BB
100
AcDbEntity
  8
Cotas
  6
ByBlock
 62
    0
370
   -2
100
AcDbLine
 10
-0.125
 20
7
 11
-0.6500000000000001
 21
7
  0
ENDBLK
  5
6A
330
68
100
AcDbEntity
  8
0
100
AcDbBlockEnd
  0
BLOCK
  5
6C
330
6B
100
AcDbEntity
  8
0
100
AcDbBlockBegin
  2
*D3
 70
    1
 10
0
 20
0
  3
*D3
  1

  0
LINE
  5
BC
100
AcDbEntity
  8
Cotas
  6
ByBlock
 62
    0
370
   -2
100
AcDbLine
 10
2
 20
10.7
 11
8
 21
10.7
  0
SOLID
  5
BD
100
AcDbEntity
  8
Cotas
  6
ByBlock
 62
    0
370
   -2
100
AcDbTrace
 10
2
 20
10.7
 30
0
 11
2.4
 21
10.76660554524365
 31
0
 12
2.4
 22
10.63339445475635
 32
0
 13
2.4
 23
10.63339445475635
 33
0
  0
SOLID
  5
BE
100
AcDbEntity
  8
Cotas
  6
ByBlock
 62
    0
370
   -2
100
AcDbTrace
 10
8
 20
10.7
 30
0
 11
7.6
 21
10.63339445475635
 31
0
 12
7.6
 22
10.76660554524365
 32
0
 13
7.6
 23
10.76660554524365
 33
0
  0
MTEXT
  5
BF
100
AcDbEntity
  8
Cotas
  6
CONTINUOUS
 62
    0
370
   -2
100
AcDbMText
 10
5
 20
11.075
 30
0
 40
0.5
 41
0.2222222222222532
 71
    5
 72
    1
  1
6
  7
standard
210
0
220
0
230
1
 50
0
 73
    2
 44
1
  0
LINE
  5
C0
100
AcDbEntity
  8
Cotas
  6
ByBlock
 62
    0
370
   -2
100
AcDbLine
 10
2
 20
10.125
 11
2
 21
10.95
  0
LINE
  5
C1
100
AcDbEntity
  8
Cotas
  6
ByBlock
 62
    0
370
   -2
100
AcDbLine
 10
8
 20
10.125
 11
8
 21
10.95
  0
ENDBLK
  5
6D
330
6B
100
AcDbEntity
  8
0
100
AcDbBlockEnd
  0
BLOCK
  5
6F
330
6E
100
AcDbEntity
  8
0
100
AcDbBlockBegin
  2
*D17
 70
    1
 10
0
 20
0
  3
*D17
  1

  0
LINE
  5
C2
100
AcDbEntity
  8
Cotas
  6
ByBlock
 62
    0
370
   -2
100
AcDbLine
 10
14
 20
9.850000000000001
 11
14
 21
2.15
  0
SOLID
  5
C3
100
AcDbEntity
  8
Cotas
  6
ByBlock
 62
    0
370
   -2
100
AcDbTrace
 10
14
 20
9.850000000000001
 30
0
 11
14.06660554524365
 21
9.450000000000001
 31
0
 12
13.93339445475635
 22
9.450000000000001
 32
0
 13
13.93339445475635
 23
9.450000000000001
 33
0
  0
SOLID
  5
C4
100
AcDbEntity
  8
Cotas
  6
ByBlock
 62
    0
370
   -2
100
AcDbTrace
 10
14
 20
2.15
 30
0
 11
13.93339445475635
 21
2.55
 31
0
 12
14.06660554524365
 22
2.55
 32
0
 13
14.06660554524365
 23
2.55
 33
0
  0
MTEXT
  5
C5
100
AcDbEntity
  8
Cotas
  6
CONTINUOUS
 62
    0
370
   -2
100
AcDbMText
 10
13.625
 20
6.000000000000001
 30
0
 40
0.5
 41
0.7777777777777777
 71
    5
 72
    1
  1
7.7
  7
standard
210
0
220
0
230
1
 50
90
 73
    2
 44
1
  0
LINE
  5
C6
100
AcDbEntity
  8
Cotas
  6
ByBlock
 62
    0
370
   -2
100
AcDbLine
 10
12.125
 20
9.850000000000001
 11
14.25
 21
9.850000000000001
  0
LINE
  5
C7
100
AcDbEntity
  8
Cotas
  6
ByBlock
 62
    0
370
   -2
100
AcDbLine
 10
12.125
 20
2.15
 11
14.25
 21
2.15
  0
ENDBLK
  5
70
330
6E
100
AcDbEntity
  8
0
100
AcDbBlockEnd
  0
BLOCK
  5
72
330
71
100
AcDbEntity
  8
0
100
AcDbBlockBegin
  2
*D1
 70
    1
 10
0
 20
0
  3
*D1
  1

  0
LINE
  5
C8
100
AcDbEntity
  8
Cotas
  6
ByBlock
 62
    0
370
   -2
100
AcDbLine
 10
-0.9999999999999993
 20
10
 11
-1
 21
6.106226635438361e-17
  0
SOLID
  5
C9
100
AcDbEntity
  8
Cotas
  6
ByBlock
 62
    0
370
   -2
100
AcDbTrace
 10
-0.9999999999999993
 20
10
 30
0
 11
-0.9333944547563449
 21
9.6
 31
0
 12
-1.066605545243654
 22
9.6
 32
0
 13
-1.066605545243654
 23
9.6
 33
0
  0
SOLID
  5
CA
100
AcDbEntity
  8
Cotas
  6
ByBlock
 62
    0
370
   -2
100
AcDbTrace
 10
-1
 20
6.106226635438361e-17
 30
0
 11
-1.066605545243654
 21
0.4000000000000001
 31
0
 12
-0.9333944547563454
 22
0.4000000000000001
 32
0
 13
-0.9333944547563454
 23
0.4000000000000001
 33
0
  0
MTEXT
  5
CB
100
AcDbEntity
  8
Cotas
  6
CONTINUOUS
 62
    0
370
   -2
100
AcDbMText
 10
-1.375
 20
5
 30
0
 40
0.5
 41
0.5
 71
    5
 72
    1
  1
10
  7
standard
210
0
220
0
230
1
 50
90
 73
    2
 44
1
  0
LINE
  5
CC
100
AcDbEntity
  8
Cotas
  6
ByBlock
 62
    0
370
   -2
100
AcDbLine
 10
-0.125
 20
10
 11
-1.249999999999999
 21
10
  0
LINE
  5
CD
100
AcDbEntity
  8
Cotas
  6
ByBlock
 62
    0
370
   -2
100
AcDbLine
 10
-0.125
 20
1.530808498934192e-17
 11
-1.25
 21
9.167843633306745e-17
  0
ENDBLK
  5
73
330
71
100
AcDbEntity
  8
0
100
AcDbBlockEnd
  0
BLOCK
  5
75
330
74
100
AcDbEntity
  8
0
100
AcDbBlockBegin
  2
*D7
 70
    1
 10
0
 20
0
  3
*D7
  1

  0
LINE
  5
CE
100
AcDbEntity
  8
Cotas
  6
ByBlock
 62
    0
370
   -2
100
AcDbLine
 10
6
 20
10.3
 11
8
 21
10.3
  0
SOLID
  5
CF
100
AcDbEntity
  8
Cotas
  6
ByBlock
 62
    0
370
   -2
100
AcDbTrace
 10
6
 20
10.3
 30
0
 11
6.4
 21
10.36660554524365
 31
0
 12
6.4
 22
10.23339445475635
 32
0
 13
6.4
 23
10.23339445475635
 33
0
  0
SOLID
  5
D0
100
AcDbEntity
  8
Cotas
  6
ByBlock
 62
    0
370
   -2
100
AcDbTrace
 10
8
 20
10.3
 30
0
 11
7.6
 21
10.23339445475635
 31
0
 12
7.6
 22
10.36660554524365
 32
0
 13
7.6
 23
10.36660554524365
 33
0
  0
MTEXT
  5
D1
100
AcDbEntity
  8
Cotas
  6
CONTINUOUS
 62
    0
370
   -2
100
AcDbMText
 10
7
 20
10.675
 30
0
 40
0.5
 41
0.2222222222222222
 71
    5
 72
    1
  1
2
  7
standard
210
0
220
0
230
1
 50
0
 73
    2
 44
1
  0
LINE
  5
D2
100
AcDbEntity
  8
Cotas
  6
ByBlock
 62
    0
370
   -2
100
AcDbLine
 10
6
 20
10.125
 11
6
 21
10.55
  0
LINE
  5
D3
100
AcDbEntity
  8
Cotas
  6
ByBlock
 62
    0
370
   -2
100
AcDbLine
 10
8
 20
10.125
 11
8
 21
10.55
  0
ENDBLK
  5
76
330
74
100
AcDbEntity
  8
0
100
AcDbBlockEnd
  0
BLOCK
  5
78
330
77
100
AcDbEntity
  8
0
100
AcDbBlockBegin
  2
*D18
 70
    1
 10
0
 20
0
  3
*D18
  1

  0
LINE
  5
D4
100
AcDbEntity
  8
Cotas
  6
ByBlock
 62
    0
370
   -2
100
AcDbLine
 10
13
 20
9.15
 11
13
 21
2.15
  0
SOLID
  5
D5
100
AcDbEntity
  8
Cotas
  6
ByBlock
 62
    0
370
   -2
100
AcDbTrace
 10
13
 20
9.15
 30
0
 11
13.06660554524365
 21
8.75
 31
0
 12
12.93339445475635
 22
8.75
 32
0
 13
12.93339445475635
 23
8.75
 33
0
  0
SOLID
  5
D6
100
AcDbEntity
  8
Cotas
  6
ByBlock
 62
    0
370
   -2
100
AcDbTrace
 10
13
 20
2.15
 30
0
 11
12.93339445475635
 21
2.55
 31
0
 12
13.06660554524365
 22
2.55
 32
0
 13
13.06660554524365
 23
2.55
 33
0
  0
MTEXT
  5
D7
100
AcDbEntity
  8
Cotas
  6
CONTINUOUS
 62
    0
370
   -2
100
AcDbMText
 10
12.625
 20
5.65
 30
0
 40
0.5
 41
0.2222222222222222
 71
    5
 72
    1
  1
7
  7
standard
210
0
220
0
230
1
 50
90
 73
    2
 44
1
  0
LINE
  5
D8
100
AcDbEntity
  8
Cotas
  6
ByBlock
 62
    0
370
   -2
100
AcDbLine
 10
12.125
 20
9.15
 11
13.25
 21
9.15
  0
LINE
  5
D9
100
AcDbEntity
  8
Cotas
  6
ByBlock
 62
    0
370
   -2
100
AcDbLine
 10
12.125
 20
2.15
 11
13.25
 21
2.15
  0
ENDBLK
  5
79
330
77
100
AcDbEntity
  8
0
100
AcDbBlockEnd
  0
BLOCK
  5
7B
330
7A
100
AcDbEntity
  8
0
100
AcDbBlockBegin
  2
*D13
 70
    1
 10
0
 20
0
  3
*D13
  1

  0
LINE
  5
DA
100
AcDbEntity
  8
Cotas
  6
ByBlock
 62
    0
370
   -2
100
AcDbLine
 10
-0.4
 20
2.8
 11
-0.4000000000000001
 21
1
  0
SOLID
  5
DB
100
AcDbEntity
  8
Cotas
  6
ByBlock
 62
    0
370
   -2
100
AcDbTrace
 10
-0.4
 20
2.8
 30
0
 11
-0.3333944547563455
 21
2.4
 31
0
 12
-0.4666055452436545
 22
2.4
 32
0
 13
-0.4666055452436545
 23
2.4
 33
0
  0
SOLID
  5
DC
100
AcDbEntity
  8
Cotas
  6
ByBlock
 62
    0
370
   -2
100
AcDbTrace
 10
-0.4000000000000001
 20
1
 30
0
 11
-0.4666055452436545
 21
1.4
 31
0
 12
-0.3333944547563455
 22
1.4
 32
0
 13
-0.3333944547563455
 23
1.4
 33
0
  0
MTEXT
  5
DD
100
AcDbEntity
  8
Cotas
  6
CONTINUOUS
 62
    0
370
   -2
100
AcDbMText
 10
-0.7750000000000001
 20
1.9
 30
0
 40
0.5
 41
0.6666666666666666
 71
    5
 72
    1
  1
1.8
  7
standard
210
0
220
0
230
1
 50
90
 73
    2
 44
1
  0
LINE
  5
DE
100
AcDbEntity
  8
Cotas
  6
ByBlock
 62
    0
370
   -2
100
AcDbLine
 10
-0.1250000000000001
 20
2.8
 11
-0.6499999999999999
 21
2.8
  0
LINE
  5
DF
100
AcDbEntity
  8
Cotas
  6
ByBlock
 62
    0
370
   -2
100
AcDbLine
 10
-0.1250000000000001
 20
1
 11
-0.6500000000000001
 21
1
  0
ENDBLK
  5
7C
330
7A
100
AcDbEntity
  8
0
100
AcDbBlockEnd
  0
BLOCK
  5
7E
330
7D
100
AcDbEntity
  8
0
100
AcDbBlockBegin
  2
*D8
 70
    1
 10
0
 20
0
  3
*D8
  1

  0
LINE
  5
E0
100
AcDbEntity
  8
Cotas
  6
ByBlock
 62
    0
370
   -2
100
AcDbLine
 10
2
 20
10.3
 11
6
 21
10.3
  0
SOLID
  5
E1
100
AcDbEntity
  8
Cotas
  6
ByBlock
 62
    0
370
   -2
100
AcDbTrace
 10
2
 20
10.3
 30
0
 11
2.4
 21
10.36660554524365
 31
0
 12
2.4
 22
10.23339445475635
 32
0
 13
2.4
 23
10.23339445475635
 33
0
  0
SOLID
  5
E2
100
AcDbEntity
  8
Cotas
  6
ByBlock
 62
    0
370
   -2
100
AcDbTrace
 10
6
 20
10.3
 30
0
 11
5.6
 21
10.23339445475635
 31
0
 12
5.6
 22
10.36660554524365
 32
0
 13
5.6
 23
10.36660554524365
 33
0
  0
MTEXT
  5
E3
100
AcDbEntity
  8
Cotas
  6
CONTINUOUS
 62
    0
370
   -2
100
AcDbMText
 10
4
 20
10.675
 30
0
 40
0.5
 41
0.2777777777777778
 71
    5
 72
    1
  1
4
  7
standard
210
0
220
0
230
1
 50
0
 73
    2
 44
1
  0
LINE
  5
E4
100
AcDbEntity
  8
Cotas
  6
ByBlock
 62
    0
370
   -2
100
AcDbLine
 10
2
 20
10.125
 11
2
 21
10.55
  0
LINE
  5
E5
100
AcDbEntity
  8
Cotas
  6
ByBlock
 62
    0
370
   -2
100
AcDbLine
 10
6
 20
10.125
 11
6
 21
10.55
  0
ENDBLK
  5
7F
330
7D
100
AcDbEntity
  8
0
100
AcDbBlockEnd
  0
BLOCK
  5
81
330
80
100
AcDbEntity
  8
0
100
AcDbBlockBegin
  2
*D6
 70
    1
 10
0
 20
0
  3
*D6
  1

  0
LINE
  5
E6
100
AcDbEntity
  8
Cotas
  6
ByBlock
 62
    0
370
   -2
100
AcDbLine
 10
12
 20
10.3
 11
15
 21
10.3
  0
SOLID
  5
E7
100
AcDbEntity
  8
Cotas
  6
ByBlock
 62
    0
370
   -2
100
AcDbTrace
 10
12
 20
10.3
 30
0
 11
12.4
 21
10.36660554524365
 31
0
 12
12.4
 22
10.23339445475635
 32
0
 13
12.4
 23
10.23339445475635
 33
0
  0
SOLID
  5
E8
100
AcDbEntity
  8
Cotas
  6
ByBlock
 62
    0
370
   -2
100
AcDbTrace
 10
15
 20
10.3
 30
0
 11
14.6
 21
10.23339445475635
 31
0
 12
14.6
 22
10.36660554524365
 32
0
 13
14.6
 23
10.36660554524365
 33
0
  0
MTEXT
  5
E9
100
AcDbEntity
  8
Cotas
  6
CONTINUOUS
 62
    0
370
   -2
100
AcDbMText
 10
13.5
 20
10.675
 30
0
 40
0.5
 41
0.2222222222222532
 71
    5
 72
    1
  1
3
  7
standard
210
0
220
0
230
1
 50
0
 73
    2
 44
1
  0
LINE
  5
EA
100
AcDbEntity
  8
Cotas
  6
ByBlock
 62
    0
370
   -2
100
AcDbLine
 10
12
 20
10.125
 11
12
 21
10.55
  0
LINE
  5
EB
100
AcDbEntity
  8
Cotas
  6
ByBlock
 62
    0
370
   -2
100
AcDbLine
 10
15
 20
10.125
 11
15
 21
10.55
  0
ENDBLK
  5
82
330
80
100
AcDbEntity
  8
0
100
AcDbBlockEnd
  0
BLOCK
  5
84
330
83
100
AcDbEntity
  8
0
100
AcDbBlockBegin
  2
*D12
 70
    1
 10
0
 20
0
  3
*D12
  1

  0
LINE
  5
EC
100
AcDbEntity
  8
Cotas
  6
ByBlock
 62
    0
370
   -2
100
AcDbLine
 10
-0.4
 20
4
 11
-0.4000000000000001
 21
2.8
  0
SOLID
  5
ED
100
AcDbEntity
  8
Cotas
  6
ByBlock
 62
    0
370
   -2
100
AcDbTrace
 10
-0.4
 20
4
 30
0
 11
-0.3333944547563455
 21
3.6
 31
0
 12
-0.4666055452436545
 22
3.6
 32
0
 13
-0.4666055452436545
 23
3.6
 33
0
  0
SOLID
  5
EE
100
AcDbEntity
  8
Cotas
  6
ByBlock
 62
    0
370
   -2
100
AcDbTrace
 10
-0.4000000000000001
 20
2.8
 30
0
 11
-0.4666055452436545
 21
3.2
 31
0
 12
-0.3333944547563455
 22
3.2
 32
0
 13
-0.3333944547563455
 23
3.2
 33
0
  0
MTEXT
  5
EF
100
AcDbEntity
  8
Cotas
  6
CONTINUOUS
 62
    0
370
   -2
100
AcDbMText
 10
-0.7750000000000001
 20
3.4
 30
0
 40
0.5
 41
0.6666666666666665
 71
    5
 72
    1
  1
1.2
  7
standard
210
0
220
0
230
1
 50
90
 73
    2
 44
1
  0
LINE
  5
F0
100
AcDbEntity
  8
Cotas
  6
ByBlock
 62
    0
370
   -2
100
AcDbLine
 10
-0.1250000000000001
 20
4
 11
-0.65
 21
4
  0
LINE
  5
F1
100
AcDbEntity
  8
Cotas
  6
ByBlock
 62
    0
370
   -2
100
AcDbLine
 10
-0.1250000000000001
 20
2.8
 11
-0.6500000000000001
 21
2.8
  0
ENDBLK
  5
85
330
83
100
AcDbEntity
  8
0
100
AcDbBlockEnd
  0
BLOCK
  5
87
330
86
100
AcDbEntity
  8
0
100
AcDbBlockBegin
  2
*D14
 70
    1
 10
0
 20
0
  3
*D14
  1

  0
LINE
  5
F2
100
AcDbEntity
  8
Cotas
  6
ByBlock
 62
    0
370
   -2
100
AcDbLine
 10
1.8
 20
9.85
 11
1.8
 21
6.800000000000001
  0
SOLID
  5
F3
100
AcDbEntity
  8
Cotas
  6
ByBlock
 62
    0
370
   -2
100
AcDbTrace
 10
1.8
 20
9.85
 30
0
 11
1.866605545243655
 21
9.449999999999999
 31
0
 12
1.733394454756346
 22
9.449999999999999
 32
0
 13
1.733394454756346
 23
9.449999999999999
 33
0
  0
SOLID
  5
F4
100
AcDbEntity
  8
Cotas
  6
ByBlock
 62
    0
370
   -2
100
AcDbTrace
 10
1.8
 20
6.800000000000001
 30
0
 11
1.733394454756346
 21
7.200000000000001
 31
0
 12
1.866605545243655
 22
7.200000000000001
 32
0
 13
1.866605545243655
 23
7.200000000000001
 33
0
  0
MTEXT
  5
F5
100
AcDbEntity
  8
Cotas
  6
CONTINUOUS
 62
    0
370
   -2
100
AcDbMText
 10
1.425
 20
8.324999999999999
 30
0
 40
0.5
 41
1.166666666666729
 71
    5
 72
    1
  1
3.05
  7
standard
210
0
220
0
230
1
 50
90
 73
    2
 44
1
  0
LINE
  5
F6
100
AcDbEntity
  8
Cotas
  6
ByBlock
 62
    0
370
   -2
100
AcDbLine
 10
1.875
 20
9.85
 11
1.55
 21
9.85
  0
LINE
  5
F7
100
AcDbEntity
  8
Cotas
  6
ByBlock
 62
    0
370
   -2
100
AcDbLine
 10
1.875
 20
6.800000000000001
 11
1.55
 21
6.800000000000001
  0
ENDBLK
  5
88
330
86
100
AcDbEntity
  8
0
100
AcDbBlockEnd
  0
BLOCK
  5
8A
330
89
100
AcDbEntity
  8
0
100
AcDbBlockBegin
  2
*D16
 70
    1
 10
0
 20
0
  3
*D16
  1

  0
LINE
  5
F8
100
AcDbEntity
  8
Cotas
  6
ByBlock
 62
    0
370
   -2
100
AcDbLine
 10
1.8
 20
5.199999999999999
 11
1.8
 21
2.15
  0
SOLID
  5
F9
100
AcDbEntity
  8
Cotas
  6
ByBlock
 62
    0
370
   -2
100
AcDbTrace
 10
1.8
 20
5.199999999999999
 30
0
 11
1.866605545243655
 21
4.799999999999999
 31
0
 12
1.733394454756346
 22
4.799999999999999
 32
0
 13
1.733394454756346
 23
4.799999999999999
 33
0
  0
SOLID
  5
FA
100
AcDbEntity
  8
Cotas
  6
ByBlock
 62
    0
370
   -2
100
AcDbTrace
 10
1.8
 20
2.15
 30
0
 11
1.733394454756346
 21
2.55
 31
0
 12
1.866605545243655
 22
2.55
 32
0
 13
1.866605545243655
 23
2.55
 33
0
  0
MTEXT
  5
FB
100
AcDbEntity
  8
Cotas
  6
CONTINUOUS
 62
    0
370
   -2
100
AcDbMText
 10
1.425
 20
3.675
 30
0
 40
0.5
 41
1.166666666666729
 71
    5
 72
    1
  1
3.05
  7
standard
210
0
220
0
230
1
 50
90
 73
    2
 44
1
  0
LINE
  5
FC
100
AcDbEntity
  8
Cotas
  6
ByBlock
 62
    0
370
   -2
100
AcDbLine
 10
1.875
 20
5.199999999999999
 11
1.55
 21
5.199999999999998
  0
LINE
  5
FD
100
AcDbEntity
  8
Cotas
  6
ByBlock
 62
    0
370
   -2
100
AcDbLine
 10
1.875
 20
2.15
 11
1.55
 21
2.15
  0
ENDBLK
  5
8B
330
89
100
AcDbEntity
  8
0
100
AcDbBlockEnd
  0
ENDSEC
  0
SECTION
  2
ENTITIES
  0
LWPOLYLINE
  5
FE
100
AcDbEntity
  8
Terreno
  6
ByLayer
 62
  256
370
   -1
100
AcDbPolyline
 90
    4
 70
    1
 43
0
 10
0
 20
0
 10
15
 20
0
 10
15
 20
10
 10
0
 20
10
  0
DIMENSION
  5
FF
100
AcDbEntity
  8
Cotas
  6
ByLayer
 62
  256
370
   -1
100
AcDbDimension
  2
*D1
 10
-1
 20
1.224646799147353e-16
 30
0
 11
-1.375
 21
5
 31
0
 70
   32
 71
    5
 72
    0
  3
Standard
 53
0
210
0
220
0
230
1
100
AcDbAlignedDimension
 13
0
 23
10
 33
0
 14
0
 24
0
 34
0
 50
90
100
AcDbRotatedDimension
  0
DIMENSION
  5
100
100
AcDbEntity
  8
Cotas
  6
ByLayer
 62
  256
370
   -1
100
AcDbDimension
  2
*D2
 10
13.5
 20
11
 30
0
 11
7.499999999999999
 21
11.375
 31
0
 70
   32
 71
    5
 72
    0
  3
Standard
 53
0
210
0
220
0
230
1
100
AcDbAlignedDimension
 13
0
 23
10
 33
0
 14
15
 24
10
 34
0
100
AcDbRotatedDimension
  0
LINE
  5
101
100
AcDbEntity
  8
Diviciones
  6
ByLayer
 62
  256
370
   -1
100
AcDbLine
 10
2
 20
7
 11
2
 21
4
  0
LINE
  5
102
100
AcDbEntity
  8
Diviciones
  6
ByLayer
 62
  256
370
   -1
100
AcDbLine
 10
2
 20
4
 11
3
 21
4
  0
LINE
  5
103
100
AcDbEntity
  8
Diviciones
  6
ByLayer
 62
  256
370
   -1
100
AcDbLine
 10
2
 20
7
 11
3
 21
7
  0
LINE
  5
104
100
AcDbEntity
  8
Diviciones
  6
ByLayer
 62
  256
370
   -1
100
AcDbLine
 10
8
 20
10
 11
8
 21
7
  0
LINE
  5
105
100
AcDbEntity
  8
Diviciones
  6
ByLayer
 62
  256
370
   -1
100
AcDbLine
 10
8
 20
7
 11
3
 21
7
  0
LINE
  5
106
100
AcDbEntity
  8
Diviciones
  6
ByLayer
 62
  256
370
   -1
100
AcDbLine
 10
3
 20
4
 11
6
 21
4
  0
LINE
  5
107
100
AcDbEntity
  8
Diviciones
  6
ByLayer
 62
  256
370
   -1
100
AcDbLine
 10
3
 20
1
 11
3
 21
4
  0
LINE
  5
108
100
AcDbEntity
  8
Diviciones
  6
ByLayer
 62
  256
370
   -1
100
AcDbLine
 10
6
 20
1
 11
6
 21
2.5
  0
LINE
  5
109
100
AcDbEntity
  8
Diviciones
  6
ByLayer
 62
  256
370
   -1
100
AcDbLine
 10
2
 20
7
 11
2
 21
10
  0
LINE
  5
10A
100
AcDbEntity
  8
Diviciones
  6
ByLayer
 62
  256
370
   -1
100
AcDbLine
 10
2
 20
10
 11
8
 21
10
  0
LINE
  5
10B
100
AcDbEntity
  8
Diviciones
  6
ByLayer
 62
  256
370
   -1
100
AcDbLine
 10
8
 20
10
 11
12
 21
10
  0
LINE
  5
10C
100
AcDbEntity
  8
Diviciones
  6
ByLayer
 62
  256
370
   -1
100
AcDbLine
 10
8
 20
1
 11
8
 21
2.1
  0
LINE
  5
10D
100
AcDbEntity
  8
0
  6
ByLayer
 62
  256
370
   -1
100
AcDbLine
 10
8
 20
1.15
 11
6.000000000000001
 21
1.15
  0
LINE
  5
10E
100
AcDbEntity
  8
0
  6
ByLayer
 62
  256
370
   -1
100
AcDbLine
 10
8
 20
2.15
 11
7
 21
2.15
  0
LINE
  5
10F
100
AcDbEntity
  8
0
  6
ByLayer
 62
  256
370
   -1
100
AcDbLine
 10
7.000000000000001
 20
2.35
 11
8
 21
2.350000000000001
  0
LINE
  5
110
100
AcDbEntity
  8
0
  6
ByLayer
 62
  256
370
   -1
100
AcDbLine
 10
8
 20
2.55
 11
7.000000000000001
 21
2.55
  0
LINE
  5
111
100
AcDbEntity
  8
0
  6
ByLayer
 62
  256
370
   -1
100
AcDbLine
 10
7
 20
2.15
 11
7
 21
1.15
  0
LINE
  5
112
100
AcDbEntity
  8
0
  6
ByLayer
 62
  256
370
   -1
100
AcDbLine
 10
6.8
 20
2.15
 11
6.800000000000001
 21
1.15
  0
LINE
  5
113
100
AcDbEntity
  8
0
  6
ByLayer
 62
  256
370
   -1
100
AcDbLine
 10
6.600000000000001
 20
2.15
 11
6.600000000000001
 21
1.15
  0
LINE
  5
114
100
AcDbEntity
  8
0
  6
ByLayer
 62
  256
370
   -1
100
AcDbLine
 10
6.4
 20
2.15
 11
6.4
 21
1.15
  0
LINE
  5
115
100
AcDbEntity
  8
0
  6
ByLayer
 62
  256
370
   -1
100
AcDbLine
 10
6.200000000000001
 20
1.15
 11
6.2
 21
2.15
  0
LINE
  5
116
100
AcDbEntity
  8
Diviciones
  6
ByLayer
 62
  256
370
   -1
100
AcDbLine
 10
8.000000000000002
 20
2.5
 11
8
 21
2.1
  0
MTEXT
  5
117
100
AcDbEntity
  8
0
  6
ByLayer
 62
  256
370
   -1
100
AcDbMText
 10
7.5
 20
1.7
 30
0
 40
0.1
 41
0.2888888888888997
 71
    5
 72
    1
  1
60cm
  7
STANDARD
210
0
220
0
230
1
 50
0
 73
    2
 44
1
  0
MTEXT
  5
118
100
AcDbEntity
  8
0
  6
ByLayer
 62
  256
370
   -1
100
AcDbMText
 10
6.100000000000001
 20
1.7
 30
0
 40
0.1
 41
0.02222222222222222
 71
    5
 72
    1
  1
1
  7
STANDARD
210
0
220
0
230
1
 50
90
 73
    2
 44
1
  0
LINE
  5
119
100
AcDbEntity
  8
0
  6
ByLayer
 62
  256
370
   -1
100
AcDbLine
 10
8
 20
9.15
 11
12
 21
9.15
  0
LINE
  5
11A
100
AcDbEntity
  8
0
  6
ByLayer
 62
  256
370
   -1
100
AcDbLine
 10
3
 20
1.15
 11
6
 21
1.15
  0
LINE
  5
11B
100
AcDbEntity
  8
0
  6
ByLayer
 62
  256
370
   -1
100
AcDbLine
 10
3.15
 20
2.5
 11
3.15
 21
1
  0
LINE
  5
11C
100
AcDbEntity
  8
0
  6
ByLayer
 62
  256
370
   -1
100
AcDbLine
 10
5.8
 20
1.1
 11
5.8
 21
1.2
  0
LINE
  5
11D
100
AcDbEntity
  8
0
  6
ByLayer
 62
  256
370
   -1
100
AcDbLine
 10
5.600000000000001
 20
1.1
 11
5.600000000000001
 21
1.2
  0
LINE
  5
11E
100
AcDbEntity
  8
0
  6
ByLayer
 62
  256
370
   -1
100
AcDbLine
 10
5.4
 20
1.1
 11
5.4
 21
1.2
  0
LINE
  5
11F
100
AcDbEntity
  8
0
  6
ByLayer
 62
  256
370
   -1
100
AcDbLine
 10
5.600000000000001
 20
1.3
 11
5.600000000000001
 21
1.2
  0
LINE
  5
120
100
AcDbEntity
  8
0
  6
ByLayer
 62
  256
370
   -1
100
AcDbLine
 10
5.2
 20
1.2
 11
5.2
 21
1.1
  0
LINE
  5
121
100
AcDbEntity
  8
0
  6
ByLayer
 62
  256
370
   -1
100
AcDbLine
 10
4.100000000000001
 20
1.15
 11
4.100000000000001
 21
2.5
  0
LINE
  5
122
100
AcDbEntity
  8
0
  6
ByLayer
 62
  256
370
   -1
100
AcDbLine
 10
6
 20
2
 11
5
 21
2
  0
LINE
  5
123
100
AcDbEntity
  8
Diviciones
  6
ByLayer
 62
  256
370
   -1
100
AcDbLine
 10
3
 20
2.8
 11
6.000000000000001
 21
2.8
  0
LINE
  5
124
100
AcDbEntity
  8
Diviciones
  6
ByLayer
 62
  256
370
   -1
100
AcDbLine
 10
6.000000000000001
 20
2.5
 11
6.000000000000001
 21
2.8
  0
LINE
  5
125
100
AcDbEntity
  8
Diviciones
  6
ByLayer
 62
  256
370
   -1
100
AcDbLine
 10
8.000000000000002
 20
2.5
 11
8
 21
2.8
  0
LINE
  5
126
100
AcDbEntity
  8
0
  6
ByLayer
 62
  256
370
   -1
100
AcDbLine
 10
7
 20
2.75
 11
8
 21
2.75
  0
LINE
  5
127
100
AcDbEntity
  8
Diviciones
  6
ByLayer
 62
  256
370
   -1
100
AcDbLine
 10
8
 20
2.8
 11
8
 21
3
  0
LINE
  5
128
100
AcDbEntity
  8
Diviciones
  6
ByLayer
 62
  256
370
   -1
100
AcDbLine
 10
12
 20
10
 11
12
 21
3
  0
LINE
  5
129
100
AcDbEntity
  8
Diviciones
  6
ByLayer
 62
  256
370
   -1
100
AcDbLine
 10
3
 20
1
 11
8
 21
1
  0
LINE
  5
12A
100
AcDbEntity
  8
0
  6
ByLayer
 62
  256
370
   -1
100
AcDbLine
 10
8.85
 20
10
 11
8.850000000000001
 21
8
  0
LINE
  5
12B
100
AcDbEntity
  8
0
  6
ByLayer
 62
  256
370
   -1
100
AcDbLine
 10
11.85
 20
10
 11
11.85
 21
3
  0
LINE
  5
12C
100
AcDbEntity
  8
Diviciones
  6
ByLayer
 62
  256
370
   -1
100
AcDbLine
 10
12
 20
4
 11
8
 21
4
  0
LWPOLYLINE
  5
12D
100
AcDbEntity
  8
Muebles
  6
ByLayer
 62
  256
370
   -1
100
AcDbPolyline
 90
    4
 70
    1
 43
0
 10
11
 20
7
 10
10
 20
7
 10
10
 20
5
 10
11
 20
5
  0
LWPOLYLINE
  5
12E
100
AcDbEntity
  8
Muebles
  6
ByLayer
 62
  256
370
   -1
100
AcDbPolyline
 90
    4
 70
    1
 43
0
 10
5.8
 20
2
 10
5.300000000000001
 20
2
 10
5.300000000000001
 20
2.4
 10
5.8
 20
2.4
  0
LINE
  5
12F
100
AcDbEntity
  8
Diviciones
  6
ByLayer
 62
  256
370
   -1
100
AcDbLine
 10
8
 20
1
 11
12
 21
1
  0
LINE
  5
130
100
AcDbEntity
  8
Diviciones
  6
ByLayer
 62
  256
370
   -1
100
AcDbLine
 10
12
 20
1
 11
12
 21
3
  0
LINE
  5
131
100
AcDbEntity
  8
0
  6
ByLayer
 62
  256
370
   -1
100
AcDbLine
 10
5
 20
2
 11
5
 21
2.8
  0
LINE
  5
132
100
AcDbEntity
  8
Traves
  6
ByLayer
 62
  256
370
   -1
100
AcDbLine
 10
11.85
 20
10
 11
11.85
 21
1
  0
LINE
  5
133
100
AcDbEntity
  8
Traves
  6
ByLayer
 62
  256
370
   -1
100
AcDbLine
 10
-3.122502256758253e-17
 20
9.850000000000001
 11
15
 21
9.850000000000001
  0
LINE
  5
134
100
AcDbEntity
  8
Traves
  6
ByLayer
 62
  256
370
   -1
100
AcDbLine
 10
14.85
 20
1.734723475976807e-18
 11
14.85
 21
10
  0
LINE
  5
135
100
AcDbEntity
  8
Traves
  6
ByLayer
 62
  256
370
   -1
100
AcDbLine
 10
12
 20
1.15
 11
3
 21
1.15
  0
LINE
  5
136
100
AcDbEntity
  8
Traves
  6
ByLayer
 62
  256
370
   -1
100
AcDbLine
 10
2
 20
7.15
 11
8
 21
7.15
  0
LINE
  5
137
100
AcDbEntity
  8
Traves
  6
ByLayer
 62
  256
370
   -1
100
AcDbLine
 10
2.15
 20
7.000000000000001
 11
2.15
 21
4
  0
LINE
  5
138
100
AcDbEntity
  8
Traves
  6
ByLayer
 62
  256
370
   -1
100
AcDbLine
 10
3.15
 20
2.8
 11
3.15
 21
1
  0
LINE
  5
139
100
AcDbEntity
  8
Traves
  6
ByLayer
 62
  256
370
   -1
100
AcDbLine
 10
2
 20
4.15
 11
6
 21
4.15
  0
LINE
  5
13A
100
AcDbEntity
  8
Traves
  6
ByLayer
 62
  256
370
   -1
100
AcDbLine
 10
12
 20
10
 11
12
 21
1
  0
LINE
  5
13B
100
AcDbEntity
  8
Traves
  6
ByLayer
 62
  256
370
   -1
100
AcDbLine
 10
12
 20
1
 11
3
 21
1
  0
LINE
  5
13C
100
AcDbEntity
  8
Traves
  6
ByLayer
 62
  256
370
   -1
100
AcDbLine
 10
2
 20
4
 11
2
 21
10
  0
LINE
  5
13D
100
AcDbEntity
  8
Traves
  6
ByLayer
 62
  256
370
   -1
100
AcDbLine
 10
2
 20
10
 11
12
 21
10
  0
LINE
  5
13E
100
AcDbEntity
  8
Traves
  6
ByLayer
 62
  256
370
   -1
100
AcDbLine
 10
12
 20
10
 11
15
 21
10
  0
LINE
  5
13F
100
AcDbEntity
  8
Traves
  6
ByLayer
 62
  256
370
   -1
100
AcDbLine
 10
15
 20
10
 11
15
 21
0
  0
LINE
  5
140
100
AcDbEntity
  8
Traves
  6
ByLayer
 62
  256
370
   -1
100
AcDbLine
 10
3
 20
1
 11
3
 21
4
  0
LINE
  5
141
100
AcDbEntity
  8
Traves
  6
ByLayer
 62
  256
370
   -1
100
AcDbLine
 10
8
 20
1
 11
8
 21
4
  0
LINE
  5
142
100
AcDbEntity
  8
Traves
  6
ByLayer
 62
  256
370
   -1
100
AcDbLine
 10
8
 20
4
 11
8
 21
7
  0
LINE
  5
143
100
AcDbEntity
  8
Traves
  6
ByLayer
 62
  256
370
   -1
100
AcDbLine
 10
8
 20
7
 11
8
 21
10
  0
LINE
  5
144
100
AcDbEntity
  8
Traves
  6
ByLayer
 62
  256
370
   -1
100
AcDbLine
 10
8.15
 20
10
 11
8.15
 21
1
  0
LINE
  5
145
100
AcDbEntity
  8
Traves
  6
ByLayer
 62
  256
370
   -1
100
AcDbLine
 10
12
 20
4
 11
8
 21
4
  0
LINE
  5
146
100
AcDbEntity
  8
Traves
  6
ByLayer
 62
  256
370
   -1
100
AcDbLine
 10
8
 20
4
 11
2
 21
4
  0
LINE
  5
147
100
AcDbEntity
  8
Traves
  6
ByLayer
 62
  256
370
   -1
100
AcDbLine
 10
2
 20
7
 11
8
 21
7
  0
LINE
  5
148
100
AcDbEntity
  8
Traves
  6
ByLayer
 62
  256
370
   -1
100
AcDbLine
 10
8
 20
7
 11
12
 21
7
  0
LINE
  5
149
100
AcDbEntity
  8
Traves
  6
ByLayer
 62
  256
370
   -1
100
AcDbLine
 10
8
 20
7.15
 11
12
 21
7.15
  0
LINE
  5
14A
100
AcDbEntity
  8
Traves
  6
ByLayer
 62
  256
370
   -1
100
AcDbLine
 10
12
 20
4.15
 11
6
 21
4.15
  0
LINE
  5
14B
100
AcDbEntity
  8
Traves
  6
ByLayer
 62
  256
370
   -1
100
AcDbLine
 10
6
 20
1
 11
6
 21
4.15
  0
LINE
  5
14C
100
AcDbEntity
  8
Traves
  6
ByLayer
 62
  256
370
   -1
100
AcDbLine
 10
6
 20
4.15
 11
6
 21
7
  0
LINE
  5
14D
100
AcDbEntity
  8
Traves
  6
ByLayer
 62
  256
370
   -1
100
AcDbLine
 10
6
 20
7
 11
6
 21
10
  0
LINE
  5
14E
100
AcDbEntity
  8
Traves
  6
ByLayer
 62
  256
370
   -1
100
AcDbLine
 10
5.850000000000001
 20
10
 11
5.850000000000001
 21
1
  0
LINE
  5
14F
100
AcDbEntity
  8
Traves
  6
ByLayer
 62
  256
370
   -1
100
AcDbLine
 10
2.15
 20
7.000000000000001
 11
2.15
 21
10
  0
LINE
  5
150
100
AcDbEntity
  8
Traves
  6
ByLayer
 62
  256
370
   -1
100
AcDbLine
 10
3
 20
2.8
 11
6
 21
2.8
  0
LINE
  5
151
100
AcDbEntity
  8
Traves
  6
ByLayer
 62
  256
370
   -1
100
AcDbLine
 10
3
 20
2.65
 11
6
 21
2.65
  0
DIMENSION
  5
152
100
AcDbEntity
  8
Cotas
  6
ByLayer
 62
  256
370
   -1
100
AcDbDimension
  2
*D3
 10
8
 20
10.7
 30
0
 11
5
 21
11.075
 31
0
 70
   32
 71
    5
 72
    0
  3
Standard
 53
0
210
0
220
0
230
1
100
AcDbAlignedDimension
 13
2
 23
10
 33
0
 14
8
 24
10
 34
0
100
AcDbRotatedDimension
  0
DIMENSION
  5
153
100
AcDbEntity
  8
Cotas
  6
ByLayer
 62
  256
370
   -1
100
AcDbDimension
  2
*D4
 10
15
 20
10.7
 30
0
 11
11.5
 21
11.075
 31
0
 70
   32
 71
    5
 72
    0
  3
Standard
 53
0
210
0
220
0
230
1
100
AcDbAlignedDimension
 13
8
 23
10
 33
0
 14
15
 24
10
 34
0
100
AcDbRotatedDimension
  0
DIMENSION
  5
154
100
AcDbEntity
  8
Cotas
  6
ByLayer
 62
  256
370
   -1
100
AcDbDimension
  2
*D5
 10
12
 20
10.3
 30
0
 11
10
 21
10.675
 31
0
 70
   32
 71
    5
 72
    0
  3
Standard
 53
0
210
0
220
0
230
1
100
AcDbAlignedDimension
 13
8
 23
10
 33
0
 14
12
 24
10
 34
0
100
AcDbRotatedDimension
  0
DIMENSION
  5
155
100
AcDbEntity
  8
Cotas
  6
ByLayer
 62
  256
370
   -1
100
AcDbDimension
  2
*D6
 10
15
 20
10.3
 30
0
 11
13.5
 21
10.675
 31
0
 70
   32
 71
    5
 72
    0
  3
Standard
 53
0
210
0
220
0
230
1
100
AcDbAlignedDimension
 13
12
 23
10
 33
0
 14
15
 24
10
 34
0
100
AcDbRotatedDimension
  0
DIMENSION
  5
156
100
AcDbEntity
  8
Cotas
  6
ByLayer
 62
  256
370
   -1
100
AcDbDimension
  2
*D7
 10
8
 20
10.3
 30
0
 11
7
 21
10.675
 31
0
 70
   32
 71
    5
 72
    0
  3
Standard
 53
0
210
0
220
0
230
1
100
AcDbAlignedDimension
 13
6
 23
10
 33
0
 14
8
 24
10
 34
0
100
AcDbRotatedDimension
  0
DIMENSION
  5
157
100
AcDbEntity
  8
Cotas
  6
ByLayer
 62
  256
370
   -1
100
AcDbDimension
  2
*D8
 10
6
 20
10.3
 30
0
 11
4
 21
10.675
 31
0
 70
   32
 71
    5
 72
    0
  3
Standard
 53
0
210
0
220
0
230
1
100
AcDbAlignedDimension
 13
2
 23
10
 33
0
 14
6
 24
10
 34
0
100
AcDbRotatedDimension
  0
DIMENSION
  5
158
100
AcDbEntity
  8
Cotas
  6
ByLayer
 62
  256
370
   -1
100
AcDbDimension
  2
*D9
 10
2
 20
10.3
 30
0
 11
1
 21
10.675
 31
0
 70
   32
 71
    5
 72
    0
  3
Standard
 53
0
210
0
220
0
230
1
100
AcDbAlignedDimension
 13
0
 23
10
 33
0
 14
2
 24
10
 34
0
100
AcDbRotatedDimension
  0
DIMENSION
  5
159
100
AcDbEntity
  8
Cotas
  6
ByLayer
 62
  256
370
   -1
100
AcDbDimension
  2
*D10
 10
-0.4000000000000002
 20
7
 30
0
 11
-0.7750000000000001
 21
8.5
 31
0
 70
   32
 71
    5
 72
    0
  3
Standard
 53
0
210
0
220
0
230
1
100
AcDbAlignedDimension
 13
0
 23
10
 33
0
 14
0
 24
7
 34
0
 50
90
100
AcDbRotatedDimension
  0
DIMENSION
  5
15A
100
AcDbEntity
  8
Cotas
  6
ByLayer
 62
  256
370
   -1
100
AcDbDimension
  2
*D11
 10
-0.3999999999999997
 20
4
 30
0
 11
-0.7749999999999997
 21
5.5
 31
0
 70
   32
 71
    5
 72
    0
  3
Standard
 53
0
210
0
220
0
230
1
100
AcDbAlignedDimension
 13
0
 23
7
 33
0
 14
0
 24
4
 34
0
 50
90
100
AcDbRotatedDimension
  0
DIMENSION
  5
15B
100
AcDbEntity
  8
Cotas
  6
ByLayer
 62
  256
370
   -1
100
AcDbDimension
  2
*D12
 10
-0.4000000000000001
 20
2.8
 30
0
 11
-0.7750000000000001
 21
3.4
 31
0
 70
   32
 71
    5
 72
    0
  3
Standard
 53
0
210
0
220
0
230
1
100
AcDbAlignedDimension
 13
-1.110223024625157e-16
 23
4
 33
0
 14
-1.110223024625157e-16
 24
2.8
 34
0
 50
90
100
AcDbRotatedDimension
  0
DIMENSION
  5
15C
100
AcDbEntity
  8
Cotas
  6
ByLayer
 62
  256
370
   -1
100
AcDbDimension
  2
*D13
 10
-0.4000000000000001
 20
1
 30
0
 11
-0.7750000000000001
 21
1.9
 31
0
 70
   32
 71
    5
 72
    0
  3
Standard
 53
0
210
0
220
0
230
1
100
AcDbAlignedDimension
 13
-1.110223024625157e-16
 23
2.8
 33
0
 14
-1.110223024625157e-16
 24
1
 34
0
 50
90
100
AcDbRotatedDimension
  0
LINE
  5
15D
100
AcDbEntity
  8
No-OtraDivision
  6
ByLayer
 62
  256
370
   -1
100
AcDbLine
 10
8
 20
10
 11
8
 21
7
  0
LINE
  5
15E
100
AcDbEntity
  8
No-OtraDivision
  6
ByLayer
 62
  256
370
   -1
100
AcDbLine
 10
12
 20
10
 11
12
 21
7
  0
LINE
  5
15F
100
AcDbEntity
  8
Traves
  6
ByLayer
 62
  256
370
   -1
100
AcDbLine
 10
3.15
 20
2.8
 11
3.15
 21
4
  0
LINE
  5
160
100
AcDbEntity
  8
No-OtraDivision
  6
ByLayer
 62
  256
370
   -1
100
AcDbLine
 10
2
 20
2
 11
12
 21
2
  0
LINE
  5
161
100
AcDbEntity
  8
No-OtraDivision
  6
ByLayer
 62
  256
370
   -1
100
AcDbLine
 10
12
 20
2
 11
12
 21
7
  0
LINE
  5
162
100
AcDbEntity
  8
No-OtraDivision
  6
ByLayer
 62
  256
370
   -1
100
AcDbLine
 10
8
 20
3
 11
6
 21
3
  0
LINE
  5
163
100
AcDbEntity
  8
No-OtraDivision
  6
ByLayer
 62
  256
370
   -1
100
AcDbLine
 10
8
 20
4
 11
6
 21
4
  0
LINE
  5
164
100
AcDbEntity
  8
No-OtraDivision
  6
ByLayer
 62
  256
370
   -1
100
AcDbLine
 10
7
 20
7.200000000000001
 11
6.9
 21
7.200000000000001
  0
LINE
  5
165
100
AcDbEntity
  8
No-OtraDivision
  6
ByLayer
 62
  256
370
   -1
100
AcDbLine
 10
7
 20
7.400000000000001
 11
6.9
 21
7.400000000000001
  0
LINE
  5
166
100
AcDbEntity
  8
No-OtraDivision
  6
ByLayer
 62
  256
370
   -1
100
AcDbLine
 10
7
 20
7.600000000000001
 11
6.9
 21
7.600000000000001
  0
LINE
  5
167
100
AcDbEntity
  8
No-OtraDivision
  6
ByLayer
 62
  256
370
   -1
100
AcDbLine
 10
7
 20
7.800000000000001
 11
6.9
 21
7.800000000000001
  0
LINE
  5
168
100
AcDbEntity
  8
No-OtraDivision
  6
ByLayer
 62
  256
370
   -1
100
AcDbLine
 10
7
 20
8
 11
6.9
 21
8
  0
LINE
  5
169
100
AcDbEntity
  8
No-OtraDivision
  6
ByLayer
 62
  256
370
   -1
100
AcDbLine
 10
7.000000000000001
 20
8.200000000000001
 11
6.900000000000001
 21
8.200000000000001
  0
LINE
  5
16A
100
AcDbEntity
  8
No-OtraDivision
  6
ByLayer
 62
  256
370
   -1
100
AcDbLine
 10
7.000000000000001
 20
8.4
 11
6.900000000000001
 21
8.4
  0
LINE
  5
16B
100
AcDbEntity
  8
No-OtraDivision
  6
ByLayer
 62
  256
370
   -1
100
AcDbLine
 10
7.000000000000001
 20
8.600000000000001
 11
6.900000000000001
 21
8.600000000000001
  0
LINE
  5
16C
100
AcDbEntity
  8
No-OtraDivision
  6
ByLayer
 62
  256
370
   -1
100
AcDbLine
 10
7.000000000000001
 20
8.800000000000001
 11
6.900000000000001
 21
8.800000000000001
  0
LINE
  5
16D
100
AcDbEntity
  8
No-OtraDivision
  6
ByLayer
 62
  256
370
   -1
100
AcDbLine
 10
7.000000000000001
 20
9
 11
6.900000000000001
 21
9
  0
LINE
  5
16E
100
AcDbEntity
  8
No-OtraDivision
  6
ByLayer
 62
  256
370
   -1
100
AcDbLine
 10
2
 20
9.85
 11
6.000000000000001
 21
9.85
  0
LINE
  5
16F
100
AcDbEntity
  8
No-OtraDivision
  6
ByLayer
 62
  256
370
   -1
100
AcDbLine
 10
6.000000000000001
 20
9.85
 11
8
 21
9.850000000000001
  0
LINE
  5
170
100
AcDbEntity
  8
No-OtraDivision
  6
ByLayer
 62
  256
370
   -1
100
AcDbLine
 10
8
 20
9.850000000000001
 11
12
 21
9.850000000000001
  0
LINE
  5
171
100
AcDbEntity
  8
No-OtraDivision
  6
ByLayer
 62
  256
370
   -1
100
AcDbLine
 10
12
 20
9.850000000000001
 11
15
 21
9.85
  0
LINE
  5
172
100
AcDbEntity
  8
No-OtraDivision
  6
ByLayer
 62
  256
370
   -1
100
AcDbLine
 10
2
 20
6.800000000000001
 11
6.000000000000001
 21
6.800000000000001
  0
LINE
  5
173
100
AcDbEntity
  8
No-OtraDivision
  6
ByLayer
 62
  256
370
   -1
100
AcDbLine
 10
2
 20
6.65
 11
6
 21
6.65
  0
LINE
  5
174
100
AcDbEntity
  8
No-OtraDivision
  6
ByLayer
 62
  256
370
   -1
100
AcDbLine
 10
6.000000000000001
 20
10
 11
6.000000000000001
 21
6.65
  0
DIMENSION
  5
175
100
AcDbEntity
  8
Cotas
  6
ByLayer
 62
  256
370
   -1
100
AcDbDimension
  2
*D14
 10
1.8
 20
6.800000000000001
 30
0
 11
1.425
 21
8.324999999999999
 31
0
 70
   32
 71
    5
 72
    0
  3
Standard
 53
0
210
0
220
0
230
1
100
AcDbAlignedDimension
 13
2
 23
9.85
 33
0
 14
2
 24
6.800000000000001
 34
0
 50
90
100
AcDbRotatedDimension
  0
DIMENSION
  5
176
100
AcDbEntity
  8
Cotas
  6
ByLayer
 62
  256
370
   -1
100
AcDbDimension
  2
*D15
 10
1.8
 20
5.35
 30
0
 11
1.425
 21
6
 31
0
 70
   32
 71
    5
 72
    0
  3
Standard
 53
0
210
0
220
0
230
1
100
AcDbAlignedDimension
 13
2
 23
6.65
 33
0
 14
2
 24
5.35
 34
0
 50
90
100
AcDbRotatedDimension
  0
LINE
  5
177
100
AcDbEntity
  8
No-OtraDivision
  6
ByLayer
 62
  256
370
   -1
100
AcDbLine
 10
6
 20
5.35
 11
6
 21
2
  0
LINE
  5
178
100
AcDbEntity
  8
No-OtraDivision
  6
ByLayer
 62
  256
370
   -1
100
AcDbLine
 10
2
 20
5.35
 11
2
 21
2
  0
LINE
  5
179
100
AcDbEntity
  8
No-OtraDivision
  6
ByLayer
 62
  256
370
   -1
100
AcDbLine
 10
3.5
 20
5.35
 11
3.5
 21
6.800000000000001
  0
LINE
  5
17A
100
AcDbEntity
  8
No-OtraDivision
  6
ByLayer
 62
  256
370
   -1
100
AcDbLine
 10
2
 20
5.2
 11
6
 21
5.2
  0
DIMENSION
  5
17B
100
AcDbEntity
  8
Cotas
  6
ByLayer
 62
  256
370
   -1
100
AcDbDimension
  2
*D16
 10
1.8
 20
2.15
 30
0
 11
1.425
 21
3.675
 31
0
 70
   32
 71
    5
 72
    0
  3
Standard
 53
0
210
0
220
0
230
1
100
AcDbAlignedDimension
 13
2
 23
5.2
 33
0
 14
2
 24
2.15
 34
0
 50
90
100
AcDbRotatedDimension
  0
LINE
  5
17C
100
AcDbEntity
  8
No-OtraDivision
  6
ByLayer
 62
  256
370
   -1
100
AcDbLine
 10
2
 20
2.15
 11
12
 21
2.15
  0
LINE
  5
17D
100
AcDbEntity
  8
No-OtraDivision
  6
ByLayer
 62
  256
370
   -1
100
AcDbLine
 10
2
 20
5.35
 11
8
 21
5.35
  0
LINE
  5
17E
100
AcDbEntity
  8
No-OtraDivision
  6
ByLayer
 62
  256
370
   -1
100
AcDbLine
 10
8
 20
5.349999999999999
 11
8
 21
2
  0
DIMENSION
  5
17F
100
AcDbEntity
  8
Cotas
  6
ByLayer
 62
  256
370
   -1
100
AcDbDimension
  2
*D17
 10
14
 20
2.149999999999999
 30
0
 11
13.625
 21
6.000000000000001
 31
0
 70
   32
 71
    5
 72
    0
  3
Standard
 53
0
210
0
220
0
230
1
100
AcDbAlignedDimension
 13
12
 23
9.850000000000001
 33
0
 14
12
 24
2.15
 34
0
 50
90
100
AcDbRotatedDimension
  0
DIMENSION
  5
180
100
AcDbEntity
  8
Cotas
  6
ByLayer
 62
  256
370
   -1
100
AcDbDimension
  2
*D18
 10
13
 20
2.15
 30
0
 11
12.625
 21
5.65
 31
0
 70
   32
 71
    5
 72
    0
  3
Standard
 53
0
210
0
220
0
230
1
100
AcDbAlignedDimension
 13
12
 23
9.15
 33
0
 14
12
 24
2.15
 34
0
 50
90
100
AcDbRotatedDimension
  0
DIMENSION
  5
181
100
AcDbEntity
  8
Cotas
  6
ByLayer
 62
  256
370
   -1
100
AcDbDimension
  2
*D19
 10
12.8
 20
6.649999999999999
 30
0
 11
12.425
 21
7.9
 31
0
 70
   32
 71
    5
 72
    0
  3
Standard
 53
0
210
0
220
0
230
1
100
AcDbAlignedDimension
 13
12
 23
9.15
 33
0
 14
6.000000000000001
 24
6.65
 34
0
 50
90
100
AcDbRotatedDimension
  0
ENDSEC
  0
SECTION
  2
OBJECTS
  0
DICTIONARY
  5
C
330
0
100
AcDbDictionary
281
    1
  3
ACAD_GROUP
350
D
  0
DICTIONARY
  5
D
330
C
100
AcDbDictionary
281
    1
  0
ENDSEC
  0
EOF
