999
dxfrw 0.6.3
  0
SECTION
  2
HEADER
  9
$ACADVER
  1
AC1021
  9
$DWGCODEPAGE
  3
ANSI_1251
  9
$INSBASE
 10
0
 20
0
 30
0
  9
$EXTMIN
 10
-1913.742844574866
 20
-1320.281787031337
 30
0
  9
$EXTMAX
 10
1882.22228380221
 20
1327.100203887629
 30
0
  9
$LIMMIN
 10
0
 20
0
  9
$LIMMAX
 10
420
 20
297
  9
$ORTHOMODE
 70
    0
  9
$REGENMODE
 70
    1
  9
$FILLMODE
 70
    1
  9
$QTEXTMODE
 70
    0
  9
$MIRRTEXT
 70
    0
  9
$LTSCALE
 40
1
  9
$ATTMODE
 70
    1
  9
$TEXTSIZE
 40
2.5
  9
$TRACEWID
 40
1
  9
$TEXTSTYLE
  7
Standard
  9
$CLAYER
  8
SillonesSala
  9
$CELTYPE
  6
ByLayer
  9
$CECOLOR
 62
    1
  9
$CELTSCALE
 40
1
  9
$DISPSILH
 70
    0
  9
$DIMSCALE
 40
1
  9
$DIMASZ
 40
2.5
  9
$DIMEXO
 40
0.625
  9
$DIMDLI
 40
3.75
  9
$DIMRND
 40
0
  9
$DIMDLE
 40
0
  9
$DIMEXE
 40
1.25
  9
$DIMTP
 40
0
  9
$DIMTM
 40
0
  9
$DIMTXT
 40
2.5
  9
$DIMCEN
 40
2.5
  9
$DIMTSZ
 40
0
  9
$DIMTOL
 70
    0
  9
$DIMLIM
 70
    0
  9
$DIMTIH
 70
    0
  9
$DIMTOH
 70
    0
  9
$DIMSE1
 70
    0
  9
$DIMSE2
 70
    0
  9
$DIMTAD
 70
    1
  9
$DIMZIN
 70
    8
  9
$DIMBLK
  1

  9
$DIMASO
 70
    1
  9
$DIMSHO
 70
    1
  9
$DIMPOST
  1

  9
$DIMAPOST
  1

  9
$DIMALT
 70
    0
  9
$DIMALTD
 70
    3
  9
$DIMALTF
 40
0.03937007874016
  9
$DIMLFAC
 40
1
  9
$DIMTOFL
 70
    1
  9
$DIMTVP
 40
0
  9
$DIMTIX
 70
    0
  9
$DIMSOXD
 70
    0
  9
$DIMSAH
 70
    0
  9
$DIMBLK1
  1

  9
$DIMBLK2
  1

  9
$DIMSTYLE
  2
dwgmodels.com
  9
$DIMCLRD
 70
    0
  9
$DIMCLRE
 70
    0
  9
$DIMCLRT
 70
    0
  9
$DIMTFAC
 40
1
  9
$DIMGAP
 40
0.625
  9
$DIMJUST
 70
    0
  9
$DIMSD1
 70
    0
  9
$DIMSD2
 70
    0
  9
$DIMTOLJ
 70
    0
  9
$DIMTZIN
 70
    8
  9
$DIMALTZ
 70
    0
  9
$DIMALTTZ
 70
    0
  9
$DIMUPT
 70
    0
  9
$DIMDEC
 70
    2
  9
$DIMTDEC
 70
    2
  9
$DIMALTU
 70
    2
  9
$DIMALTTD
 70
    3
  9
$DIMTXSTY
  7
Standard
  9
$DIMAUNIT
 70
    0
  9
$DIMADEC
 70
    0
  9
$DIMALTRND
 40
0
  9
$DIMAZIN
 70
    0
  9
$DIMDSEP
 70
   44
  9
$DIMATFIT
 70
    3
  9
$DIMFRAC
 70
    0
  9
$DIMLDRBLK
  1

  9
$DIMLUNIT
 70
    2
  9
$DIMLWD
 70
   -2
  9
$DIMLWE
 70
   -2
  9
$DIMTMOVE
 70
    0
  9
$DIMFXL
 40
1
  9
$DIMFXLON
 70
    0
  9
$DIMJOGANG
 40
0.7854
  9
$DIMTFILL
 70
    0
  9
$DIMTFILLCLR
 70
    0
  9
$DIMARCSYM
 70
    0
  9
$DIMLTYPE
  6

  9
$DIMLTEX1
  6

  9
$DIMLTEX2
  6

  9
$LUNITS
 70
    2
  9
$LUPREC
 70
    4
  9
$SKETCHINC
 40
1
  9
$FILLETRAD
 40
0
  9
$AUNITS
 70
    0
  9
$AUPREC
 70
    0
  9
$MENU
  1
.
  9
$ELEVATION
 40
0
  9
$PELEVATION
 40
0
  9
$THICKNESS
 40
0
  9
$LIMCHECK
 70
    0
  9
$CHAMFERA
 40
0
  9
$CHAMFERB
 40
0
  9
$CHAMFERC
 40
0
  9
$CHAMFERD
 40
0
  9
$SKPOLY
 70
    0
  9
$USRTIMER
 70
    1
  9
$ANGBASE
 50
0
  9
$ANGDIR
 70
    0
  9
$PDMODE
 70
    0
  9
$PDSIZE
 40
0
  9
$PLINEWID
 40
0
  9
$SPLFRAME
 70
    0
  9
$SPLINETYPE
 70
    6
  9
$SPLINESEGS
 70
    8
  9
$HANDSEED
  5
20000
  9
$SURFTAB1
 70
    6
  9
$SURFTAB2
 70
    6
  9
$SURFTYPE
 70
    6
  9
$SURFU
 70
    6
  9
$SURFV
 70
    6
  9
$UCSBASE
  2

  9
$UCSNAME
  2

  9
$UCSORG
 10
0
 20
0
 30
0
  9
$UCSXDIR
 10
1
 20
0
 30
0
  9
$UCSYDIR
 10
0
 20
1
 30
0
  9
$UCSORTHOREF
  2

  9
$UCSORTHOVIEW
 70
    0
  9
$UCSORGTOP
 10
0
 20
0
 30
0
  9
$UCSORGBOTTOM
 10
0
 20
0
 30
0
  9
$UCSORGLEFT
 10
0
 20
0
 30
0
  9
$UCSORGRIGHT
 10
0
 20
0
 30
0
  9
$UCSORGFRONT
 10
0
 20
0
 30
0
  9
$UCSORGBACK
 10
0
 20
0
 30
0
  9
$PUCSBASE
  2

  9
$PUCSNAME
  2

  9
$PUCSORG
 10
0
 20
0
 30
0
  9
$PUCSXDIR
 10
1
 20
0
 30
0
  9
$PUCSYDIR
 10
0
 20
1
 30
0
  9
$PUCSORTHOREF
  2

  9
$PUCSORTHOVIEW
 70
    0
  9
$PUCSORGTOP
 10
0
 20
0
 30
0
  9
$PUCSORGBOTTOM
 10
0
 20
0
 30
0
  9
$PUCSORGLEFT
 10
0
 20
0
 30
0
  9
$PUCSORGRIGHT
 10
0
 20
0
 30
0
  9
$PUCSORGFRONT
 10
0
 20
0
 30
0
  9
$PUCSORGBACK
 10
0
 20
0
 30
0
  9
$USERI1
 70
    0
  9
$USERI2
 70
    0
  9
$USERI3
 70
    0
  9
$USERI4
 70
    0
  9
$USERI5
 70
    0
  9
$USERR1
 40
0
  9
$USERR2
 40
0
  9
$USERR3
 40
0
  9
$USERR4
 40
0
  9
$USERR5
 40
0
  9
$WORLDVIEW
 70
    1
  9
$SHADEDGE
 70
    3
  9
$SHADEDIF
 70
   70
  9
$TILEMODE
 70
    1
  9
$MAXACTVP
 70
   64
  9
$PINSBASE
 10
0
 20
0
 30
0
  9
$PLIMCHECK
 70
    0
  9
$PEXTMIN
 10
-0.2149150245589908
 20
4.815662141965703
 30
0
  9
$PEXTMAX
 10
256.7340192456226
 20
190.4619831654554
 30
0
  9
$GRIDMODE
 70
    1
  9
$SNAPSTYLE
 70
    0
  9
$PLIMMIN
 10
-20
 20
-7.5
  9
$PLIMMAX
 10
277
 20
202.5
  9
$UNITMODE
 70
    0
  9
$VISRETAIN
 70
    1
  9
$PLINEGEN
 70
    0
  9
$PSLTSCALE
 70
    1
  9
$TREEDEPTH
 70
 3020
  9
$CMLSTYLE
  2
Standard
  9
$CMLJUST
 70
    0
  9
$CMLSCALE
 40
20
  9
$PROXYGRAPHICS
 70
    1
  9
$MEASUREMENT
 70
    1
  9
$CELWEIGHT
370
   -1
  9
$ENDCAPS
280
    0
  9
$JOINSTYLE
280
    0
  9
$LWDISPLAY
290
    0
  9
$INSUNITS
 70
    4
  9
$HYPERLINKBASE
  1

  9
$STYLESHEET
  1

  9
$XEDIT
290
    1
  9
$CEPSNTYPE
380
    0
  9
$PSTYLEMODE
290
    1
  9
$EXTNAMES
290
    1
  9
$PSVPSCALE
 40
0
  9
$OLESTARTUP
290
    0
  9
$SORTENTS
280
  127
  9
$INDEXCTL
280
    0
  9
$HIDETEXT
280
    1
  9
$XCLIPFRAME
290
    0
  9
$HALOGAP
280
    0
  9
$OBSCOLOR
 70
  257
  9
$OBSLTYPE
280
    0
  9
$INTERSECTIONDISPLAY
280
    0
  9
$INTERSECTIONCOLOR
 70
  257
  9
$DIMASSOC
280
    2
  9
$PROJECTNAME
  1

  9
$CAMERADISPLAY
290
    0
  9
$LENSLENGTH
 40
50
  9
$CAMERAHEIGHT
 40
0
  9
$STEPSPERSEC
 40
2
  9
$STEPSIZE
 40
50
  9
$3DDWFPREC
 40
2
  9
$PSOLWIDTH
 40
5
  9
$PSOLHEIGHT
 40
80
  9
$LOFTANG1
 40
1.570796326794897
  9
$LOFTANG2
 40
1.570796326794897
  9
$LOFTMAG1
 40
0
  9
$LOFTMAG2
 40
0
  9
$LOFTPARAM
 70
    7
  9
$LOFTNORMALS
280
    1
  9
$LATITUDE
 40
1
  9
$LONGITUDE
 40
1
  9
$NORTHDIRECTION
 40
0
  9
$TIMEZONE
 70
-8000
  9
$LIGHTGLYPHDISPLAY
280
    1
  9
$TILEMODELIGHTSYNCH
280
    1
  9
$SOLIDHIST
280
    1
  9
$SHOWHIST
280
    1
  9
$DWFFRAME
280
    2
  9
$DGNFRAME
280
    0
  9
$REALWORLDSCALE
290
    1
  9
$INTERFERECOLOR
 62
    1
  9
$CSHADOW
280
    0
  9
$SHADOWPLANELOCATION
 40
0
  0
ENDSEC
  0
SECTION
  2
CLASSES
  0
ENDSEC
  0
SECTION
  2
TABLES
  0
TABLE
  2
VPORT
  5
8
330
0
100
AcDbSymbolTable
 70
    1
  0
VPORT
  5
31
330
2
100
AcDbSymbolTableRecord
100
AcDbViewportTableRecord
  2
*ACTIVE
 70
    0
 10
0
 20
0
 11
1
 21
1
 12
6004.402402952294
 22
2439.745015311516
 13
0
 23
0
 14
10
 24
10
 15
10
 25
10
 16
0
 26
0
 36
1
 17
0
 27
0
 37
0
 40
11132.24971058309
 41
1.893700787401575
 42
50
 43
0
 44
0
 50
0
 51
0
 71
    0
 72
  100
 73
    1
 74
    3
 75
    0
 76
    1
 77
    0
 78
    0
281
    0
 65
    1
110
0
120
0
130
0
111
1
121
0
131
0
112
0
122
1
132
0
 79
    0
146
0
348
10020
 60
    7
 61
    5
292
1
282
    1
141
0
142
0
 63
  250
421
3358443
  0
ENDTAB
  0
TABLE
  2
LTYPE
  5
5
330
0
100
AcDbSymbolTable
 70
    4
  0
LTYPE
  5
14
330
5
100
AcDbSymbolTableRecord
100
AcDbLinetypeTableRecord
  2
ByBlock
 70
    0
  3

 72
   65
 73
    0
 40
0
  0
LTYPE
  5
15
330
5
100
AcDbSymbolTableRecord
100
AcDbLinetypeTableRecord
  2
ByLayer
 70
    0
  3

 72
   65
 73
    0
 40
0
  0
LTYPE
  5
16
330
5
100
AcDbSymbolTableRecord
100
AcDbLinetypeTableRecord
  2
Continuous
 70
    0
  3
Solid line
 72
   65
 73
    0
 40
0
  0
LTYPE
  5
32
330
5
100
AcDbSymbolTableRecord
100
AcDbLinetypeTableRecord
  2
DOT
 70
    0
  3
Dot . . . . . . . . . . . . . . . . . . . . . .
 72
   65
 73
    2
 40
6.35
 49
0
 74
    0
 49
-6.35
 74
    0
  0
LTYPE
  5
33
330
5
100
AcDbSymbolTableRecord
100
AcDbLinetypeTableRecord
  2
DOTTINY
 70
    0
  3
Dot (.15x) .....................................
 72
   65
 73
    2
 40
0.9525
 49
0
 74
    0
 49
-0.9525
 74
    0
  0
LTYPE
  5
34
330
5
100
AcDbSymbolTableRecord
100
AcDbLinetypeTableRecord
  2
DOT2
 70
    0
  3
Dot (.5x) .....................................
 72
   65
 73
    2
 40
3.175
 49
0
 74
    0
 49
-3.175
 74
    0
  0
LTYPE
  5
35
330
5
100
AcDbSymbolTableRecord
100
AcDbLinetypeTableRecord
  2
DOTX2
 70
    0
  3
Dot (2x) .  .  .  .  .  .  .  .  .  .  .  .  .
 72
   65
 73
    2
 40
12.7
 49
0
 74
    0
 49
-12.7
 74
    0
  0
LTYPE
  5
36
330
5
100
AcDbSymbolTableRecord
100
AcDbLinetypeTableRecord
  2
DASHED
 70
    0
  3
Dashed _ _ _ _ _ _ _ _ _ _ _ _ _ _ _ _ _
 72
   65
 73
    2
 40
19.05
 49
12.7
 74
    0
 49
-6.35
 74
    0
  0
LTYPE
  5
37
330
5
100
AcDbSymbolTableRecord
100
AcDbLinetypeTableRecord
  2
DASHEDTINY
 70
    0
  3
Dashed (.15x) _ _ _ _ _ _ _ _ _ _ _ _ _ _ _ _ _
 72
   65
 73
    2
 40
2.8575
 49
1.905
 74
    0
 49
-0.9525
 74
    0
  0
LTYPE
  5
38
330
5
100
AcDbSymbolTableRecord
100
AcDbLinetypeTableRecord
  2
DASHED2
 70
    0
  3
Dashed (.5x) _ _ _ _ _ _ _ _ _ _ _ _ _ _ _ _ _
 72
   65
 73
    2
 40
9.524999999999999
 49
6.35
 74
    0
 49
-3.175
 74
    0
  0
LTYPE
  5
39
330
5
100
AcDbSymbolTableRecord
100
AcDbLinetypeTableRecord
  2
DASHEDX2
 70
    0
  3
Dashed (2x) ____  ____  ____  ____  ____  ___
 72
   65
 73
    2
 40
38.09999999999999
 49
25.4
 74
    0
 49
-12.7
 74
    0
  0
LTYPE
  5
3A
330
5
100
AcDbSymbolTableRecord
100
AcDbLinetypeTableRecord
  2
DASHDOT
 70
    0
  3
Dash dot __ . __ . __ . __ . __ . __ . __ . __
 72
   65
 73
    4
 40
25.4
 49
12.7
 74
    0
 49
-6.35
 74
    0
 49
0
 74
    0
 49
-6.35
 74
    0
  0
LTYPE
  5
3B
330
5
100
AcDbSymbolTableRecord
100
AcDbLinetypeTableRecord
  2
DASHDOTTINY
 70
    0
  3
Dash dot (.15x) _._._._._._._._._._._._._._._.
 72
   65
 73
    4
 40
3.81
 49
1.905
 74
    0
 49
-0.9525
 74
    0
 49
0
 74
    0
 49
-0.9525
 74
    0
  0
LTYPE
  5
3C
330
5
100
AcDbSymbolTableRecord
100
AcDbLinetypeTableRecord
  2
DASHDOT2
 70
    0
  3
Dash dot (.5x) _._._._._._._._._._._._._._._.
 72
   65
 73
    4
 40
12.7
 49
6.35
 74
    0
 49
-3.175
 74
    0
 49
0
 74
    0
 49
-3.175
 74
    0
  0
LTYPE
  5
3D
330
5
100
AcDbSymbolTableRecord
100
AcDbLinetypeTableRecord
  2
DASHDOTX2
 70
    0
  3
Dash dot (2x) ____  .  ____  .  ____  .  ___
 72
   65
 73
    4
 40
50.8
 49
25.4
 74
    0
 49
-12.7
 74
    0
 49
0
 74
    0
 49
-12.7
 74
    0
  0
LTYPE
  5
3E
330
5
100
AcDbSymbolTableRecord
100
AcDbLinetypeTableRecord
  2
DIVIDE
 70
    0
  3
Divide ____ . . ____ . . ____ . . ____ . . ____
 72
   65
 73
    6
 40
31.75
 49
12.7
 74
    0
 49
-6.35
 74
    0
 49
0
 74
    0
 49
-6.35
 74
    0
 49
0
 74
    0
 49
-6.35
 74
    0
  0
LTYPE
  5
3F
330
5
100
AcDbSymbolTableRecord
100
AcDbLinetypeTableRecord
  2
DIVIDETINY
 70
    0
  3
Divide (.15x) __..__..__..__..__..__..__..__.._
 72
   65
 73
    6
 40
4.7625
 49
1.905
 74
    0
 49
-0.9525
 74
    0
 49
0
 74
    0
 49
-0.9525
 74
    0
 49
0
 74
    0
 49
-0.9525
 74
    0
  0
LTYPE
  5
40
330
5
100
AcDbSymbolTableRecord
100
AcDbLinetypeTableRecord
  2
DIVIDE2
 70
    0
  3
Divide (.5x) __..__..__..__..__..__..__..__.._
 72
   65
 73
    6
 40
15.875
 49
6.35
 74
    0
 49
-3.175
 74
    0
 49
0
 74
    0
 49
-3.175
 74
    0
 49
0
 74
    0
 49
-3.175
 74
    0
  0
LTYPE
  5
41
330
5
100
AcDbSymbolTableRecord
100
AcDbLinetypeTableRecord
  2
DIVIDEX2
 70
    0
  3
Divide (2x) ________  .  .  ________  .  .  _
 72
   65
 73
    6
 40
63.5
 49
25.4
 74
    0
 49
-12.7
 74
    0
 49
0
 74
    0
 49
-12.7
 74
    0
 49
0
 74
    0
 49
-12.7
 74
    0
  0
LTYPE
  5
42
330
5
100
AcDbSymbolTableRecord
100
AcDbLinetypeTableRecord
  2
BORDER
 70
    0
  3
Border __ __ . __ __ . __ __ . __ __ . __ __ .
 72
   65
 73
    6
 40
44.45
 49
12.7
 74
    0
 49
-6.35
 74
    0
 49
12.7
 74
    0
 49
-6.35
 74
    0
 49
0
 74
    0
 49
-6.35
 74
    0
  0
LTYPE
  5
43
330
5
100
AcDbSymbolTableRecord
100
AcDbLinetypeTableRecord
  2
BORDERTINY
 70
    0
  3
Border (.15x) __.__.__.__.__.__.__.__.__.__.__.
 72
   65
 73
    6
 40
6.6675
 49
1.905
 74
    0
 49
-0.9525
 74
    0
 49
1.905
 74
    0
 49
-0.9525
 74
    0
 49
0
 74
    0
 49
-0.9525
 74
    0
  0
LTYPE
  5
44
330
5
100
AcDbSymbolTableRecord
100
AcDbLinetypeTableRecord
  2
BORDER2
 70
    0
  3
Border (.5x) __.__.__.__.__.__.__.__.__.__.__.
 72
   65
 73
    6
 40
22.225
 49
6.35
 74
    0
 49
-3.175
 74
    0
 49
6.35
 74
    0
 49
-3.175
 74
    0
 49
0
 74
    0
 49
-3.175
 74
    0
  0
LTYPE
  5
45
330
5
100
AcDbSymbolTableRecord
100
AcDbLinetypeTableRecord
  2
BORDERX2
 70
    0
  3
Border (2x) ____  ____  .  ____  ____  .  ___
 72
   65
 73
    6
 40
88.89999999999999
 49
25.4
 74
    0
 49
-12.7
 74
    0
 49
25.4
 74
    0
 49
-12.7
 74
    0
 49
0
 74
    0
 49
-12.7
 74
    0
  0
LTYPE
  5
46
330
5
100
AcDbSymbolTableRecord
100
AcDbLinetypeTableRecord
  2
CENTER
 70
    0
  3
Center ____ _ ____ _ ____ _ ____ _ ____ _ ____
 72
   65
 73
    4
 40
50.8
 49
31.75
 74
    0
 49
-6.35
 74
    0
 49
6.35
 74
    0
 49
-6.35
 74
    0
  0
LTYPE
  5
47
330
5
100
AcDbSymbolTableRecord
100
AcDbLinetypeTableRecord
  2
CENTERTINY
 70
    0
  3
Center (.15x) ___ _ ___ _ ___ _ ___ _ ___ _ ___
 72
   65
 73
    4
 40
7.619999999999999
 49
4.7625
 74
    0
 49
-0.9525
 74
    0
 49
0.9525
 74
    0
 49
-0.9525
 74
    0
  0
LTYPE
  5
48
330
5
100
AcDbSymbolTableRecord
100
AcDbLinetypeTableRecord
  2
CENTER2
 70
    0
  3
Center (.5x) ___ _ ___ _ ___ _ ___ _ ___ _ ___
 72
   65
 73
    4
 40
28.575
 49
19.05
 74
    0
 49
-3.175
 74
    0
 49
3.175
 74
    0
 49
-3.175
 74
    0
  0
LTYPE
  5
49
330
5
100
AcDbSymbolTableRecord
100
AcDbLinetypeTableRecord
  2
CENTERX2
 70
    0
  3
Center (2x) ________  __  ________  __  _____
 72
   65
 73
    4
 40
101.6
 49
63.5
 74
    0
 49
-12.7
 74
    0
 49
12.7
 74
    0
 49
-12.7
 74
    0
  0
ENDTAB
  0
TABLE
  2
LAYER
  5
2
330
0
100
AcDbSymbolTable
 70
    1
  0
LAYER
  5
10
330
2
100
AcDbSymbolTableRecord
100
AcDbLayerTableRecord
  2
0
 70
    0
 62
    7
  6
CONTINUOUS
370
   -3
390
F
  0
LAYER
  5
4A
330
2
100
AcDbSymbolTableRecord
100
AcDbLayerTableRecord
  2
SillonesSala
 70
    0
 62
    7
  6
CONTINUOUS
370
   -3
390
F
  0
ENDTAB
  0
TABLE
  2
STYLE
  5
3
330
0
100
AcDbSymbolTable
 70
    3
  0
STYLE
  5
4B
330
2
100
AcDbSymbolTableRecord
100
AcDbTextStyleTableRecord
  2
Standard
 70
    0
 40
0
 41
1
 50
0
 71
    0
 42
1
  3
txt
  4

  0
ENDTAB
  0
TABLE
  2
VIEW
  5
6
330
0
100
AcDbSymbolTable
 70
    0
  0
ENDTAB
  0
TABLE
  2
UCS
  5
7
330
0
100
AcDbSymbolTable
 70
    0
  0
ENDTAB
  0
TABLE
  2
APPID
  5
9
330
0
100
AcDbSymbolTable
 70
    1
  0
APPID
  5
12
330
9
100
AcDbSymbolTableRecord
100
AcDbRegAppTableRecord
  2
ACAD
 70
    0
  0
APPID
  5
4C
330
9
100
AcDbSymbolTableRecord
100
AcDbRegAppTableRecord
  2
LibreCad
 70
    0
  0
ENDTAB
  0
TABLE
  2
DIMSTYLE
  5
A
330
0
100
AcDbSymbolTable
 70
    1
100
AcDbDimStyleTable
 71
    1
  0
DIMSTYLE
105
4D
330
A
100
AcDbSymbolTableRecord
100
AcDbDimStyleTableRecord
  2
Standard
 70
    0
 40
1
 41
2.5
 42
0.625
 43
0.38
 44
1.25
 45
0
 46
0
 47
0
 48
0
 49
1
140
2.5
141
0.09
142
0
143
25.4
144
1
145
0
146
1
147
0.625
148
0
 71
    0
 72
    0
 73
    0
 74
    1
 75
    0
 76
    0
 77
    0
 78
    8
 79
    0
170
    0
171
    2
172
    0
173
    0
174
    0
175
    0
176
    0
177
    0
178
    0
179
    0
271
    2
272
    4
273
    2
274
    2
275
    0
276
    0
277
    2
278
   44
279
    0
280
    0
281
    0
282
    0
283
    1
284
    0
285
    0
286
    0
288
    0
289
    3
340
Standard
341

371
   -2
372
   -2
  0
ENDTAB
  0
TABLE
  2
BLOCK_RECORD
  5
1
330
0
100
AcDbSymbolTable
 70
    2
  0
BLOCK_RECORD
  5
1F
330
1
100
AcDbSymbolTableRecord
100
AcDbBlockTableRecord
  2
*Model_Space
 70
    0
280
    1
281
    0
  0
BLOCK_RECORD
  5
1E
330
1
100
AcDbSymbolTableRecord
100
AcDbBlockTableRecord
  2
*Paper_Space
 70
    0
280
    1
281
    0
  0
BLOCK_RECORD
  5
4E
330
1
100
AcDbSymbolTableRecord
100
AcDbBlockTableRecord
  2
A$C707258B2
 70
    0
280
    1
281
    0
  0
BLOCK_RECORD
  5
51
330
1
100
AcDbSymbolTableRecord
100
AcDbBlockTableRecord
  2
A$C1352
 70
    0
280
    1
281
    0
  0
BLOCK_RECORD
  5
54
330
1
100
AcDbSymbolTableRecord
100
AcDbBlockTableRecord
  2
A$C21E3
 70
    0
280
    1
281
    0
  0
BLOCK_RECORD
  5
57
330
1
100
AcDbSymbolTableRecord
100
AcDbBlockTableRecord
  2
A$C3043
 70
    0
280
    1
281
    0
  0
BLOCK_RECORD
  5
5A
330
1
100
AcDbSymbolTableRecord
100
AcDbBlockTableRecord
  2
A$C14264F02
 70
    0
280
    1
281
    0
  0
BLOCK_RECORD
  5
5D
330
1
100
AcDbSymbolTableRecord
100
AcDbBlockTableRecord
  2
DAY BED1
 70
    0
280
    1
281
    0
  0
BLOCK_RECORD
  5
60
330
1
100
AcDbSymbolTableRecord
100
AcDbBlockTableRecord
  2
part 01
 70
    0
280
    1
281
    0
  0
BLOCK_RECORD
  5
63
330
1
100
AcDbSymbolTableRecord
100
AcDbBlockTableRecord
  2
part02
 70
    0
280
    1
281
    0
  0
BLOCK_RECORD
  5
66
330
1
100
AcDbSymbolTableRecord
100
AcDbBlockTableRecord
  2
sofa043
 70
    0
280
    1
281
    0
  0
BLOCK_RECORD
  5
69
330
1
100
AcDbSymbolTableRecord
100
AcDbBlockTableRecord
  2
table r 343
 70
    0
280
    1
281
    0
  0
BLOCK_RECORD
  5
6C
330
1
100
AcDbSymbolTableRecord
100
AcDbBlockTableRecord
  2
table 047
 70
    0
280
    1
281
    0
  0
ENDTAB
  0
ENDSEC
  0
SECTION
  2
BLOCKS
  0
BLOCK
  5
20
330
1F
100
AcDbEntity
  8
0
100
AcDbBlockBegin
  2
*Model_Space
 70
    0
 10
0
 20
0
 30
0
  3
*Model_Space
  1

  0
ENDBLK
  5
21
330
1F
100
AcDbEntity
  8
0
100
AcDbBlockEnd
  0
BLOCK
  5
1C
330
1B
100
AcDbEntity
  8
0
100
AcDbBlockBegin
  2
*Paper_Space
 70
    0
 10
0
 20
0
 30
0
  3
*Paper_Space
  1

  0
ENDBLK
  5
1D
330
1F
100
AcDbEntity
  8
0
100
AcDbBlockEnd
  0
BLOCK
  5
4F
330
4E
100
AcDbEntity
  8
0
100
AcDbBlockBegin
  2
A$C707258B2
 70
    0
 10
0
 20
0
  3
A$C707258B2
  1

  0
LINE
  5
6F
100
AcDbEntity
  8
0
  6
CONTINUOUS
 62
    0
370
   -1
100
AcDbLine
 10
0.4041504837087615
 20
0.3420207818523338
 11
1.073945333920818
 21
0.3420207818523018
  0
ARC
  5
70
100
AcDbEntity
  8
0
  6
CONTINUOUS
 62
    0
370
   -1
100
AcDbCircle
 10
0.3779004837087712
 20
0.317020781852321
 40
0.0362499999999946
100
AcDbArc
 50
316.3971810272894
 51
43.60281897270683
  0
ARC
  5
71
100
AcDbEntity
  8
0
  6
CONTINUOUS
 62
    0
370
   -1
100
AcDbCircle
 10
0.3679392600973657
 20
0.3170207818523281
 40
0.0662499999999946
100
AcDbArc
 50
337.8298428364633
 51
22.17015716354847
  0
ARC
  5
72
100
AcDbEntity
  8
0
  6
CONTINUOUS
 62
    0
370
   -1
100
AcDbCircle
 10
0.4041504837087544
 20
0.1920207818523281
 40
0.07000000000000001
100
AcDbArc
 50
90.00000000000036
 51
181.1753804797315
  0
LINE
  5
73
100
AcDbEntity
  8
0
  6
CONTINUOUS
 62
    0
370
   -1
100
AcDbLine
 10
0.4041504837087686
 20
0.2620207818523355
 11
0.4539453339209842
 21
0.2620207818523355
  0
ARC
  5
74
100
AcDbEntity
  8
0
  6
CONTINUOUS
 62
    0
370
   -1
100
AcDbCircle
 10
0.4041504837087544
 20
0.1920207818523281
 40
0.15
100
AcDbArc
 50
90.00000000000036
 51
181.1753804797315
  0
ARC
  5
75
100
AcDbEntity
  8
0
  6
CONTINUOUS
 62
    0
370
   -1
100
AcDbCircle
 10
0.4041504837087544
 20
0.1920207818523281
 40
0.1
100
AcDbArc
 50
90.00000000000036
 51
181.1753804797315
  0
LINE
  5
76
100
AcDbEntity
  8
0
  6
CONTINUOUS
 62
    0
370
   -1
100
AcDbLine
 10
0.4041504837087544
 20
0.2920207818523366
 11
0.45443194840405
 21
0.292020781852333
  0
ARC
  5
77
100
AcDbEntity
  8
0
  6
CONTINUOUS
 62
    0
370
   -1
100
AcDbCircle
 10
0.4539453339209771
 20
0.212020781852317
 40
0.05
100
AcDbArc
 50
359.9999999999976
 51
89.99999999999763
  0
ARC
  5
78
100
AcDbEntity
  8
0
  6
CONTINUOUS
 62
    0
370
   -1
100
AcDbCircle
 10
0.4547777767896761
 20
0.2563518300950705
 40
0.0356706282077415
100
AcDbArc
 50
345.4261628444152
 51
90.55549392731335
  0
ARC
  5
79
100
AcDbEntity
  8
0
  6
CONTINUOUS
 62
    0
370
   -1
100
AcDbCircle
 10
0.5873232318084547
 20
-0.2161549384392245
 40
0.025
100
AcDbArc
 50
299.9999999999873
 51
28.40824582341062
  0
ARC
  5
7A
100
AcDbEntity
  8
0
  6
CONTINUOUS
 62
    0
370
   -1
100
AcDbCircle
 10
1.378945333920818
 20
0.212020781852285
 40
0.875
100
AcDbArc
 50
179.9999999999976
 51
208.4082458234118
  0
ARC
  5
7B
100
AcDbEntity
  8
0
  6
CONTINUOUS
 62
    0
370
   -1
100
AcDbCircle
 10
1.378945333920818
 20
0.212020781852285
 40
1.045
100
AcDbArc
 50
181.175380479732
 51
268.8246195202628
  0
ARC
  5
7C
100
AcDbEntity
  8
0
  6
CONTINUOUS
 62
    0
370
   -1
100
AcDbCircle
 10
1.378945333920818
 20
0.212020781852285
 40
0.875
100
AcDbArc
 50
211.5917541765837
 51
238.4082458234122
  0
ARC
  5
7D
100
AcDbEntity
  8
0
  6
CONTINUOUS
 62
    0
370
   -1
100
AcDbCircle
 10
1.378945333920818
 20
0.212020781852285
 40
1.125
100
AcDbArc
 50
181.175380479732
 51
268.8246195202631
  0
LINE
  5
7E
100
AcDbEntity
  8
0
  6
CONTINUOUS
 62
    0
370
   -1
100
AcDbLine
 10
0.5998232318084646
 20
-0.2378055735338229
 11
0.469876442141981
 21
-0.3128303875280913
  0
ARC
  5
7F
100
AcDbEntity
  8
0
  6
CONTINUOUS
 62
    0
370
   -1
100
AcDbCircle
 10
0.6123232318084533
 20
-0.2594562086284462
 40
0.025
100
AcDbArc
 50
31.59175417658122
 51
119.9999999999832
  0
ARC
  5
80
100
AcDbEntity
  8
0
  6
CONTINUOUS
 62
    0
370
   -1
100
AcDbCircle
 10
1.378945333920818
 20
0.212020781852285
 40
1.075
100
AcDbArc
 50
181.1753804797321
 51
208.6356858493318
  0
ARC
  5
81
100
AcDbEntity
  8
0
  6
CONTINUOUS
 62
    0
370
   -1
100
AcDbCircle
 10
0.457376442141971
 20
-0.2911797524334858
 40
0.025
100
AcDbArc
 50
208.6356858493321
 51
300.0000000000013
  0
ARC
  5
82
100
AcDbEntity
  8
0
  6
CONTINUOUS
 62
    0
370
   -1
100
AcDbCircle
 10
1.378945333920818
 20
0.212020781852285
 40
1.075
100
AcDbArc
 50
211.3643141506643
 51
238.6356858493323
  0
ARC
  5
83
100
AcDbEntity
  8
0
  6
CONTINUOUS
 62
    0
370
   -1
100
AcDbCircle
 10
0.4823764421419767
 20
-0.3344810226227217
 40
0.025
100
AcDbArc
 50
120.0000000000073
 51
211.3643141506625
  0
LINE
  5
84
100
AcDbEntity
  8
0
  6
CONTINUOUS
 62
    0
370
   -1
100
AcDbLine
 10
0.929118978534639
 20
-0.5671013202600435
 11
0.8540941645403635
 21
-0.6970481099265164
  0
ARC
  5
85
100
AcDbEntity
  8
0
  6
CONTINUOUS
 62
    0
370
   -1
100
AcDbCircle
 10
0.8757447996349796
 20
-0.7095481099265228
 40
0.025
100
AcDbArc
 50
150.000000000005
 51
241.3643141506561
  0
ARC
  5
86
100
AcDbEntity
  8
0
  6
CONTINUOUS
 62
    0
370
   -1
100
AcDbCircle
 10
0.8324435294457615
 20
-0.6845481099265243
 40
0.025
100
AcDbArc
 50
238.6356858493354
 51
329.9999999999969
  0
ARC
  5
87
100
AcDbEntity
  8
0
  6
CONTINUOUS
 62
    0
370
   -1
100
AcDbCircle
 10
0.9507696136292481
 20
-0.5796013202600463
 40
0.025
100
AcDbArc
 50
61.59175417658142
 51
149.9999999999968
  0
ARC
  5
88
100
AcDbEntity
  8
0
  6
CONTINUOUS
 62
    0
370
   -1
100
AcDbCircle
 10
0.9074683434400299
 20
-0.5546013202600548
 40
0.025
100
AcDbArc
 50
329.9999999999969
 51
58.40824582341404
  0
ARC
  5
89
100
AcDbEntity
  8
0
  6
CONTINUOUS
 62
    0
370
   -1
100
AcDbCircle
 10
1.378945333920818
 20
0.212020781852285
 40
0.875
100
AcDbArc
 50
241.591754176584
 51
269.9999999999981
  0
ARC
  5
8A
100
AcDbEntity
  8
0
  6
CONTINUOUS
 62
    0
370
   -1
100
AcDbCircle
 10
1.378945333920818
 20
0.212020781852285
 40
1.075
100
AcDbArc
 50
241.3643141506639
 51
268.8246195202636
  0
ARC
  5
8B
100
AcDbEntity
  8
0
  6
CONTINUOUS
 62
    0
370
   -1
100
AcDbCircle
 10
1.073945333920811
 20
0.3120207818522971
 40
0.03
100
AcDbArc
 50
359.9999999999976
 51
89.99999999999763
  0
LINE
  5
8C
100
AcDbEntity
  8
0
  6
CONTINUOUS
 62
    0
370
   -1
100
AcDbLine
 10
1.103945333920812
 20
0.3120207818522971
 11
1.103945333920819
 21
0.2120207818522992
  0
ARC
  5
8D
100
AcDbEntity
  8
0
  6
CONTINUOUS
 62
    0
370
   -1
100
AcDbCircle
 10
1.378945333920818
 20
0.212020781852285
 40
0.275
100
AcDbArc
 50
179.9999999999986
 51
269.9999999999982
  0
LINE
  5
8E
100
AcDbEntity
  8
0
  6
CONTINUOUS
 62
    0
370
   -1
100
AcDbLine
 10
1.478945333920798
 20
-0.0629792181477065
 11
1.378945333920804
 21
-0.06297921814771
  0
ARC
  5
8F
100
AcDbEntity
  8
0
  6
CONTINUOUS
 62
    0
370
   -1
100
AcDbCircle
 10
1.478945333920798
 20
-0.0929792181477147
 40
0.03
100
AcDbArc
 50
359.9999999999976
 51
89.99999999999763
  0
LINE
  5
90
100
AcDbEntity
  8
0
  6
CONTINUOUS
 62
    0
370
   -1
100
AcDbLine
 10
1.508945333920778
 20
-0.762774068359775
 11
1.508945333920799
 21
-0.09297921814771121
  0
ARC
  5
91
100
AcDbEntity
  8
0
  6
CONTINUOUS
 62
    0
370
   -1
100
AcDbCircle
 10
1.483945333920779
 20
-0.7988292346649537
 40
0.0662499999999946
100
AcDbArc
 50
67.82984283644961
 51
112.1701571635376
  0
LINE
  5
92
100
AcDbEntity
  8
0
  6
CONTINUOUS
 62
    0
370
   -1
100
AcDbLine
 10
1.458945333920781
 20
-0.7627740683597679
 11
1.458945333920788
 21
-0.7124926036644865
  0
LINE
  5
93
100
AcDbEntity
  8
0
  6
CONTINUOUS
 62
    0
370
   -1
100
AcDbLine
 10
1.428945333920787
 20
-0.7627740683597715
 11
1.428945333920787
 21
-0.7129792181475452
  0
ARC
  5
94
100
AcDbEntity
  8
0
  6
CONTINUOUS
 62
    0
370
   -1
100
AcDbCircle
 10
1.358945333920779
 20
-0.7627740683597715
 40
0.07000000000000001
100
AcDbArc
 50
268.8246195202624
 51
359.9999999999976
  0
ARC
  5
95
100
AcDbEntity
  8
0
  6
CONTINUOUS
 62
    0
370
   -1
100
AcDbCircle
 10
1.378945333920782
 20
-0.7129792181475487
 40
0.05
100
AcDbArc
 50
359.9999999999976
 51
89.99999999999763
  0
ARC
  5
96
100
AcDbEntity
  8
0
  6
CONTINUOUS
 62
    0
370
   -1
100
AcDbCircle
 10
1.425464297260987
 20
-0.7093454474734955
 40
0.0336286248292358
100
AcDbArc
 50
354.6300800466582
 51
109.3882631815806
  0
ARC
  5
97
100
AcDbEntity
  8
0
  6
CONTINUOUS
 62
    0
370
   -1
100
AcDbCircle
 10
1.358945333920779
 20
-0.7627740683597715
 40
0.1
100
AcDbArc
 50
268.8246195202624
 51
359.9999999999976
  0
ARC
  5
98
100
AcDbEntity
  8
0
  6
CONTINUOUS
 62
    0
370
   -1
100
AcDbCircle
 10
1.358945333920779
 20
-0.7627740683597715
 40
0.15
100
AcDbArc
 50
268.8246195202624
 51
359.9999999999976
  0
ARC
  5
99
100
AcDbEntity
  8
0
  6
CONTINUOUS
 62
    0
370
   -1
100
AcDbCircle
 10
1.483945333920779
 20
-0.7890240683597689
 40
0.0362499999999946
100
AcDbArc
 50
46.39718102728899
 51
133.6028189727063
  0
ENDBLK
  5
50
330
4E
100
AcDbEntity
  8
0
100
AcDbBlockEnd
  0
BLOCK
  5
52
330
51
100
AcDbEntity
  8
0
100
AcDbBlockBegin
  2
A$C1352
 70
    0
 10
0
 20
0
  3
A$C1352
  1

  0
LWPOLYLINE
  5
9A
100
AcDbEntity
  8
0
  6
ByLayer
 62
    0
370
   -1
100
AcDbPolyline
 90
    8
 70
    1
 43
0
 10
0.0026870767163327
 20
0.0529944317703652
 10
0.002687076716332691
 20
0.5529944317703688
 42
-0.4142135623730951
 10
0.05268707671633341
 20
0.6029944317703695
 10
0.7526870767163309
 20
0.6029944317703659
 42
-0.4142135623730951
 10
0.8026870767163317
 20
0.5529944317703652
 10
0.8026870767163317
 20
0.0529944317703723
 42
-0.4142135623730951
 10
0.7526870767163309
 20
0.002994431770371599
 10
0.0526870767163334
 20
0.0029944317703645
 42
-0.4142135623730966
  0
LWPOLYLINE
  5
9B
100
AcDbEntity
  8
0
  6
ByLayer
 62
    0
370
   -1
100
AcDbPolyline
 90
    8
 70
    1
 43
0
 10
0.0226870767163305
 20
0.0529944317703652
 10
0.02268707671633051
 20
0.5529944317703688
 42
-0.4142135623731206
 10
0.0526870767163334
 20
0.5829944317703699
 10
0.7526870767163309
 20
0.5829944317703664
 42
-0.4142135623731036
 10
0.7826870767163321
 20
0.5529944317703652
 10
0.7826870767163321
 20
0.0529944317703723
 42
-0.4142135623731034
 10
0.7526870767163309
 20
0.0229944317703712
 10
0.0526870767163334
 20
0.0229944317703641
 42
-0.4142135623731206
  0
ENDBLK
  5
53
330
51
100
AcDbEntity
  8
0
100
AcDbBlockEnd
  0
BLOCK
  5
55
330
54
100
AcDbEntity
  8
0
100
AcDbBlockBegin
  2
A$C21E3
 70
    0
 10
0
 20
0
  3
A$C21E3
  1

  0
LWPOLYLINE
  5
9C
100
AcDbEntity
  8
0
  6
ByLayer
 62
    0
370
   -1
100
AcDbPolyline
 90
   12
 70
    1
 43
0
 10
0.08615359200047661
 20
0.0164097059309256
 10
0.0311509094897922
 20
0.0164097059309256
 42
-0.4210142460271822
 10
0.0211535920004664
 20
0.02664131555409462
 42
0.02620827251918843
 10
0.001153592000463277
 20
0.3764097059309243
 42
-0.4142135623730951
 10
0.356153592000462
 20
0.7314097059309255
 42
-0.414213562373095
 10
0.7111535920004628
 20
0.3764097059309256
 42
0.02620827251918843
 10
0.6911535920004575
 20
0.02664131555409461
 42
-0.4210142460271831
 10
0.6811562745111317
 20
0.0164097059309256
 10
0.6261535920004473
 20
0.0164097059309256
 42
-0.4142135623725232
 10
0.616153592000444
 20
0.006409705930924003
 10
0.3561535920004602
 20
0.006409705930924
 10
0.0961535920004799
 20
0.006409705930923998
 42
-0.4142135623731469
  0
LWPOLYLINE
  5
9D
100
AcDbEntity
  8
0
  6
ByLayer
 62
    0
370
   -1
100
AcDbPolyline
 90
    3
 70
    0
 43
0
 10
0.6345193903464867
 20
0.3556757449156258
 42
0.3477070589273192
 10
0.362038644343139
 20
0.5712223271826566
 42
0.4142135623730951
 10
0.08203864434313773
 20
0.2912223271826804
 42
0.4142135623730951
  0
LWPOLYLINE
  5
9E
100
AcDbEntity
  8
0
  6
ByLayer
 62
    0
370
   -1
100
AcDbPolyline
 90
    8
 70
    1
 43
0
 10
0.07615359200046079
 20
0.3764097059309467
 42
-0.02700731364896208
 10
0.08615359200047656
 20
0.01640970593094658
 42
0.4142135623731471
 10
0.0961535920004799
 20
0.006409705930923999
 10
0.3561535920004602
 20
0.006409705930924
 10
0.616153592000444
 20
0.006409705930924003
 42
0.4142135623731473
 10
0.6261535920004473
 20
0.01640970593094598
 42
-0.02700731364896219
 10
0.6361535920004631
 20
0.3764097059309467
 42
0.4142135623730951
 10
0.356153592000462
 20
0.6564097059309226
 42
0.4142135623730951
  0
ENDBLK
  5
56
330
54
100
AcDbEntity
  8
0
100
AcDbBlockEnd
  0
BLOCK
  5
58
330
57
100
AcDbEntity
  8
0
100
AcDbBlockBegin
  2
A$C3043
 70
    0
 10
0
 20
0
  3
A$C3043
  1

  0
ARC
  5
9F
100
AcDbEntity
  8
0
  6
ByLayer
 62
    0
370
   -1
100
AcDbCircle
 10
0.2815704762293638
 20
0.2414481079561028
 40
0.2500000000002274
100
AcDbArc
 50
11.47834095456199
 51
168.5216590454712
  0
LWPOLYLINE
  5
A0
100
AcDbEntity
  8
0
  6
ByLayer
 62
    0
370
   -1
100
AcDbPolyline
 90
    4
 70
    1
 43
0
 10
0.5265704762291925
 20
0.0070128909843028
 10
0.5265704762295904
 20
0.3120952987073231
 42
0.9999999659999912
 10
0.03657047622913723
 20
0.312095298706879
 10
0.0365704762291372
 20
0.0070128909842886
  0
LWPOLYLINE
  5
A1
100
AcDbEntity
  8
0
  6
ByLayer
 62
    0
370
   -1
100
AcDbPolyline
 90
    4
 70
    1
 43
0
 10
0.5615704762291376
 20
0.0070128909843064
 10
0.5615704762295906
 20
0.3120952987073871
 42
0.9999999999999999
 10
0.001570476229137086
 20
0.3120952987073872
 10
0.0015704762291353
 20
0.0070128909842921
  0
ENDBLK
  5
59
330
57
100
AcDbEntity
  8
0
100
AcDbBlockEnd
  0
BLOCK
  5
5B
330
5A
100
AcDbEntity
  8
0
100
AcDbBlockBegin
  2
A$C14264F02
 70
    0
 10
0
 20
0
  3
A$C14264F02
  1

  0
LINE
  5
A2
100
AcDbEntity
  8
0
  6
ByLayer
 62
    0
370
   -1
100
AcDbLine
 10
0.6500000143567242
 20
0.4249999485310809
 11
0.150000014356749
 21
0.4249999485310809
  0
LINE
  5
A3
100
AcDbEntity
  8
0
  6
ByLayer
 62
    0
370
   -1
100
AcDbLine
 10
0.0750000143567178
 20
0.6249999485310802
 11
0.0750000143567178
 21
0.6749999485310809
  0
ARC
  5
A4
100
AcDbEntity
  8
0
  6
ByLayer
 62
    0
370
   -1
100
AcDbCircle
 10
0.1000000143567181
 20
0.6749999485310791
 40
0.0250000000000004
100
AcDbArc
 50
89.99999999999594
 51
179.9999999999959
  0
LINE
  5
A5
100
AcDbEntity
  8
0
  6
ByLayer
 62
    0
370
   -1
100
AcDbLine
 10
0.1000000143567199
 20
0.6999999485310795
 11
0.7000000143566858
 21
0.6999999485310795
  0
ARC
  5
A6
100
AcDbEntity
  8
0
  6
ByLayer
 62
    0
370
   -1
100
AcDbCircle
 10
0.7000000143567044
 20
0.6749999485310623
 40
0.0250000000000172
100
AcDbArc
 50
4.27467e-11
 51
90.00000000004275
  0
LINE
  5
A7
100
AcDbEntity
  8
0
  6
ByLayer
 62
    0
370
   -1
100
AcDbLine
 10
0.7250000143567217
 20
0.6749999485310809
 11
0.7250000143567199
 21
0.5749999485310795
  0
ARC
  5
A8
100
AcDbEntity
  8
0
  6
ByLayer
 62
    0
370
   -1
100
AcDbCircle
 10
0.7000000143567213
 20
0.5749999485310795
 40
0.0249999999999986
100
AcDbArc
 50
270
 51
0
  0
LINE
  5
A9
100
AcDbEntity
  8
0
  6
ByLayer
 62
    0
370
   -1
100
AcDbLine
 10
0.7000000143567213
 20
0.5499999485310809
 11
0.1000000143567554
 21
0.5499999485310809
  0
ARC
  5
AA
100
AcDbEntity
  8
0
  6
ByLayer
 62
    0
370
   -1
100
AcDbCircle
 10
0.1000000143567368
 20
0.5749999485310981
 40
0.0250000000000172
100
AcDbArc
 50
180.0000000000428
 51
270.0000000000427
  0
LINE
  5
AB
100
AcDbEntity
  8
0
  6
ByLayer
 62
    0
370
   -1
100
AcDbLine
 10
0.0750000143567195
 20
0.5749999485310795
 11
0.0750000143567178
 21
0.6249999485310802
  0
LINE
  5
AC
100
AcDbEntity
  8
0
  6
ByLayer
 62
    0
370
   -1
100
AcDbLine
 10
0.0750000143567178
 20
0.6249999485310802
 11
0.0250000143567206
 21
0.6249999485310802
  0
ARC
  5
AD
100
AcDbEntity
  8
0
  6
ByLayer
 62
    0
370
   -1
100
AcDbCircle
 10
0.0250000143567197
 20
0.5999999485310825
 40
0.0249999999999977
100
AcDbArc
 50
89.99999999999797
 51
180.000000000002
  0
LINE
  5
AE
100
AcDbEntity
  8
0
  6
ByLayer
 62
    0
370
   -1
100
AcDbLine
 10
0.0750000143567178
 20
0.0999999485310816
 11
0.0250000143567206
 21
0.0999999485310781
  0
ARC
  5
AF
100
AcDbEntity
  8
0
  6
ByLayer
 62
    0
370
   -1
100
AcDbCircle
 10
0.0250000143571034
 20
0.124999948531463
 40
0.0250000000003849
100
AcDbArc
 50
180.0000000008773
 51
269.9999999991227
  0
LINE
  5
B0
100
AcDbEntity
  8
0
  6
ByLayer
 62
    0
370
   -1
100
AcDbLine
 10
1.43567185e-08
 20
0.1249999485310802
 11
1.43567185e-08
 21
0.5999999485310852
  0
ARC
  5
B1
100
AcDbEntity
  8
0
  6
ByLayer
 62
    0
370
   -1
100
AcDbCircle
 10
0.0250000143579095
 20
0.5999999485298892
 40
0.025000000001191
100
AcDbArc
 50
90.00000000272465
 51
179.9999999972591
  0
LINE
  5
B2
100
AcDbEntity
  8
0
  6
ByLayer
 62
    0
370
   -1
100
AcDbLine
 10
0.0250000143567206
 20
0.6249999485310802
 11
0.0750000143567178
 21
0.6249999485310802
  0
LINE
  5
B3
100
AcDbEntity
  8
0
  6
ByLayer
 62
    0
370
   -1
100
AcDbLine
 10
0.0750000143567178
 20
0.6249999485310802
 11
0.0750000143567178
 21
0.6749999485310809
  0
ARC
  5
B4
100
AcDbEntity
  8
0
  6
ByLayer
 62
    0
370
   -1
100
AcDbCircle
 10
0.100000014359364
 20
0.6749999485284333
 40
0.0250000000026462
100
AcDbArc
 50
90.00000000605981
 51
179.999999993932
  0
LINE
  5
B5
100
AcDbEntity
  8
0
  6
ByLayer
 62
    0
370
   -1
100
AcDbLine
 10
0.1000000143567199
 20
0.6999999485310795
 11
0.7000000143566858
 21
0.6999999485310795
  0
ARC
  5
B6
100
AcDbEntity
  8
0
  6
ByLayer
 62
    0
370
   -1
100
AcDbCircle
 10
0.7000000143589107
 20
0.6749999485332685
 40
0.024999999997811
100
AcDbArc
 50
359.9999999949864
 51
90.00000000509907
  0
LINE
  5
B7
100
AcDbEntity
  8
0
  6
ByLayer
 62
    0
370
   -1
100
AcDbLine
 10
0.7250000143567217
 20
0.6749999485310809
 11
0.7250000143567181
 21
0.6249999485310767
  0
LINE
  5
B8
100
AcDbEntity
  8
0
  6
ByLayer
 62
    0
370
   -1
100
AcDbLine
 10
0.7250000143567181
 20
0.6249999485310767
 11
0.7750000143567206
 21
0.6249999485310767
  0
ARC
  5
B9
100
AcDbEntity
  8
0
  6
ByLayer
 62
    0
370
   -1
100
AcDbCircle
 10
0.7750000143578912
 20
0.5999999485322487
 40
0.024999999998828
100
AcDbArc
 50
359.9999999973253
 51
90.00000000268285
  0
LINE
  5
BA
100
AcDbEntity
  8
0
  6
ByLayer
 62
    0
370
   -1
100
AcDbLine
 10
0.8000000143567192
 20
0.5999999485310816
 11
0.8000000143567192
 21
0.1249999485310731
  0
ARC
  5
BB
100
AcDbEntity
  8
0
  6
ByLayer
 62
    0
370
   -1
100
AcDbCircle
 10
0.7750000143535587
 20
0.1249999485342421
 40
0.0250000000031605
100
AcDbArc
 50
270.0000000072466
 51
359.9999999927372
  0
LINE
  5
BC
100
AcDbEntity
  8
0
  6
ByLayer
 62
    0
370
   -1
100
AcDbLine
 10
0.7750000143567206
 20
0.0999999485310816
 11
0.7250000143566808
 21
0.0999999485310603
  0
LINE
  5
BD
100
AcDbEntity
  8
0
  6
ByLayer
 62
    0
370
   -1
100
AcDbLine
 10
0.7250000143566808
 20
0.0999999485310603
 11
0.7250000143567199
 21
0.0249999485310788
  0
ARC
  5
BE
100
AcDbEntity
  8
0
  6
ByLayer
 62
    0
370
   -1
100
AcDbCircle
 10
0.7000000143545888
 20
0.0249999485332113
 40
0.0250000000021311
100
AcDbArc
 50
270.0000000048874
 51
359.9999999951127
  0
LINE
  5
BF
100
AcDbEntity
  8
0
  6
ByLayer
 62
    0
370
   -1
100
AcDbLine
 10
0.7000000143567213
 20
-5.14689198e-08
 11
0.1000000143567377
 21
-5.14689198e-08
  0
ARC
  5
C0
100
AcDbEntity
  8
0
  6
ByLayer
 62
    0
370
   -1
100
AcDbCircle
 10
0.1000000143551682
 20
0.0249999485295289
 40
0.0249999999984487
100
AcDbArc
 50
179.9999999964479
 51
270.0000000035969
  0
LINE
  5
C1
100
AcDbEntity
  8
0
  6
ByLayer
 62
    0
370
   -1
100
AcDbLine
 10
0.0750000143567195
 20
0.0249999485310788
 11
0.0750000143567178
 21
0.0999999485310816
  0
LINE
  5
C2
100
AcDbEntity
  8
0
  6
ByLayer
 62
    0
370
   -1
100
AcDbLine
 10
0.0750000143567178
 20
0.5749999485310795
 11
0.0750000143567195
 21
0.4999999485310767
  0
ARC
  5
C3
100
AcDbEntity
  8
0
  6
ByLayer
 62
    0
370
   -1
100
AcDbCircle
 10
0.1000000143567181
 20
0.4999999485310802
 40
0.0249999999999986
100
AcDbArc
 50
180.0000000000082
 51
270.0000000000041
  0
LINE
  5
C4
100
AcDbEntity
  8
0
  6
ByLayer
 62
    0
370
   -1
100
AcDbLine
 10
0.1000000143567199
 20
0.4749999485310816
 11
0.1250000143567185
 21
0.4749999485310781
  0
ARC
  5
C5
100
AcDbEntity
  8
0
  6
ByLayer
 62
    0
370
   -1
100
AcDbCircle
 10
0.1250000143567203
 20
0.4499999485310777
 40
0.0250000000000004
100
AcDbArc
 50
4.0711e-12
 51
90.00000000000408
  0
LINE
  5
C6
100
AcDbEntity
  8
0
  6
ByLayer
 62
    0
370
   -1
100
AcDbLine
 10
0.1500000143567206
 20
0.4499999485310795
 11
0.1500000143567206
 21
0.1249999485310802
  0
ARC
  5
C7
100
AcDbEntity
  8
0
  6
ByLayer
 62
    0
370
   -1
100
AcDbCircle
 10
0.1250000143567203
 20
0.124999948531082
 40
0.0250000000000004
100
AcDbArc
 50
269.9999999999959
 51
359.9999999999959
  0
LINE
  5
C8
100
AcDbEntity
  8
0
  6
ByLayer
 62
    0
370
   -1
100
AcDbLine
 10
0.1250000143567185
 20
0.0999999485310816
 11
0.0750000143567178
 21
0.0999999485310816
  0
LINE
  5
C9
100
AcDbEntity
  8
0
  6
ByLayer
 62
    0
370
   -1
100
AcDbLine
 10
0.0750000143567178
 20
0.0999999485310816
 11
0.0250000143567206
 21
0.0999999485310781
  0
ARC
  5
CA
100
AcDbEntity
  8
0
  6
ByLayer
 62
    0
370
   -1
100
AcDbCircle
 10
0.0250000143567215
 20
0.1249999485310811
 40
0.025000000000003
100
AcDbArc
 50
180.000000000002
 51
269.999999999998
  0
LINE
  5
CB
100
AcDbEntity
  8
0
  6
ByLayer
 62
    0
370
   -1
100
AcDbLine
 10
1.43567185e-08
 20
0.1249999485310802
 11
1.43567185e-08
 21
0.5999999485310852
  0
LINE
  5
CC
100
AcDbEntity
  8
0
  6
ByLayer
 62
    0
370
   -1
100
AcDbLine
 10
0.7250000143566808
 20
0.6249999485310802
 11
0.7750000143567206
 21
0.6249999485310767
  0
ARC
  5
CD
100
AcDbEntity
  8
0
  6
ByLayer
 62
    0
370
   -1
100
AcDbCircle
 10
0.7750000143567215
 20
0.599999948531079
 40
0.0249999999999977
100
AcDbArc
 50
6.1067e-12
 51
90.00000000000203
  0
LINE
  5
CE
100
AcDbEntity
  8
0
  6
ByLayer
 62
    0
370
   -1
100
AcDbLine
 10
0.8000000143567192
 20
0.5999999485310816
 11
0.8000000143567192
 21
0.1249999485310731
  0
ARC
  5
CF
100
AcDbEntity
  8
0
  6
ByLayer
 62
    0
370
   -1
100
AcDbCircle
 10
0.7750000143567242
 20
0.1249999485310767
 40
0.024999999999995
100
AcDbArc
 50
269.9999999999919
 51
359.9999999999919
  0
LINE
  5
D0
100
AcDbEntity
  8
0
  6
ByLayer
 62
    0
370
   -1
100
AcDbLine
 10
0.7750000143567206
 20
0.0999999485310816
 11
0.6750000143567263
 21
0.0999999485310816
  0
ARC
  5
D1
100
AcDbEntity
  8
0
  6
ByLayer
 62
    0
370
   -1
100
AcDbCircle
 10
0.675000014356721
 20
0.1249999485310838
 40
0.0250000000000021
100
AcDbArc
 50
180.0000000000163
 51
270.0000000000122
  0
LINE
  5
D2
100
AcDbEntity
  8
0
  6
ByLayer
 62
    0
370
   -1
100
AcDbLine
 10
0.6500000143567188
 20
0.1249999485310767
 11
0.6500000143567206
 21
0.449999948531083
  0
ARC
  5
D3
100
AcDbEntity
  8
0
  6
ByLayer
 62
    0
370
   -1
100
AcDbCircle
 10
0.6750000143567174
 20
0.4499999485310813
 40
0.0249999999999968
100
AcDbArc
 50
89.99999999999594
 51
179.9999999999959
  0
LINE
  5
D4
100
AcDbEntity
  8
0
  6
ByLayer
 62
    0
370
   -1
100
AcDbLine
 10
0.6750000143567192
 20
0.4749999485310781
 11
0.7000000143567178
 21
0.4749999485310816
  0
ARC
  5
D5
100
AcDbEntity
  8
0
  6
ByLayer
 62
    0
370
   -1
100
AcDbCircle
 10
0.7000000143567195
 20
0.499999948531082
 40
0.0250000000000004
100
AcDbArc
 50
269.9999999999959
 51
359.9999999999959
  0
LINE
  5
D6
100
AcDbEntity
  8
0
  6
ByLayer
 62
    0
370
   -1
100
AcDbLine
 10
0.7250000143567199
 20
0.4999999485310802
 11
0.7250000143567199
 21
0.574999948531083
  0
ENDBLK
  5
5C
330
5A
100
AcDbEntity
  8
0
100
AcDbBlockEnd
  0
BLOCK
  5
5E
330
5D
100
AcDbEntity
  8
0
100
AcDbBlockBegin
  2
DAY BED1
 70
    0
 10
0
 20
0
  3
DAY BED1
  1

  0
LWPOLYLINE
  5
D7
100
AcDbEntity
  8
0
  6
ByLayer
 62
    0
370
   -1
100
AcDbPolyline
 90
    3
 70
    0
 43
0
 10
-0.07555779577330674
 20
1.42490800449599
 42
-0.3567723648219205
 10
0.05047293858967809
 20
1.568178253645328
 42
-0.2495420503229878
 10
0.1543329775741995
 20
1.438362260224551
 42
-0.2495420503229878
  0
LWPOLYLINE
  5
D8
100
AcDbEntity
  8
0
  6
ByLayer
 62
    0
370
   -1
100
AcDbPolyline
 90
    3
 70
    0
 43
0
 10
-0.072509253707949
 20
1.45010879736077
 42
0.1655406298837506
 10
-0.138573162956277
 20
1.419177209280804
 42
0.2002311474195825
 10
-0.05811366392651962
 20
1.220695525622375
 42
0.2002311474195825
  0
LWPOLYLINE
  5
D9
100
AcDbEntity
  8
0
  6
ByLayer
 62
    0
370
   -1
100
AcDbPolyline
 90
    3
 70
    0
 43
0
 10
-0.0755577957668265
 20
1.155559937944986
 42
-0.3567723648219203
 10
0.05047293859627187
 20
1.298830187094325
 42
-0.2495420503229877
 10
0.1543329775806797
 20
1.169014193673547
 42
-0.2495420503229877
  0
LWPOLYLINE
  5
DA
100
AcDbEntity
  8
0
  6
ByLayer
 62
    0
370
   -1
100
AcDbPolyline
 90
    4
 70
    0
 43
0
 10
-0.07250925370146889
 20
1.180760730809766
 42
0.1655406298837504
 10
-0.1385731629499103
 20
1.1498291427298
 42
0.4259891687143784
 10
0.1478603304382202
 20
0.8690194396577908
 42
0.1215233233290522
 10
0.187340187937366
 20
0.9356782783393668
 42
0.1215233233290522
  0
LWPOLYLINE
  5
DB
100
AcDbEntity
  8
0
  6
ByLayer
 62
    0
370
   -1
100
AcDbPolyline
 90
    5
 70
    0
 43
0
 10
-0.0725317980818545
 20
1.450000000007378
 10
-0.1500000000161208
 20
1.450000000005502
 42
-0.4142135623730951
 10
-0.2000000000172122
 20
1.50000000000432
 10
-0.2000000000184627
 20
1.550000000004331
 42
-0.4142135623730949
 10
-0.1500000000196451
 20
1.600000000005537
 42
-0.4142135623730949
  0
LWPOLYLINE
  5
DC
100
AcDbEntity
  8
0
  6
ByLayer
 62
    0
370
   -1
100
AcDbPolyline
 90
    3
 70
    0
 43
0
 10
0.05047293858967819
 20
1.568178253645328
 42
-0.1477298758543701
 10
0.1364030002145
 20
1.422042583844018
 42
-0.2133427585932453
 10
0.2624337345840786
 20
1.293099391885676
 42
-0.2133427585932453
  0
LWPOLYLINE
  5
DD
100
AcDbEntity
  8
0
  6
ByLayer
 62
    0
370
   -1
100
AcDbPolyline
 90
    2
 70
    0
 43
0
 10
0.2499999999844249
 20
1.430000000015127
 10
0.2499999999864713
 20
1.344813874967144
  0
LWPOLYLINE
  5
DE
100
AcDbEntity
  8
0
  6
ByLayer
 62
    0
370
   -1
100
AcDbPolyline
 90
    5
 70
    0
 43
0
 10
0.1999999999849251
 20
1.411844196757954
 10
0.1999999999844704
 20
1.430000000013933
 42
-0.4142135623730945
 10
0.2199999999839974
 20
1.45000000001437
 10
0.2299999999839883
 20
1.450000000014654
 42
-0.4142135623730954
 10
0.2499999999844249
 20
1.430000000015127
 42
-0.4142135623730954
  0
LWPOLYLINE
  5
DF
100
AcDbEntity
  8
0
  6
ByLayer
 62
    0
370
   -1
100
AcDbPolyline
 90
    3
 70
    0
 43
0
 10
0.2499999999864713
 20
1.344813874967144
 10
0.2499999999839702
 20
1.450000000015109
 10
0.1517380995393296
 20
1.450000000012778
  0
LWPOLYLINE
  5
E0
100
AcDbEntity
  8
0
  6
ByLayer
 62
    0
370
   -1
100
AcDbPolyline
 90
    2
 70
    0
 43
0
 10
0.2499999999885176
 20
1.261632009102925
 10
0.2499999999929514
 20
1.075465808416141
  0
LWPOLYLINE
  5
E1
100
AcDbEntity
  8
0
  6
ByLayer
 62
    0
370
   -1
100
AcDbPolyline
 90
    2
 70
    0
 43
0
 10
0.2499999999929514
 20
1.075465808416141
 10
0.2499999999885176
 20
1.261632009102925
  0
LWPOLYLINE
  5
E2
100
AcDbEntity
  8
0
  6
ByLayer
 62
    0
370
   -1
100
AcDbPolyline
 90
    3
 70
    0
 43
0
 10
0.1432514758118941
 20
1.172883295990573
 42
-0.30666349490175
 10
0.2624337345905586
 20
1.023751325334672
 42
-0.3063299663357474
 10
0.1535890125506967
 20
0.92632753009633
 42
-0.3063299663357474
  0
LWPOLYLINE
  5
E3
100
AcDbEntity
  8
0
  6
ByLayer
 62
    0
370
   -1
100
AcDbPolyline
 90
    2
 70
    0
 43
0
 10
0.1999999999912916
 20
1.142496130206951
 10
0.1999999999897
 20
1.211285072161616
  0
LWPOLYLINE
  5
E4
100
AcDbEntity
  8
0
  6
ByLayer
 62
    0
370
   -1
100
AcDbPolyline
 90
    2
 70
    0
 43
0
 10
0.1677926036587677
 20
1.163107009680289
 42
0.07186537901034293
 10
0.1873401879309995
 20
1.205026344890371
 42
0.07186537901034293
  0
LWPOLYLINE
  5
E5
100
AcDbEntity
  8
0
  6
ByLayer
 62
    0
370
   -1
100
AcDbPolyline
 90
    3
 70
    0
 43
0
 10
0.143251475805414
 20
1.442231362541577
 42
-0.30666349490175
 10
0.2624337345840786
 20
1.293099391885676
 42
-0.3063299663357472
 10
0.1535890125443301
 20
1.195675596647334
 42
-0.3063299663357472
  0
LWPOLYLINE
  5
E6
100
AcDbEntity
  8
0
  6
ByLayer
 62
    0
370
   -1
100
AcDbPolyline
 90
    3
 70
    0
 43
0
 10
0.05047293859627186
 20
1.298830187094325
 42
-0.1477298758543702
 10
0.1364030002210939
 20
1.152694517293014
 42
-0.2133427585932456
 10
0.2624337345905587
 20
1.023751325334672
 42
-0.2133427585932456
  0
LINE
  5
E7
100
AcDbEntity
  8
0
  6
ByLayer
 62
    0
370
   -1
100
AcDbLine
 10
0.3000000000054115
 20
0.2500000000129035
 11
0.2250000000008185
 21
0.2548554667704934
  0
LWPOLYLINE
  5
E8
100
AcDbEntity
  8
0
  6
ByLayer
 62
    0
370
   -1
100
AcDbPolyline
 90
    2
 70
    0
 43
0
 10
0.2500000000038654
 20
0.3774682019461011
 10
0.2499999999948841
 20
0.9922839425519214
  0
LWPOLYLINE
  5
E9
100
AcDbEntity
  8
0
  6
ByLayer
 62
    0
370
   -1
100
AcDbPolyline
 90
    6
 70
    0
 43
0
 10
0.2499999999948841
 20
0.9922839425519214
 10
0.2500000000003411
 20
0.2748554667710437
 42
-0.4142135623730951
 10
0.230000000000814
 20
0.2548554667706071
 10
0.2200000000008231
 20
0.2548554667703229
 42
-0.4142135623730992
 10
0.2000000000003865
 20
0.27485546676985
 10
0.1999999999960664
 20
0.9419370056106118
  0
LWPOLYLINE
  5
EA
100
AcDbEntity
  8
0
  6
ByLayer
 62
    0
370
   -1
100
AcDbPolyline
 90
   14
 70
    1
 43
0
 10
-0.2999999999999546
 20
-7.219114195322618e-12
 42
-0.4142135623730964
 10
-0.400000000002251
 20
0.09999999999041623
 10
-0.400000000002251
 20
0.09999999999041619
 42
0.3176748438869722
 10
-0.400000000002251
 20
0.09999999999035941
 42
-0.4142233140648403
 10
-0.400000000002251
 20
0.09999999999160991
 10
-0.400000000002251
 20
0.09999999999035941
 42
1.186685341921844
 10
-0.400000000002251
 20
0.0999999999904162
 42
-0.414210157236012
 10
-0.400000000002251
 20
0.0999999999916099
 10
-0.4000000000172577
 20
1.499999999999545
 42
-0.4142135623730949
 10
-0.3000000000196223
 20
1.600000000001899
 10
0.2999999999802867
 20
1.600000000016337
 42
-0.4142135623730998
 10
0.3999999999826969
 20
1.500000000018701
 10
0.3999999999977035
 20
0.1000000000095724
 42
-0.4142135623730966
 10
0.3000000000000682
 20
7.21910031753481e-12
  0
LWPOLYLINE
  5
EB
100
AcDbEntity
  8
0
  6
ByLayer
 62
    0
370
   -1
100
AcDbPolyline
 90
    5
 70
    0
 43
0
 10
0.2500000000038654
 20
0.3774682019461011
 10
0.2500000000053433
 20
0.3000000000119485
 42
0.4142135623730951
 10
0.3000000000064347
 20
0.2500000000129035
 10
0.3500000000063892
 20
0.2500000000139266
 42
0.4142135623730951
 10
0.4000000000054342
 20
0.3000000000149043
 42
0.4142135623730951
  0
ENDBLK
  5
5F
330
5D
100
AcDbEntity
  8
0
100
AcDbBlockEnd
  0
BLOCK
  5
61
330
60
100
AcDbEntity
  8
0
100
AcDbBlockBegin
  2
part 01
 70
    0
 10
0
 20
0
  3
part 01
  1

  0
ARC
  5
EC
100
AcDbEntity
  8
0
  6
CONTINUOUS
 62
    0
370
   -1
100
AcDbCircle
 10
0
 20
30
 40
30
100
AcDbArc
 50
270
 51
0
  0
LINE
  5
ED
100
AcDbEntity
  8
0
  6
CONTINUOUS
 62
    0
370
   -1
100
AcDbLine
 10
-669.7948502120416
 20
2.18279e-11
 11
7.275999999999999e-12
 21
-1.63709e-11
  0
LINE
  5
EE
100
AcDbEntity
  8
0
  6
CONTINUOUS
 62
    0
370
   -1
100
AcDbLine
 10
30.00000000001455
 20
29.99999999999818
 11
30.0000000000291
 21
669.9999999999982
  0
ARC
  5
EF
100
AcDbEntity
  8
0
  6
CONTINUOUS
 62
    0
370
   -1
100
AcDbCircle
 10
-705.8500165172009
 20
25.00000000001637
 40
66.24999999999459
100
AcDbArc
 50
337.829842836433
 51
22.17015716356706
  0
ARC
  5
F0
100
AcDbEntity
  8
0
  6
CONTINUOUS
 62
    0
370
   -1
100
AcDbCircle
 10
-669.7948502120416
 20
150
 40
69.99999999999999
100
AcDbArc
 50
178.8246195202786
 51
270
  0
ARC
  5
F1
100
AcDbEntity
  8
0
  6
CONTINUOUS
 62
    0
370
   -1
100
AcDbCircle
 10
1178.138705228797
 20
349.9999999999764
 40
2007.918945564398
100
AcDbArc
 50
174.2835395458498
 51
185.7164604541503
  0
ARC
  5
F2
100
AcDbEntity
  8
0
  6
CONTINUOUS
 62
    0
370
   -1
100
AcDbCircle
 10
1178.138705228797
 20
349.9999999999764
 40
1957.918945564398
100
AcDbArc
 50
174.2835395458498
 51
185.7164604541503
  0
ARC
  5
F3
100
AcDbEntity
  8
0
  6
CONTINUOUS
 62
    0
370
   -1
100
AcDbCircle
 10
-659.7484123644099
 20
182.219649279752
 40
132.7121590285228
100
AcDbArc
 50
264.3868350055195
 51
303.9102679917793
  0
ARC
  5
F4
100
AcDbEntity
  8
0
  6
CONTINUOUS
 62
    0
370
   -1
100
AcDbCircle
 10
-696.0448502120344
 20
25.00000000001637
 40
36.24999999999459
100
AcDbArc
 50
316.397181027397
 51
43.602818972603
  0
ARC
  5
F5
100
AcDbEntity
  8
0
  6
CONTINUOUS
 62
    0
370
   -1
100
AcDbCircle
 10
-669.7948502120416
 20
150
 40
150
100
AcDbArc
 50
178.8246195202786
 51
270
  0
ARC
  5
F6
100
AcDbEntity
  8
0
  6
CONTINUOUS
 62
    0
370
   -1
100
AcDbCircle
 10
-669.7948502120416
 20
150
 40
100
100
AcDbArc
 50
178.8246195202786
 51
270
  0
ARC
  5
F7
100
AcDbEntity
  8
0
  6
CONTINUOUS
 62
    0
370
   -1
100
AcDbCircle
 10
2.18279e-11
 20
670.0000000000055
 40
30
100
AcDbArc
 50
0
 51
90
  0
ARC
  5
F8
100
AcDbEntity
  8
0
  6
CONTINUOUS
 62
    0
370
   -1
100
AcDbCircle
 10
-696.0448502120198
 20
675.00000000002
 40
36.24999999999459
100
AcDbArc
 50
316.397181027397
 51
43.602818972603
  0
ARC
  5
F9
100
AcDbEntity
  8
0
  6
CONTINUOUS
 62
    0
370
   -1
100
AcDbCircle
 10
-705.8500165171718
 20
674.9999999999945
 40
66.24999999999459
100
AcDbArc
 50
337.829842836433
 51
22.17015716356706
  0
ARC
  5
FA
100
AcDbEntity
  8
0
  6
CONTINUOUS
 62
    0
370
   -1
100
AcDbCircle
 10
1178.138705228797
 20
349.9999999999764
 40
1927.918945564398
100
AcDbArc
 50
174.2835395458498
 51
185.7164604541503
  0
ARC
  5
FB
100
AcDbEntity
  8
0
  6
CONTINUOUS
 62
    0
370
   -1
100
AcDbCircle
 10
-669.7948502120344
 20
550.0000000000346
 40
69.99999999999999
100
AcDbArc
 50
90
 51
181.1753804797214
  0
LINE
  5
FC
100
AcDbEntity
  8
0
  6
CONTINUOUS
 62
    0
370
   -1
100
AcDbLine
 10
-590.9386412666936
 20
172.9092912847009
 11
-739.7948502120344
 21
150.0000000000036
  0
LINE
  5
FD
100
AcDbEntity
  8
0
  6
CONTINUOUS
 62
    0
370
   -1
100
AcDbLine
 10
-590.9386412666936
 20
527.0907087153228
 11
-739.7948502120271
 21
550.0000000000382
  0
ARC
  5
FE
100
AcDbEntity
  8
0
  6
CONTINUOUS
 62
    0
370
   -1
100
AcDbCircle
 10
-659.7484123644099
 20
182.219649279752
 40
102.7121590285229
100
AcDbArc
 50
264.3868350055195
 51
317.9933662900258
  0
ARC
  5
FF
100
AcDbEntity
  8
0
  6
CONTINUOUS
 62
    0
370
   -1
100
AcDbCircle
 10
-659.7484123644099
 20
517.7803507202934
 40
102.7121590285229
100
AcDbArc
 50
42.00663371087278
 51
95.6131649944805
  0
LINE
  5
100
100
AcDbEntity
  8
0
  6
CONTINUOUS
 62
    0
370
   -1
100
AcDbLine
 10
-669.7948502120198
 20
700.0000000000127
 11
2.18279e-11
 21
700.0000000000091
  0
ARC
  5
101
100
AcDbEntity
  8
0
  6
CONTINUOUS
 62
    0
370
   -1
100
AcDbCircle
 10
-669.7948502120344
 20
550.0000000000346
 40
100
100
AcDbArc
 50
90
 51
181.1753804797214
  0
ARC
  5
102
100
AcDbEntity
  8
0
  6
CONTINUOUS
 62
    0
370
   -1
100
AcDbCircle
 10
1178.138705228797
 20
349.9999999999764
 40
1777.918945564398
100
AcDbArc
 50
174.2835395458498
 51
185.7164604541503
  0
ARC
  5
103
100
AcDbEntity
  8
0
  6
CONTINUOUS
 62
    0
370
   -1
100
AcDbCircle
 10
-602.0030444090735
 20
569.7866209259646
 40
25
100
AcDbArc
 50
339.999999999984
 51
42.00663371087278
  0
LINE
  5
104
100
AcDbEntity
  8
0
  6
CONTINUOUS
 62
    0
370
   -1
100
AcDbLine
 10
-590.9386412666936
 20
172.9092912847009
 11
-578.5107288905638
 21
138.7638826603161
  0
ARC
  5
105
100
AcDbEntity
  8
0
  6
CONTINUOUS
 62
    0
370
   -1
100
AcDbCircle
 10
-602.0030444102304
 20
130.2133790771804
 40
25
100
AcDbArc
 50
317.9933662900258
 51
20.00000000001598
  0
ARC
  5
106
100
AcDbEntity
  8
0
  6
CONTINUOUS
 62
    0
370
   -1
100
AcDbCircle
 10
-624.7540324001893
 20
80.0185237075566
 40
53.17748720372202
100
AcDbArc
 50
27.03918290211897
 51
38.9982839823072
  0
ARC
  5
107
100
AcDbEntity
  8
0
  6
CONTINUOUS
 62
    0
370
   -1
100
AcDbCircle
 10
-599.6564616230316
 20
92.8280016907247
 40
25
100
AcDbArc
 50
303.9102679918375
 51
27.03918290211897
  0
ARC
  5
108
100
AcDbEntity
  8
0
  6
CONTINUOUS
 62
    0
370
   -1
100
AcDbCircle
 10
-624.7540324001748
 20
619.9814762924852
 40
53.17748720372202
100
AcDbArc
 50
321.0017160176928
 51
332.960817097881
  0
ARC
  5
109
100
AcDbEntity
  8
0
  6
CONTINUOUS
 62
    0
370
   -1
100
AcDbCircle
 10
-599.6564616230171
 20
607.171998309308
 40
25
100
AcDbArc
 50
332.960817097881
 51
56.08973200816252
  0
LINE
  5
10A
100
AcDbEntity
  8
0
  6
CONTINUOUS
 62
    0
370
   -1
100
AcDbLine
 10
-590.9386412666936
 20
527.0907087153228
 11
-578.5107288894142
 21
561.2361173428199
  0
ARC
  5
10B
100
AcDbEntity
  8
0
  6
CONTINUOUS
 62
    0
370
   -1
100
AcDbCircle
 10
-659.7484123644099
 20
517.7803507202934
 40
132.7121590285228
100
AcDbArc
 50
56.08973200816252
 51
95.6131649944805
  0
ARC
  5
10C
100
AcDbEntity
  8
0
  6
CONTINUOUS
 62
    0
370
   -1
100
AcDbCircle
 10
-669.7948502120344
 20
550.0000000000346
 40
150
100
AcDbArc
 50
90
 51
181.1753804797214
  0
ENDBLK
  5
62
330
60
100
AcDbEntity
  8
0
100
AcDbBlockEnd
  0
BLOCK
  5
64
330
63
100
AcDbEntity
  8
0
100
AcDbBlockBegin
  2
part02
 70
    0
 10
0
 20
0
  3
part02
  1

  0
LINE
  5
10D
100
AcDbEntity
  8
0
  6
CONTINUOUS
 62
    0
370
   -1
100
AcDbLine
 10
29.99999999999272
 20
30.00000000000909
 11
699.7948502120635
 21
29.99999999998727
  0
LINE
  5
10E
100
AcDbEntity
  8
0
  6
CONTINUOUS
 62
    0
370
   -1
100
AcDbLine
 10
-2.91038e-11
 20
-669.7948502120453
 11
0
 21
7.275999999999999e-12
  0
ARC
  5
10F
100
AcDbEntity
  8
0
  6
CONTINUOUS
 62
    0
370
   -1
100
AcDbCircle
 10
30
 20
0
 40
30
100
AcDbArc
 50
90
 51
180
  0
ARC
  5
110
100
AcDbEntity
  8
0
  6
CONTINUOUS
 62
    0
370
   -1
100
AcDbCircle
 10
439.4355993091813
 20
-409.4355993092049
 40
338.8934492452703
100
AcDbArc
 50
268.2180935693465
 51
1.781906430751138
  0
ARC
  5
111
100
AcDbEntity
  8
0
  6
CONTINUOUS
 62
    0
370
   -1
100
AcDbCircle
 10
439.4355993091813
 20
-409.4355993092049
 40
418.8934492452703
100
AcDbArc
 50
268.2180935693465
 51
1.781906430751138
  0
ARC
  5
112
100
AcDbEntity
  8
0
  6
CONTINUOUS
 62
    0
370
   -1
100
AcDbCircle
 10
439.4355993091813
 20
-409.4355993092049
 40
368.8934492452703
100
AcDbArc
 50
268.2180935693465
 51
1.781906430751138
  0
ARC
  5
113
100
AcDbEntity
  8
0
  6
CONTINUOUS
 62
    0
370
   -1
100
AcDbCircle
 10
2219.757231755568
 20
-2189.757231755699
 40
2454.387691247558
100
AcDbArc
 50
130.6961010788291
 51
139.3038989213179
  0
ARC
  5
114
100
AcDbEntity
  8
0
  6
CONTINUOUS
 62
    0
370
   -1
100
AcDbCircle
 10
24.99999999997817
 20
-696.0448502120362
 40
36.24999999999459
100
AcDbArc
 50
46.39718102732513
 51
133.6028189726749
  0
ARC
  5
115
100
AcDbEntity
  8
0
  6
CONTINUOUS
 62
    0
370
   -1
100
AcDbCircle
 10
24.99999999997817
 20
-696.0448502120362
 40
56.24999999999459
100
AcDbArc
 50
63.33343545245403
 51
116.3877999612727
  0
ARC
  5
116
100
AcDbEntity
  8
0
  6
CONTINUOUS
 62
    0
370
   -1
100
AcDbCircle
 10
182.2196492797157
 20
-659.7484123644281
 40
102.7121590285229
100
AcDbArc
 50
132.0066337098348
 51
185.6131649943564
  0
ARC
  5
117
100
AcDbEntity
  8
0
  6
CONTINUOUS
 62
    0
370
   -1
100
AcDbCircle
 10
149.9999999999636
 20
-669.7948502120526
 40
69.9999999999999
100
AcDbArc
 50
180
 51
270
  0
LINE
  5
118
100
AcDbEntity
  8
0
  6
CONTINUOUS
 62
    0
370
   -1
100
AcDbLine
 10
172.9092912846681
 20
-590.93864126671
 11
149.9999999999636
 21
-739.7948502120453
  0
LINE
  5
119
100
AcDbEntity
  8
0
  6
CONTINUOUS
 62
    0
370
   -1
100
AcDbLine
 10
355.6203088831171
 20
-610.3505039955053
 11
428.8976665037335
 21
-748.1651697832622
  0
ARC
  5
11A
100
AcDbEntity
  8
0
  6
CONTINUOUS
 62
    0
370
   -1
100
AcDbCircle
 10
349.5388903313651
 20
1258.210773396355
 40
2007.944780297881
100
AcDbArc
 50
264.2968364977883
 51
272.2650560661939
  0
ARC
  5
11B
100
AcDbEntity
  8
0
  6
CONTINUOUS
 62
    0
370
   -1
100
AcDbCircle
 10
92.82800169069378
 20
-599.6564616230335
 40
25
100
AcDbArc
 50
62.96081709801931
 51
146.0897320083072
  0
ARC
  5
11C
100
AcDbEntity
  8
0
  6
CONTINUOUS
 62
    0
370
   -1
100
AcDbCircle
 10
80.01852370752749
 20
-624.7540324001966
 40
53.17748720372202
100
AcDbArc
 50
51.00171601785479
 51
62.96081709801931
  0
ARC
  5
11D
100
AcDbEntity
  8
0
  6
CONTINUOUS
 62
    0
370
   -1
100
AcDbCircle
 10
182.2196492797157
 20
-659.7484123644281
 40
132.7121590285228
100
AcDbArc
 50
146.0897320083072
 51
185.6131649943564
  0
ARC
  5
11E
100
AcDbEntity
  8
0
  6
CONTINUOUS
 62
    0
370
   -1
100
AcDbCircle
 10
130.2133790771477
 20
-602.0030444102285
 40
25
100
AcDbArc
 50
70.00000000001968
 51
132.0066337098348
  0
ARC
  5
11F
100
AcDbEntity
  8
0
  6
CONTINUOUS
 62
    0
370
   -1
100
AcDbCircle
 10
149.9999999999636
 20
-669.7948502120526
 40
100
100
AcDbArc
 50
180
 51
271.1753804797171
  0
LINE
  5
120
100
AcDbEntity
  8
0
  6
CONTINUOUS
 62
    0
370
   -1
100
AcDbLine
 10
172.9092912846681
 20
-590.93864126671
 11
138.7638826602852
 21
-578.5107288905747
  0
ARC
  5
121
100
AcDbEntity
  8
0
  6
CONTINUOUS
 62
    0
370
   -1
100
AcDbCircle
 10
350.0000000000437
 20
1178.138705228774
 40
2007.918945564398
100
AcDbArc
 50
264.2835395457564
 51
274.1819881692986
  0
ARC
  5
122
100
AcDbEntity
  8
0
  6
CONTINUOUS
 62
    0
370
   -1
100
AcDbCircle
 10
350.0000000000437
 20
1178.138705228774
 40
1957.918945564398
100
AcDbArc
 50
264.2835395457564
 51
274.1343419065825
  0
ARC
  5
123
100
AcDbEntity
  8
0
  6
CONTINUOUS
 62
    0
370
   -1
100
AcDbCircle
 10
374.0563145684355
 20
-602.4224984393986
 40
20
100
AcDbArc
 50
139.3038989213179
 51
208.000000000064
  0
ARC
  5
124
100
AcDbEntity
  8
0
  6
CONTINUOUS
 62
    0
370
   -1
100
AcDbCircle
 10
337.9613570259316
 20
-619.7399352512202
 40
20
100
AcDbArc
 50
27.99999999997199
 51
89.61635167738757
  0
ARC
  5
125
100
AcDbEntity
  8
0
  6
CONTINUOUS
 62
    0
370
   -1
100
AcDbCircle
 10
350.0000000000437
 20
1178.138705228774
 40
1777.918945564398
100
AcDbArc
 50
264.2835395457564
 51
269.6163516773875
  0
ARC
  5
126
100
AcDbEntity
  8
0
  6
CONTINUOUS
 62
    0
370
   -1
100
AcDbCircle
 10
149.9999999999636
 20
-669.7948502120526
 40
150
100
AcDbArc
 50
180
 51
271.1753804797171
  0
ARC
  5
127
100
AcDbEntity
  8
0
  6
CONTINUOUS
 62
    0
370
   -1
100
AcDbCircle
 10
726.0448502120344
 20
4.99999999996362
 40
36.24999999999459
100
AcDbArc
 50
136.397181027397
 51
223.602818972603
  0
ARC
  5
128
100
AcDbEntity
  8
0
  6
CONTINUOUS
 62
    0
370
   -1
100
AcDbCircle
 10
726.0448502120344
 20
4.99999999996362
 40
56.24999999999459
100
AcDbArc
 50
153.612200038681
 51
206.666564547546
  0
ARC
  5
129
100
AcDbEntity
  8
0
  6
CONTINUOUS
 62
    0
370
   -1
100
AcDbCircle
 10
699.7948502120416
 20
-120.0000000000182
 40
69.99999999999999
100
AcDbArc
 50
0
 51
90
  0
LINE
  5
12A
100
AcDbEntity
  8
0
  6
CONTINUOUS
 62
    0
370
   -1
100
AcDbLine
 10
620.9386412666936
 20
-142.9092912847173
 11
769.7948502120416
 21
-120.0000000000182
  0
ARC
  5
12B
100
AcDbEntity
  8
0
  6
CONTINUOUS
 62
    0
370
   -1
100
AcDbCircle
 10
689.7484123644099
 20
-152.2196492797611
 40
102.7121590285229
100
AcDbArc
 50
84.38683500551952
 51
137.9933662900258
  0
LINE
  5
12C
100
AcDbEntity
  8
0
  6
CONTINUOUS
 62
    0
370
   -1
100
AcDbLine
 10
640.3505039954835
 20
-325.6203088831517
 11
778.1651697832276
 21
-398.8976665037844
  0
ARC
  5
12D
100
AcDbEntity
  8
0
  6
CONTINUOUS
 62
    0
370
   -1
100
AcDbCircle
 10
-1228.210773396771
 20
-319.5388903312905
 40
2007.94478029827
100
AcDbArc
 50
357.7349439339144
 51
5.703163502398397
  0
ARC
  5
12E
100
AcDbEntity
  8
0
  6
CONTINUOUS
 62
    0
370
   -1
100
AcDbCircle
 10
699.7948502120416
 20
-120.0000000000182
 40
150
100
AcDbArc
 50
0
 51
90
  0
ARC
  5
12F
100
AcDbEntity
  8
0
  6
CONTINUOUS
 62
    0
370
   -1
100
AcDbCircle
 10
699.5454762758527
 20
-120.5934155869454
 40
100.593724688989
100
AcDbArc
 50
357.5005538796591
 51
89.85796242509615
  0
LINE
  5
130
100
AcDbEntity
  8
0
  6
CONTINUOUS
 62
    0
370
   -1
100
AcDbLine
 10
620.9386412666936
 20
-142.9092912847173
 11
608.510728890571
 21
-108.7638826603306
  0
ARC
  5
131
100
AcDbEntity
  8
0
  6
CONTINUOUS
 62
    0
370
   -1
100
AcDbCircle
 10
632.0030444102231
 20
-100.2133790772023
 40
25
100
AcDbArc
 50
137.9933662900258
 51
200.0000000000159
  0
ARC
  5
132
100
AcDbEntity
  8
0
  6
CONTINUOUS
 62
    0
370
   -1
100
AcDbCircle
 10
689.3209018467387
 20
-151.2607698522188
 40
131.6779909345203
100
AcDbArc
 50
85.43775193767469
 51
123.9886578653978
  0
ARC
  5
133
100
AcDbEntity
  8
0
  6
CONTINUOUS
 62
    0
370
   -1
100
AcDbCircle
 10
654.7540324001966
 20
-50.01852370756751
 40
53.17748720372202
100
AcDbArc
 50
207.039182902119
 51
218.9982839823072
  0
ARC
  5
134
100
AcDbEntity
  8
0
  6
CONTINUOUS
 62
    0
370
   -1
100
AcDbCircle
 10
629.6564616230244
 20
-62.82800169073926
 40
25
100
AcDbArc
 50
123.9102679918375
 51
207.039182902119
  0
ARC
  5
135
100
AcDbEntity
  8
0
  6
CONTINUOUS
 62
    0
370
   -1
100
AcDbCircle
 10
-1148.138705228797
 20
-319.9999999999745
 40
1957.918945564398
100
AcDbArc
 50
355.8656580932246
 51
5.716460454150229
  0
ARC
  5
136
100
AcDbEntity
  8
0
  6
CONTINUOUS
 62
    0
370
   -1
100
AcDbCircle
 10
-1148.138705228797
 20
-319.9999999999745
 40
2007.918945564398
100
AcDbArc
 50
355.8180118305974
 51
5.716460454150229
  0
ARC
  5
137
100
AcDbEntity
  8
0
  6
CONTINUOUS
 62
    0
370
   -1
100
AcDbCircle
 10
649.7399352513094
 20
-307.9613570259626
 40
20
100
AcDbArc
 50
180.3836483227173
 51
242.000000000077
  0
ARC
  5
138
100
AcDbEntity
  8
0
  6
CONTINUOUS
 62
    0
370
   -1
100
AcDbCircle
 10
632.422498439475
 20
-344.0563145684755
 40
20
100
AcDbArc
 50
62.00000000002801
 51
130.6961010788291
  0
ARC
  5
139
100
AcDbEntity
  8
0
  6
CONTINUOUS
 62
    0
370
   -1
100
AcDbCircle
 10
-1148.138705228797
 20
-319.9999999999745
 40
1777.918945564398
100
AcDbArc
 50
0.3836483227173564
 51
5.716460454150229
  0
ENDBLK
  5
65
330
63
100
AcDbEntity
  8
0
100
AcDbBlockEnd
  0
BLOCK
  5
67
330
66
100
AcDbEntity
  8
0
100
AcDbBlockBegin
  2
sofa043
 70
    0
 10
0
 20
0
  3
sofa043
  1

  0
LWPOLYLINE
  5
13A
100
AcDbEntity
  8
0
  6
ByLayer
 62
    0
370
   -1
100
AcDbPolyline
 90
    4
 70
    0
 43
0
 10
398.2794285013442
 20
-283.285575603888
 42
0.1655406298837506
 10
341.7552737340594
 20
-329.3965631683568
 42
0.4259891687143784
 10
688.0299857771569
 20
-531.8615213054181
 42
0.1215233233290524
 10
710.0587743725646
 20
-457.5864084104496
 42
0.1215233233290524
  0
LWPOLYLINE
  5
13B
100
AcDbEntity
  8
0
  6
ByLayer
 62
    0
370
   -1
100
AcDbPolyline
 90
    3
 70
    0
 43
0
 10
401.4696625280594
 20
-308.4688235394624
 42
-0.3567723648219201
 10
488.7491005876709
 20
-138.7855598173901
 42
-0.2495420503229877
 10
621.1356774318283
 20
-239.3484461976041
 42
-0.2495420503229877
  0
LWPOLYLINE
  5
13C
100
AcDbEntity
  8
0
  6
ByLayer
 62
    0
370
   -1
100
AcDbPolyline
 90
    2
 70
    0
 43
0
 10
303.0633343483896
 20
-793.360964290544
 42
0.2822682817089064
 10
-252.0993807033773
 20
-764.4084456494729
 42
0.2822682817089064
  0
ARC
  5
13D
100
AcDbEntity
  8
0
  6
ByLayer
 62
    0
370
   -1
100
AcDbCircle
 10
0
 20
-1267.499999999999
 40
1267.499999999999
100
AcDbArc
 50
54.83711882507966
 51
119.192178799547
  0
ARC
  5
13E
100
AcDbEntity
  8
0
  6
ByLayer
 62
    0
370
   -1
100
AcDbCircle
 10
494.5322309413514
 20
-495.6359799291495
 40
228.9781132718783
100
AcDbArc
 50
0.2389257413842511
 51
11.45489358284105
  0
LWPOLYLINE
  5
13F
100
AcDbEntity
  8
0
  6
ByLayer
 62
    0
370
   -1
100
AcDbPolyline
 90
    3
 70
    0
 43
0
 10
609.4451487618098
 20
-238.2990780031414
 42
-0.3066634949017499
 10
761.4025288054818
 20
-353.8573322712364
 42
-0.3063299663357474
 10
679.6076823752064
 20
-474.8869670388668
 42
-0.3063299663357474
  0
ARC
  5
140
100
AcDbEntity
  8
0
  6
ByLayer
 62
    0
370
   -1
100
AcDbCircle
 10
774.2048043976611
 20
-446.438597890894
 40
69.98194409293434
100
AcDbArc
 50
214.6860456668838
 51
2.946070930491666
  0
ARC
  5
141
100
AcDbEntity
  8
0
  6
ByLayer
 62
    0
370
   -1
100
AcDbCircle
 10
494.5322309413514
 20
-495.6359799291495
 40
353.9781132718783
100
AcDbArc
 50
237.254662323462
 51
48.31135942289185
  0
ARC
  5
142
100
AcDbEntity
  8
0
  6
ByLayer
 62
    0
370
   -1
100
AcDbCircle
 10
-411.5602733733813
 20
-448.3819777952694
 40
228.9781132718783
100
AcDbArc
 50
167.8032401689648
 51
173.7903718832022
  0
LWPOLYLINE
  5
143
100
AcDbEntity
  8
0
  6
ByLayer
 62
    0
370
   -1
100
AcDbPolyline
 90
    3
 70
    0
 43
0
 10
-500.3836676059182
 20
-205.4539138632909
 42
0.30666349490175
 10
-663.5370708231385
 20
-304.5786963239134
 42
0.306329966335747
 10
-594.7754356652804
 20
-433.4600639646833
 42
0.306329966335747
  0
ARC
  5
144
100
AcDbEntity
  8
0
  6
ByLayer
 62
    0
370
   -1
100
AcDbCircle
 10
-684.5981759391925
 20
-370.3599648401978
 40
69.98194409293434
100
AcDbArc
 50
171.0832266941605
 51
319.3432519577051
  0
LWPOLYLINE
  5
145
100
AcDbEntity
  8
0
  6
ByLayer
 62
    0
370
   -1
100
AcDbPolyline
 90
    3
 70
    0
 43
0
 10
-319.2861778263905
 20
-165.8480535109666
 42
0.1160020330167478
 10
-369.9909822678183
 20
-119.0350272881969
 42
0.2495420503229878
 10
-512.1199328565599
 20
-205.2815417115444
 42
0.2495420503229878
  0
LWPOLYLINE
  5
146
100
AcDbEntity
  8
0
  6
ByLayer
 62
    0
370
   -1
100
AcDbPolyline
 90
    3
 70
    0
 43
0
 10
-369.9909822678183
 20
-119.0350272881969
 42
0.1477298758543701
 10
-500.8859391453789
 20
-226.7667298788665
 42
0.2133427585932453
 10
-663.5370708231385
 20
-304.5786963239133
 42
0.2133427585932453
  0
ARC
  5
147
100
AcDbEntity
  8
0
  6
ByLayer
 62
    0
370
   -1
100
AcDbCircle
 10
0
 20
-1267.499999999999
 40
1142.499999999999
100
AcDbArc
 50
94.666582669318
 51
97.76560481403936
  0
LWPOLYLINE
  5
148
100
AcDbEntity
  8
0
  6
ByLayer
 62
    0
370
   -1
100
AcDbPolyline
 90
    3
 70
    0
 43
0
 10
102.5277464040028
 20
-242.8106328881931
 42
0.3567723648219202
 10
33.37221849082927
 20
-64.96906504078109
 42
0.2495420503229878
 10
-108.7567320979124
 20
-151.2155794641285
 42
0.2495420503229878
  0
ARC
  5
149
100
AcDbEntity
  8
0
  6
ByLayer
 62
    0
370
   -1
100
AcDbCircle
 10
0
 20
-1267.499999999999
 40
1142.499999999999
100
AcDbArc
 50
68.58837137279659
 51
85.27750400306708
  0
LWPOLYLINE
  5
14A
100
AcDbEntity
  8
0
  6
ByLayer
 62
    0
370
   -1
100
AcDbPolyline
 90
    3
 70
    0
 43
0
 10
-174.0976746338547
 20
-445.682542292794
 42
-0.2485204594219659
 10
-433.0140175617582
 20
-473.397495310617
 42
-0.1215233233290521
 10
-447.1972140968101
 20
-397.2338763144762
 42
-0.1215233233290521
  0
LWPOLYLINE
  5
14B
100
AcDbEntity
  8
0
  6
ByLayer
 62
    0
370
   -1
100
AcDbPolyline
 90
    3
 70
    0
 43
0
 10
33.37221849082927
 20
-64.96906504078112
 42
0.1477298758543701
 10
-97.52273838672956
 20
-172.7007676314488
 42
0.2133427585932453
 10
-260.1738700644928
 20
-250.5127340764956
 42
0.2133427585932453
  0
LWPOLYLINE
  5
14C
100
AcDbEntity
  8
0
  6
ByLayer
 62
    0
370
   -1
100
AcDbPolyline
 90
    4
 70
    0
 43
0
 10
108.3202333003701
 20
-218.0958465187896
 42
-0.1655406298837506
 10
159.7412958642707
 20
-269.8363294226639
 42
-0.4259891687143784
 10
-205.715337174741
 20
-435.1834940241806
 42
-0.1215233233290522
 10
-219.8985337097911
 20
-359.0198750280397
 42
-0.1215233233290522
  0
LWPOLYLINE
  5
14D
100
AcDbEntity
  8
0
  6
ByLayer
 62
    0
370
   -1
100
AcDbPolyline
 90
    3
 70
    0
 43
0
 10
-97.02046684727246
 20
-151.387951615874
 42
0.3066634949017499
 10
-260.1738700644928
 20
-250.5127340764957
 42
0.306329966335747
 10
-191.412234906633
 20
-379.3941017172674
 42
0.306329966335747
  0
LWPOLYLINE
  5
14E
100
AcDbEntity
  8
0
  6
ByLayer
 62
    0
370
   -1
100
AcDbPolyline
 90
    3
 70
    0
 43
0
 10
-394.099077197021
 20
-485.7376892194843
 42
-0.201080814056447
 10
-609.0785379333884
 20
-489.2494562715964
 42
-0.1215233233290521
 10
-623.2617344684386
 20
-413.0858372754547
 42
-0.1215233233290521
  0
LWPOLYLINE
  5
14F
100
AcDbEntity
  8
0
  6
ByLayer
 62
    0
370
   -1
100
AcDbPolyline
 90
    3
 70
    0
 43
0
 10
-324.3191472342896
 20
-189.6019529023106
 42
0.3066634949017499
 10
-487.47255045151
 20
-288.7267353629331
 42
0.306329966335747
 10
-418.71091529365
 20
-417.6081030037038
 42
0.306329966335747
  0
ARC
  5
150
100
AcDbEntity
  8
0
  6
ByLayer
 62
    0
370
   -1
100
AcDbCircle
 10
-411.5602733733813
 20
-448.3819777952694
 40
353.9781132718783
100
AcDbArc
 50
125.7179382017026
 51
296.7746353011068
  0
LWPOLYLINE
  5
151
100
AcDbEntity
  8
0
  6
ByLayer
 62
    0
370
   -1
100
AcDbPolyline
 90
    3
 70
    0
 43
0
 10
-193.9264618961915
 20
-103.1830663272177
 42
0.1477298758543701
 10
-324.8214187737503
 20
-210.9147689178853
 42
0.2133427585932453
 10
-487.4725504515101
 20
-288.726735362933
 42
0.2133427585932453
  0
LWPOLYLINE
  5
152
100
AcDbEntity
  8
0
  6
ByLayer
 62
    0
370
   -1
100
AcDbPolyline
 90
    3
 70
    0
 43
0
 10
-140.1286087644748
 20
-154.7641819075097
 42
0.1255668573120518
 10
-193.9264618961915
 20
-103.1830663272177
 42
0.2495420503229878
 10
-336.0554124849315
 20
-189.429580750565
 42
0.2495420503229878
  0
ENDBLK
  5
68
330
66
100
AcDbEntity
  8
0
100
AcDbBlockEnd
  0
BLOCK
  5
6A
330
69
100
AcDbEntity
  8
0
100
AcDbBlockBegin
  2
table r 343
 70
    0
 10
0
 20
0
  3
table r 343
  1

  0
CIRCLE
  5
153
100
AcDbEntity
  8
0
  6
ByLayer
 62
    0
370
   -1
100
AcDbCircle
 10
0
 20
0
 40
400
  0
CIRCLE
  5
154
100
AcDbEntity
  8
0
  6
ByLayer
 62
    0
370
   -1
100
AcDbCircle
 10
0
 20
278.738777180668
 40
19.41318875134311
  0
CIRCLE
  5
155
100
AcDbEntity
  8
0
  6
ByLayer
 62
    0
370
   -1
100
AcDbCircle
 10
0
 20
-346.9219064829522
 40
19.41318875134311
  0
LINE
  5
156
100
AcDbEntity
  8
0
  6
ByLayer
 62
    0
370
   -1
100
AcDbLine
 10
-330.2824384176638
 20
-10
 11
330.2824384176638
 21
-10
  0
LINE
  5
157
100
AcDbEntity
  8
0
  6
ByLayer
 62
    0
370
   -1
100
AcDbLine
 10
-330.2824384176638
 20
10
 11
330.2824384176638
 21
10
  0
CIRCLE
  5
158
100
AcDbEntity
  8
0
  6
ByLayer
 62
    0
370
   -1
100
AcDbCircle
 10
-306.1439437858062
 20
0
 40
5
  0
LINE
  5
159
100
AcDbEntity
  8
0
  6
ByLayer
 62
    0
370
   -1
100
AcDbLine
 10
-10
 20
-330.2824384176929
 11
-10
 21
-10
  0
LINE
  5
15A
100
AcDbEntity
  8
0
  6
ByLayer
 62
    0
370
   -1
100
AcDbLine
 10
10
 20
-330.2824384176929
 11
10
 21
-10
  0
CIRCLE
  5
15B
100
AcDbEntity
  8
0
  6
ByLayer
 62
    0
370
   -1
100
AcDbCircle
 10
0
 20
-238.1114373347373
 40
5
  0
CIRCLE
  5
15C
100
AcDbEntity
  8
0
  6
ByLayer
 62
    0
370
   -1
100
AcDbCircle
 10
0
 20
226.7769729600113
 40
5
  0
LINE
  5
15D
100
AcDbEntity
  8
0
  6
ByLayer
 62
    0
370
   -1
100
AcDbLine
 10
10
 20
10
 11
10
 21
262.0993091154087
  0
LINE
  5
15E
100
AcDbEntity
  8
0
  6
ByLayer
 62
    0
370
   -1
100
AcDbLine
 10
-10
 20
10
 11
-10
 21
262.0993091154087
  0
LINE
  5
15F
100
AcDbEntity
  8
0
  6
ByLayer
 62
    0
370
   -1
100
AcDbLine
 10
-330.2824384176638
 20
10
 11
-330.2824384176638
 21
-10
  0
CIRCLE
  5
160
100
AcDbEntity
  8
0
  6
ByLayer
 62
    0
370
   -1
100
AcDbCircle
 10
306.1439437856898
 20
0
 40
5
  0
LINE
  5
161
100
AcDbEntity
  8
0
  6
ByLayer
 62
    0
370
   -1
100
AcDbLine
 10
330.2824384176638
 20
10
 11
330.2824384176638
 21
-10
  0
ENDBLK
  5
6B
330
69
100
AcDbEntity
  8
0
100
AcDbBlockEnd
  0
BLOCK
  5
6D
330
6C
100
AcDbEntity
  8
0
100
AcDbBlockBegin
  2
table 047
 70
    0
 10
0
 20
0
  3
table 047
  1

  0
ARC
  5
162
100
AcDbEntity
  8
0
  6
ByLayer
 62
    0
370
   -1
100
AcDbCircle
 10
375.0000000000055
 20
1211.25
 40
1431.250000000008
100
AcDbArc
 50
255.8452614701175
 51
284.1547385298824
  0
ARC
  5
163
100
AcDbEntity
  8
0
  6
ByLayer
 62
    0
370
   -1
100
AcDbCircle
 10
374.999999999889
 20
-1211.25
 40
1431.249999999993
100
AcDbArc
 50
75.84526147011758
 51
104.1547385298824
  0
LINE
  5
164
100
AcDbEntity
  8
0
  6
ByLayer
 62
    0
370
   -1
100
AcDbLine
 10
24.99999999988904
 20
176.5455766249797
 11
24.99999999988904
 21
-176.5455766250379
  0
ARC
  5
165
100
AcDbEntity
  8
0
  6
ByLayer
 62
    0
370
   -1
100
AcDbCircle
 10
635.8668125172899
 20
0
 40
635.8668125172899
100
AcDbArc
 50
164.9193849925836
 51
195.0806150074164
  0
LINE
  5
166
100
AcDbEntity
  8
0
  6
ByLayer
 62
    0
370
   -1
100
AcDbLine
 10
107.465812536544
 20
-194.7734781248728
 11
77.26861460251348
 21
-252.6706746643176
  0
ARC
  5
167
100
AcDbEntity
  8
0
  6
ByLayer
 62
    0
370
   -1
100
AcDbCircle
 10
375.0000000000055
 20
1211.25
 40
1421.250000000008
100
AcDbArc
 50
255.6145379151151
 51
255.7435682211527
  0
LINE
  5
168
100
AcDbEntity
  8
0
  6
ByLayer
 62
    0
370
   -1
100
AcDbLine
 10
92.11680236133361
 20
-191.7659154456342
 11
63.9688966714366
 21
-245.7339965722058
  0
ARC
  5
169
100
AcDbEntity
  8
0
  6
ByLayer
 62
    0
370
   -1
100
AcDbCircle
 10
70.61875563697504
 20
-249.2023356182617
 40
7.500000000001908
100
AcDbArc
 50
152.4549949117888
 51
332.4549949117888
  0
ARC
  5
16A
100
AcDbEntity
  8
0
  6
ByLayer
 62
    0
370
   -1
100
AcDbCircle
 10
70.61875563697504
 20
-249.2023356182617
 40
20
100
AcDbArc
 50
84.47930775000276
 51
40.43068207644438
  0
LINE
  5
16B
100
AcDbEntity
  8
0
  6
ByLayer
 62
    0
370
   -1
100
AcDbLine
 10
107.465812536544
 20
194.7734781247564
 11
77.26861460251348
 21
252.6706746642594
  0
ARC
  5
16C
100
AcDbEntity
  8
0
  6
ByLayer
 62
    0
370
   -1
100
AcDbCircle
 10
375.0000000000055
 20
-1211.25
 40
1421.249999999993
100
AcDbArc
 50
104.2564317788473
 51
104.3854620848849
  0
LINE
  5
16D
100
AcDbEntity
  8
0
  6
ByLayer
 62
    0
370
   -1
100
AcDbLine
 10
92.11680236133361
 20
191.765915445576
 11
63.9688966714366
 21
245.7339965720894
  0
ARC
  5
16E
100
AcDbEntity
  8
0
  6
ByLayer
 62
    0
370
   -1
100
AcDbCircle
 10
70.61875563697504
 20
249.2023356182035
 40
20
100
AcDbArc
 50
319.5693179235556
 51
275.5206922499972
  0
ARC
  5
16F
100
AcDbEntity
  8
0
  6
ByLayer
 62
    0
370
   -1
100
AcDbCircle
 10
70.61875563697504
 20
249.2023356182035
 40
7.500000000001908
100
AcDbArc
 50
27.54500508821114
 51
207.5450050882111
  0
LINE
  5
170
100
AcDbEntity
  8
0
  6
ByLayer
 62
    0
370
   -1
100
AcDbLine
 10
724.999999999889
 20
176.5455766249797
 11
724.999999999889
 21
-176.5455766250379
  0
ARC
  5
171
100
AcDbEntity
  8
0
  6
ByLayer
 62
    0
370
   -1
100
AcDbCircle
 10
114.1331874826046
 20
0
 40
635.8668125172899
100
AcDbArc
 50
344.9193849925836
 51
15.08061500741636
  0
ARC
  5
172
100
AcDbEntity
  8
0
  6
ByLayer
 62
    0
370
   -1
100
AcDbCircle
 10
375.0000000000055
 20
1211.25
 40
1421.250000000008
100
AcDbArc
 50
284.2564317788473
 51
284.3854620848849
  0
LINE
  5
173
100
AcDbEntity
  8
0
  6
ByLayer
 62
    0
370
   -1
100
AcDbLine
 10
642.5341874633505
 20
-194.7734781248728
 11
672.731385397381
 21
-252.6706746643176
  0
LINE
  5
174
100
AcDbEntity
  8
0
  6
ByLayer
 62
    0
370
   -1
100
AcDbLine
 10
657.8831976385609
 20
-191.7659154456342
 11
686.0311033284579
 21
-245.7339965722058
  0
ARC
  5
175
100
AcDbEntity
  8
0
  6
ByLayer
 62
    0
370
   -1
100
AcDbCircle
 10
679.3812443629195
 20
-249.2023356182617
 40
20
100
AcDbArc
 50
139.5693179235556
 51
95.52069224999725
  0
ARC
  5
176
100
AcDbEntity
  8
0
  6
ByLayer
 62
    0
370
   -1
100
AcDbCircle
 10
679.3812443629195
 20
-249.2023356182617
 40
7.500000000001908
100
AcDbArc
 50
207.5450050882111
 51
27.54500508821114
  0
ARC
  5
177
100
AcDbEntity
  8
0
  6
ByLayer
 62
    0
370
   -1
100
AcDbCircle
 10
374.999999999889
 20
-1211.25
 40
1421.249999999993
100
AcDbArc
 50
75.61453791511509
 51
75.74356822115267
  0
LINE
  5
178
100
AcDbEntity
  8
0
  6
ByLayer
 62
    0
370
   -1
100
AcDbLine
 10
657.8831976385609
 20
191.765915445576
 11
686.0311033284579
 21
245.7339965720894
  0
ARC
  5
179
100
AcDbEntity
  8
0
  6
ByLayer
 62
    0
370
   -1
100
AcDbCircle
 10
679.3812443629195
 20
249.2023356182035
 40
20
100
AcDbArc
 50
264.4793077500028
 51
220.4306820764444
  0
LINE
  5
17A
100
AcDbEntity
  8
0
  6
ByLayer
 62
    0
370
   -1
100
AcDbLine
 10
642.5341874633505
 20
194.7734781247564
 11
672.731385397381
 21
252.6706746642594
  0
ARC
  5
17B
100
AcDbEntity
  8
0
  6
ByLayer
 62
    0
370
   -1
100
AcDbCircle
 10
679.3812443629195
 20
249.2023356182035
 40
7.500000000001908
100
AcDbArc
 50
332.4549949117888
 51
152.4549949117888
  0
ENDBLK
  5
6E
330
6C
100
AcDbEntity
  8
0
100
AcDbBlockEnd
  0
ENDSEC
  0
SECTION
  2
ENTITIES
  0
CIRCLE
  5
17C
100
AcDbEntity
  8
0
  6
ByLayer
 62
    7
370
   -1
100
AcDbCircle
 10
1453.63202710378
 20
845.1002039807609
 40
63.26349340840412
  0
LINE
  5
17D
100
AcDbEntity
  8
0
  6
ByLayer
 62
    7
370
   -1
100
AcDbLine
 10
1455.20702709931
 20
842.3722239556482
 11
1394.14110672403
 21
807.1157983886769
  0
LINE
  5
17E
100
AcDbEntity
  8
0
  6
ByLayer
 62
    7
370
   -1
100
AcDbLine
 10
1452.0570271008
 20
847.8281839984229
 11
1390.99110672552
 21
812.5717584314516
  0
CIRCLE
  5
17F
100
AcDbEntity
  8
0
  6
ByLayer
 62
    7
370
   -1
100
AcDbCircle
 10
1453.63202710378
 20
845.1002039807609
 40
147.4660563074632
  0
CIRCLE
  5
180
100
AcDbEntity
  8
0
  6
ByLayer
 62
    7
370
   -1
100
AcDbCircle
 10
1453.63202710378
 20
845.1002039807609
 40
70.58317558229203
  0
LWPOLYLINE
  5
181
100
AcDbEntity
  8
0
  6
ByLayer
 62
    7
370
   -1
100
AcDbPolyline
 90
    4
 70
    1
 43
0
 10
1223.632027111231
 20
615.100204111146
 10
1683.63202710378
 20
615.1002041968277
 10
1683.63202702928
 20
1075.100204193102
 10
1223.632027021829
 20
1075.100204111146
  0
LWPOLYLINE
  5
182
100
AcDbEntity
  8
0
  6
ByLayer
 62
    7
370
   -1
100
AcDbPolyline
 90
    4
 70
    1
 43
0
 10
1703.632027118691
 20
595.1002039993873
 10
1203.632027118691
 20
595.1002039621344
 10
1203.63202708143
 20
1095.100203962134
 10
1703.63202708143
 20
1095.100203999387
  0
LINE
  5
183
100
AcDbEntity
  8
0
  6
ByLayer
 62
    7
370
   -1
100
AcDbLine
 10
1455.20702709931
 20
847.8281839984229
 11
1516.27294748205
 21
812.5717584389022
  0
LINE
  5
184
100
AcDbEntity
  8
0
  6
ByLayer
 62
    7
370
   -1
100
AcDbLine
 10
1452.0570271008
 20
842.3722239556482
 11
1513.12294748354
 21
807.1157983961284
  0
LINE
  5
185
100
AcDbEntity
  8
0
  6
ByLayer
 62
    7
370
   -1
100
AcDbLine
 10
1456.78202710229
 20
845.1002039807609
 11
1456.78202709484
 21
915.6130551184287
  0
LINE
  5
186
100
AcDbEntity
  8
0
  6
ByLayer
 62
    7
370
   -1
100
AcDbLine
 10
1450.48202709782
 20
845.1002039807609
 11
1450.48202709782
 21
915.6130551184287
  0
LWPOLYLINE
  5
187
100
AcDbEntity
  8
0
  6
ByLayer
 62
    7
370
   -1
100
AcDbPolyline
 90
    6
 70
    0
 43
0
 10
765.26403620768
 20
1170.100203887629
 10
373.6320271261357
 20
1170.100203887629
 42
0.4142135623730951
 10
353.6320271261357
 20
1150.100203887629
 10
353.6320271261358
 20
1140.100203887629
 42
0.4142135623730951
 10
373.6320271261357
 20
1120.100203887629
 10
714.9170992739801
 20
1120.100203887629
  0
LWPOLYLINE
  5
188
100
AcDbEntity
  8
0
  6
ByLayer
 62
    7
370
   -1
100
AcDbPolyline
 90
    4
 70
    0
 43
0
 10
953.7408244751695
 20
847.5909501957467
 42
-0.1655406298837508
 10
922.8092364065704
 20
781.5270409482288
 42
-0.4259891687143795
 10
641.9995333247197
 20
1067.960534327734
 42
-0.1215233233290531
 10
708.6583720065988
 20
1107.440391828376
 42
-0.1215233233290531
  0
LWPOLYLINE
  5
189
100
AcDbEntity
  8
0
  6
ByLayer
 62
    7
370
   -1
100
AcDbPolyline
 90
    3
 70
    0
 43
0
 10
403.6320271261357
 20
1120.100203887629
 42
0.4142135623730951
 10
353.6320271261357
 20
1070.100203887629
 10
353.6320271261357
 20
570.1002038876286
  0
LWPOLYLINE
  5
18A
100
AcDbEntity
  8
0
  6
ByLayer
 62
    7
370
   -1
100
AcDbPolyline
 90
    2
 70
    0
 43
0
 10
303.6320271261357
 20
1120.100203887629
 42
-0.4142135623730951
 10
353.6320271261357
 20
1070.100203887629
 42
-0.4142135623730951
  0
LWPOLYLINE
  5
18B
100
AcDbEntity
  8
0
  6
ByLayer
 62
    7
370
   -1
100
AcDbPolyline
 90
    3
 70
    0
 43
0
 10
945.8633896552307
 20
1063.35167970981
 42
0.3066634949017523
 10
796.7314189888895
 20
1182.533938487129
 42
0.3063299663357452
 10
699.3076237582017
 20
1073.689216443407
 42
0.3063299663357452
  0
LWPOLYLINE
  5
18C
100
AcDbEntity
  8
0
  6
ByLayer
 62
    7
370
   -1
100
AcDbPolyline
 90
    3
 70
    0
 43
0
 10
953.6320271261393
 20
1071.838303444045
 10
953.6320271261393
 20
1170.100203887629
 10
848.4459020711802
 20
1170.100203887629
  0
LWPOLYLINE
  5
18D
100
AcDbEntity
  8
0
  6
ByLayer
 62
    7
370
   -1
100
AcDbPolyline
 90
    2
 70
    0
 43
0
 10
933.6320271186905
 20
1170.100203887629
 10
848.4459020711802
 20
1170.100203887629
  0
LWPOLYLINE
  5
18E
100
AcDbEntity
  8
0
  6
ByLayer
 62
    7
370
   -1
100
AcDbPolyline
 90
    5
 70
    0
 43
0
 10
915.4762238629501
 20
1120.100203887629
 10
933.6320271186905
 20
1120.100203887628
 42
0.4142135623730951
 10
953.6320271261375
 20
1140.100203887629
 10
953.6320271261383
 20
1150.100203887629
 42
0.414213562373095
 10
933.6320271186905
 20
1170.10020388763
 42
0.414213562373095
  0
LWPOLYLINE
  5
18F
100
AcDbEntity
  8
0
  6
ByLayer
 62
    7
370
   -1
100
AcDbPolyline
 90
    5
 70
    0
 43
0
 10
1103.632027126139
 20
770.1002038876286
 42
-0.4142135623730951
 10
1053.632027126139
 20
720.1002038876286
 10
1003.632027118691
 20
720.1002038876286
 42
-0.4142135623731004
 10
953.6320271261393
 20
770.1002038876286
 10
953.6320271261393
 20
847.5684058229199
  0
LWPOLYLINE
  5
190
100
AcDbEntity
  8
0
  6
ByLayer
 62
    7
370
   -1
100
AcDbPolyline
 90
    3
 70
    0
 43
0
 10
1071.8102807619
 20
970.5731424960065
 42
0.1477298758543702
 10
925.6746109567905
 20
1056.503204115736
 42
0.2133427585932453
 10
796.7314189888892
 20
1182.533938487129
 42
0.2133427585932453
  0
LWPOLYLINE
  5
191
100
AcDbEntity
  8
0
  6
ByLayer
 62
    7
370
   -1
100
AcDbPolyline
 90
    3
 70
    0
 43
0
 10
928.5400316112099
 20
844.5424081283388
 42
0.3567723648219197
 10
1071.810280761899
 20
970.5731424960065
 42
0.2495420503229869
 10
941.99428734112
 20
1074.433181480573
 42
0.2495420503229869
  0
LWPOLYLINE
  5
192
100
AcDbEntity
  8
0
  6
ByLayer
 62
    7
370
   -1
100
AcDbPolyline
 90
    3
 70
    0
 43
0
 10
1396.664488016851
 20
170.0082083875995
 42
-0.356772364821919
 10
1522.695222384509
 20
313.2784575345688
 42
-0.2495420503229883
 10
1626.55526136536
 20
183.4624641175142
 42
-0.2495420503229883
  0
LWPOLYLINE
  5
193
100
AcDbEntity
  8
0
  6
ByLayer
 62
    7
370
   -1
100
AcDbPolyline
 90
    3
 70
    0
 43
0
 10
1399.713030091711
 20
195.2090012515648
 42
0.1655406298837513
 10
1333.64912083674
 20
164.2774131717861
 42
0.2002311474195832
 10
1414.10861986804
 20
-34.20427048851411
 42
0.2002311474195832
  0
LWPOLYLINE
  5
194
100
AcDbEntity
  8
0
  6
ByLayer
 62
    7
370
   -1
100
AcDbPolyline
 90
    3
 70
    0
 43
0
 10
1396.6644880243
 20
-99.33985816214769
 42
-0.3567723648219196
 10
1522.69522239197
 20
43.9303909848197
 42
-0.249542050322986
 10
1626.555261372809
 20
-85.88560243595954
 42
-0.249542050322986
  0
LWPOLYLINE
  5
195
100
AcDbEntity
  8
0
  6
ByLayer
 62
    7
370
   -1
100
AcDbPolyline
 90
    4
 70
    0
 43
0
 10
1399.713030091711
 20
-74.1390652981828
 42
0.1655406298837504
 10
1333.649120844191
 20
-105.0706533779631
 42
0.4259891687143771
 10
1620.082614234871
 20
-385.8803564523591
 42
0.1215233233290527
 10
1659.562471731781
 20
-319.2215177704823
 42
0.1215233233290527
  0
LWPOLYLINE
  5
196
100
AcDbEntity
  8
0
  6
ByLayer
 62
    7
370
   -1
100
AcDbPolyline
 90
    5
 70
    0
 43
0
 10
1399.690485707701
 20
195.1002038988036
 10
1322.22228377986
 20
195.1002038950792
 42
-0.4142135623730951
 10
1272.222283772409
 20
245.1002038950792
 10
1272.222283772409
 20
295.1002038950792
 42
-0.4142135623730951
 10
1322.22228377986
 20
345.1002038950792
 42
-0.4142135623730951
  0
LWPOLYLINE
  5
197
100
AcDbEntity
  8
0
  6
ByLayer
 62
    7
370
   -1
100
AcDbPolyline
 90
    3
 70
    0
 43
0
 10
1522.695222384509
 20
313.2784575345686
 42
-0.1477298758543701
 10
1608.625284007971
 20
167.1427877331845
 42
-0.2133427585932456
 10
1734.656018375639
 20
38.19959577645569
 42
-0.2133427585932456
  0
LWPOLYLINE
  5
198
100
AcDbEntity
  8
0
  6
ByLayer
 62
    7
370
   -1
100
AcDbPolyline
 90
    2
 70
    0
 43
0
 10
1722.22228377986
 20
175.100203906255
 10
1722.22228377986
 20
89.91407885875014
  0
LWPOLYLINE
  5
199
100
AcDbEntity
  8
0
  6
ByLayer
 62
    7
370
   -1
100
AcDbPolyline
 90
    5
 70
    0
 43
0
 10
1672.22228377986
 20
156.9444006505182
 10
1672.222283772409
 20
175.100203906255
 42
-0.4142135623730951
 10
1692.22228377986
 20
195.100203906255
 10
1702.22228377986
 20
195.100203906255
 42
-0.4142135623730951
 10
1722.22228377986
 20
175.100203906255
 42
-0.4142135623730951
  0
LWPOLYLINE
  5
19A
100
AcDbEntity
  8
0
  6
ByLayer
 62
    7
370
   -1
100
AcDbPolyline
 90
    3
 70
    0
 43
0
 10
1722.22228377986
 20
89.91407885875014
 10
1722.22228377986
 20
195.100203906255
 10
1623.960383332549
 20
195.1002039025298
  0
LWPOLYLINE
  5
19B
100
AcDbEntity
  8
0
  6
ByLayer
 62
    7
370
   -1
100
AcDbPolyline
 90
    2
 70
    0
 43
0
 10
1722.222283787311
 20
6.732212995248119
 10
1722.222283787311
 20
-179.4339876947233
  0
LWPOLYLINE
  5
19C
100
AcDbEntity
  8
0
  6
ByLayer
 62
    7
370
   -1
100
AcDbPolyline
 90
    2
 70
    0
 43
0
 10
1722.222283787311
 20
-179.4339876947233
 10
1722.222283787311
 20
6.732212995248119
  0
LWPOLYLINE
  5
19D
100
AcDbEntity
  8
0
  6
ByLayer
 62
    7
370
   -1
100
AcDbPolyline
 90
    3
 70
    0
 43
0
 10
1615.473759605769
 20
-82.01650012184444
 42
-0.3066634949017503
 10
1734.656018383089
 20
-231.1484707732933
 42
-0.3063299663357452
 10
1625.81129634309
 20
-328.5722660151541
 42
-0.3063299663357452
  0
LWPOLYLINE
  5
19E
100
AcDbEntity
  8
0
  6
ByLayer
 62
    7
370
   -1
100
AcDbPolyline
 90
    2
 70
    0
 43
0
 10
1672.22228377986
 20
-112.4036659029553
 10
1672.22228377986
 20
-43.61472394962402
  0
LWPOLYLINE
  5
19F
100
AcDbEntity
  8
0
  6
ByLayer
 62
    7
370
   -1
100
AcDbPolyline
 90
    2
 70
    0
 43
0
 10
1640.01488745141
 20
-91.79278642956663
 42
0.07186537901034271
 10
1659.562471724329
 20
-49.87345121700826
 42
0.07186537901034271
  0
LWPOLYLINE
  5
1A0
100
AcDbEntity
  8
0
  6
ByLayer
 62
    7
370
   -1
100
AcDbPolyline
 90
    3
 70
    0
 43
0
 10
1615.473759598321
 20
187.3315664316294
 42
-0.306663494901752
 10
1734.656018375641
 20
38.19959577645562
 42
-0.3063299663357477
 10
1625.81129633564
 20
-59.22419946168165
 42
-0.3063299663357477
  0
LWPOLYLINE
  5
1A1
100
AcDbEntity
  8
0
  6
ByLayer
 62
    7
370
   -1
100
AcDbPolyline
 90
    3
 70
    0
 43
0
 10
1522.695222391971
 20
43.93039098482075
 42
-0.1477298758543705
 10
1608.625284015419
 20
-102.2052788165637
 42
-0.2133427585932448
 10
1734.656018383088
 20
-231.1484707732939
 42
-0.2133427585932448
  0
LWPOLYLINE
  5
1A2
100
AcDbEntity
  8
0
  6
ByLayer
 62
    7
370
   -1
100
AcDbPolyline
 90
    3
 70
    0
 43
0
 10
-396.3679728738643
 20
1120.100203887629
 42
-0.4142135623730951
 10
-346.3679728738643
 20
1070.100203887629
 10
-346.3679728738643
 20
570.1002038876286
  0
LWPOLYLINE
  5
1A3
100
AcDbEntity
  8
0
  6
ByLayer
 62
    7
370
   -1
100
AcDbPolyline
 90
    2
 70
    0
 43
0
 10
-296.3679728738643
 20
1120.100203887629
 42
0.4142135623730951
 10
-346.3679728738643
 20
1070.100203887629
 42
0.4142135623730951
  0
LWPOLYLINE
  5
1A4
100
AcDbEntity
  8
0
  6
ByLayer
 62
    7
370
   -1
100
AcDbPolyline
 90
    6
 70
    0
 43
0
 10
-488.6519154093839
 20
1170.100203887629
 10
-366.3679728738643
 20
1170.100203887629
 42
-0.4142135623730951
 10
-346.3679728738643
 20
1150.100203887629
 10
-346.3679728738645
 20
1140.100203887629
 42
-0.4142135623730951
 10
-366.3679728738643
 20
1120.100203887629
 10
-438.3049784682371
 20
1120.100203887629
  0
LWPOLYLINE
  5
1A5
100
AcDbEntity
  8
0
  6
ByLayer
 62
    7
370
   -1
100
AcDbPolyline
 90
    3
 70
    0
 43
0
 10
-946.4767702228992
 20
847.5909501957468
 42
0.1655406298837492
 10
-915.5451821542957
 20
781.5270409482298
 42
0.2002311474195828
 10
-717.0634984902716
 20
861.9865399720837
 42
0.2002311474195828
  0
LWPOLYLINE
  5
1A6
100
AcDbEntity
  8
0
  6
ByLayer
 62
    7
370
   -1
100
AcDbPolyline
 90
    3
 70
    0
 43
0
 10
-1064.546226509628
 20
970.5731424960067
 42
-0.1477298758543702
 10
-918.4105567045191
 20
1056.503204115736
 42
-0.2133427585932452
 10
-789.4673647440649
 20
1182.533938487129
 42
-0.2133427585932452
  0
LWPOLYLINE
  5
1A7
100
AcDbEntity
  8
0
  6
ByLayer
 62
    7
370
   -1
100
AcDbPolyline
 90
    3
 70
    0
 43
0
 10
-938.5993354029639
 20
1063.351679709809
 42
-0.3066634949017502
 10
-789.467364744065
 20
1182.53393848713
 42
-0.306329966335748
 10
-692.0435695059275
 20
1073.689216443407
 42
-0.306329966335748
  0
LWPOLYLINE
  5
1A8
100
AcDbEntity
  8
0
  6
ByLayer
 62
    7
370
   -1
100
AcDbPolyline
 90
    3
 70
    0
 43
0
 10
-841.18184783381
 20
1170.100203887629
 10
-946.3679728738643
 20
1170.100203887629
 10
-946.3679728738643
 20
1071.838303444045
  0
LWPOLYLINE
  5
1A9
100
AcDbEntity
  8
0
  6
ByLayer
 62
    7
370
   -1
100
AcDbPolyline
 90
    2
 70
    0
 43
0
 10
-926.3679728813149
 20
1170.100203887629
 10
-841.18184783381
 20
1170.100203887629
  0
LWPOLYLINE
  5
1AA
100
AcDbEntity
  8
0
  6
ByLayer
 62
    7
370
   -1
100
AcDbPolyline
 90
    5
 70
    0
 43
0
 10
-946.3679728738643
 20
847.5684058229199
 10
-946.3679728738643
 20
770.1002038876286
 42
-0.4142135623730951
 10
-996.3679728813149
 20
720.1002038876286
 10
-1046.367972873864
 20
720.1002038876286
 42
-0.4142135623730951
 10
-1096.367972873864
 20
770.1002038876286
 42
-0.4142135623730951
  0
LWPOLYLINE
  5
1AB
100
AcDbEntity
  8
0
  6
ByLayer
 62
    7
370
   -1
100
AcDbPolyline
 90
    3
 70
    0
 43
0
 10
-921.2759773589351
 20
844.5424081283384
 42
-0.3567723648219207
 10
-1064.546226509628
 20
970.5731424960065
 42
-0.2495420503229869
 10
-934.7302330888486
 20
1074.433181480573
 42
-0.2495420503229869
  0
LWPOLYLINE
  5
1AC
100
AcDbEntity
  8
0
  6
ByLayer
 62
    7
370
   -1
100
AcDbPolyline
 90
    5
 70
    0
 43
0
 10
-908.2121696255781
 20
1120.100203887629
 10
-926.3679728813149
 20
1120.100203887629
 42
-0.4142135623730951
 10
-946.3679728738643
 20
1140.100203887629
 10
-946.3679728738643
 20
1150.100203887629
 42
-0.414213562373095
 10
-926.3679728813149
 20
1170.100203887629
 42
-0.414213562373095
  0
LWPOLYLINE
  5
1AD
100
AcDbEntity
  8
0
  6
ByLayer
 62
    7
370
   -1
100
AcDbPolyline
 90
    2
 70
    0
 43
0
 10
-659.4749825380424
 20
1087.892807555454
 42
0.07186537901034293
 10
-701.3943177543262
 20
1107.440391828375
 42
0.07186537901034293
  0
LWPOLYLINE
  5
1AE
100
AcDbEntity
  8
0
  6
ByLayer
 62
    7
370
   -1
100
AcDbPolyline
 90
    2
 70
    0
 43
0
 10
-638.864103064654
 20
1120.100203887629
 10
-707.6530450217106
 20
1120.100203887629
  0
LWPOLYLINE
  5
1AF
100
AcDbEntity
  8
0
  6
ByLayer
 62
    7
370
   -1
100
AcDbPolyline
 90
    3
 70
    0
 43
0
 10
-651.9279108129122
 20
844.542408128338
 42
-0.356772364821921
 10
-795.1981599561545
 20
970.5731424960065
 42
-0.2495420503229869
 10
-665.3821665353752
 20
1074.433181480573
 42
-0.2495420503229869
  0
LWPOLYLINE
  5
1B0
100
AcDbEntity
  8
0
  6
ByLayer
 62
    7
370
   -1
100
AcDbPolyline
 90
    2
 70
    0
 43
0
 10
-571.833781272886
 20
1170.100203887629
 10
-757.9999819628574
 20
1170.100203887629
  0
LWPOLYLINE
  5
1B1
100
AcDbEntity
  8
0
  6
ByLayer
 62
    7
370
   -1
100
AcDbPolyline
 90
    2
 70
    0
 43
0
 10
-757.9999819628574
 20
1170.100203887629
 10
-571.833781272886
 20
1170.100203887629
  0
LWPOLYLINE
  5
1B2
100
AcDbEntity
  8
0
  6
ByLayer
 62
    7
370
   -1
100
AcDbPolyline
 90
    3
 70
    0
 43
0
 10
-795.1981599561547
 20
970.5731424960064
 42
-0.14772987585437
 10
-649.0624901584964
 20
1056.503204115736
 42
-0.2133427585932457
 10
-520.1192981905915
 20
1182.53393848713
 42
-0.2133427585932457
  0
LWPOLYLINE
  5
1B3
100
AcDbEntity
  8
0
  6
ByLayer
 62
    7
370
   -1
100
AcDbPolyline
 90
    4
 70
    0
 43
0
 10
-677.1287036768764
 20
847.5909501957467
 42
0.1655406298837497
 10
-646.1971156008223
 20
781.5270409482287
 42
0.4259891687143795
 10
-365.3874125189753
 20
1067.960534327733
 42
0.1215233233290528
 10
-432.0462512008523
 20
1107.440391828376
 42
0.1215233233290528
  0
LWPOLYLINE
  5
1B4
100
AcDbEntity
  8
0
  6
ByLayer
 62
    7
370
   -1
100
AcDbPolyline
 90
    3
 70
    0
 43
0
 10
-669.2512688569411
 20
1063.351679709809
 42
-0.3066634949017505
 10
-520.1192981905915
 20
1182.533938487129
 42
-0.3063299663357475
 10
-422.6955029599046
 20
1073.689216443407
 42
-0.3063299663357475
  0
LWPOLYLINE
  5
1B5
100
AcDbEntity
  8
0
  6
ByLayer
 62
    7
370
   -1
100
AcDbPolyline
 90
   14
 70
    1
 43
0
 10
1103.632027126138
 20
620.1002038876286
 42
-0.4142135623730921
 10
1003.632027118691
 20
520.1002038876286
 10
403.6320271261357
 20
520.1002038876281
 42
-0.4142135623730737
 10
353.6320271261353
 20
570.1002038876286
 42
-0.4142135623730951
 10
303.6320271261357
 20
520.1002038876286
 10
-296.3679728738643
 20
520.1002038876286
 42
-0.4142135623730951
 10
-346.3679728738635
 20
570.1002038876286
 42
-0.4142135623730898
 10
-396.3679728738643
 20
520.1002038876286
 10
-996.3679728813149
 20
520.1002038876287
 42
-0.4142135623730951
 10
-1096.367972873864
 20
620.1002038876286
 10
-1096.367972873863
 20
1220.100203887629
 42
-0.4142135623730951
 10
-996.3679728813149
 20
1320.100203887629
 10
1003.632027118691
 20
1320.100203887629
 42
-0.4142135623730951
 10
1103.632027126137
 20
1220.100203887629
  0
LWPOLYLINE
  5
1B6
100
AcDbEntity
  8
0
  6
ByLayer
 62
    7
370
   -1
100
AcDbPolyline
 90
    2
 70
    0
 43
0
 10
765.26403620768
 20
1170.100203887629
 10
-488.6519154093839
 20
1170.100203887629
  0
LWPOLYLINE
  5
1B7
100
AcDbEntity
  8
0
  6
ByLayer
 62
    7
370
   -1
100
AcDbPolyline
 90
    8
 70
    1
 43
0
 10
-326.3679728738643
 20
1170.100203887629
 10
333.6320271261357
 20
1170.100203887629
 42
-0.4142135623730951
 10
353.6320271261357
 20
1150.100203887629
 10
353.6320271261355
 20
1140.100203887629
 42
-0.4142135623730951
 10
333.6320271261357
 20
1120.100203887629
 10
-326.3679728738643
 20
1120.100203887629
 42
-0.4142135623730951
 10
-346.3679728738643
 20
1140.100203887629
 10
-346.3679728738643
 20
1150.100203887629
 42
-0.4142135623730951
  0
CIRCLE
  5
1B8
100
AcDbEntity
  8
0
  6
ByLayer
 62
    7
370
   -1
100
AcDbCircle
 10
-1446.367972873864
 20
845.1002038876286
 40
147.4660563074632
  0
CIRCLE
  5
1B9
100
AcDbEntity
  8
0
  6
ByLayer
 62
    7
370
   -1
100
AcDbCircle
 10
-1446.367972873864
 20
845.1002038876286
 40
70.58317558229203
  0
CIRCLE
  5
1BA
100
AcDbEntity
  8
0
  6
ByLayer
 62
    7
370
   -1
100
AcDbCircle
 10
-1446.367972873864
 20
845.1002038876286
 40
63.26349340840412
  0
LINE
  5
1BB
100
AcDbEntity
  8
0
  6
ByLayer
 62
    7
370
   -1
100
AcDbLine
 10
-1449.517972872374
 20
845.1002038876286
 11
-1449.517972872374
 21
915.6130550178459
  0
LINE
  5
1BC
100
AcDbEntity
  8
0
  6
ByLayer
 62
    7
370
   -1
100
AcDbLine
 10
-1443.217972875354
 20
845.1002038876286
 11
-1443.217972875354
 21
915.6130550178459
  0
LINE
  5
1BD
100
AcDbEntity
  8
0
  6
ByLayer
 62
    7
370
   -1
100
AcDbLine
 10
-1447.942972876845
 20
842.372223862516
 11
-1386.877052494106
 21
807.1157982955447
  0
LINE
  5
1BE
100
AcDbEntity
  8
0
  6
ByLayer
 62
    7
370
   -1
100
AcDbLine
 10
-1444.792972870884
 20
847.8281839052906
 11
-1383.727052503047
 21
812.5717583383193
  0
LINE
  5
1BF
100
AcDbEntity
  8
0
  6
ByLayer
 62
    7
370
   -1
100
AcDbLine
 10
-1447.942972876845
 20
847.8281839052906
 11
-1509.008893252132
 21
812.5717583383193
  0
LINE
  5
1C0
100
AcDbEntity
  8
0
  6
ByLayer
 62
    7
370
   -1
100
AcDbLine
 10
-1444.792972870884
 20
842.372223862516
 11
-1505.858893253622
 21
807.1157982955447
  0
LWPOLYLINE
  5
1C1
100
AcDbEntity
  8
0
  6
ByLayer
 62
    7
370
   -1
100
AcDbPolyline
 90
    3
 70
    0
 43
0
 10
-1642.248273507473
 20
289.0793012837635
 42
0.306663494901749
 10
-1749.707687162576
 20
154.6160490709117
 42
0.3063299663357482
 10
-1651.569003366647
 20
66.77492221917406
 42
0.3063299663357482
  0
LWPOLYLINE
  5
1C2
100
AcDbEntity
  8
0
  6
ByLayer
 62
    7
370
   -1
100
AcDbPolyline
 90
    3
 70
    0
 43
0
 10
-1558.595494054971
 20
402.6379735815098
 42
0.14772987585437
 10
-1636.073418476401
 20
270.8763041021998
 42
0.2133427585932459
 10
-1749.707687162576
 20
154.6160490709118
 42
0.2133427585932459
  0
LWPOLYLINE
  5
1C3
100
AcDbEntity
  8
0
  6
ByLayer
 62
    7
370
   -1
100
AcDbPolyline
 90
    4
 70
    0
 43
0
 10
-1447.70991084796
 20
296.1819064403639
 42
-0.1655406298837498
 10
-1388.144091040609
 20
268.2927696491352
 42
-0.4259891687143779
 10
-1646.403798186002
 20
15.10369313980863
 42
-0.121523323329052
 10
-1682.000391007182
 20
75.2059247317485
 42
-0.121523323329052
  0
LWPOLYLINE
  5
1C4
100
AcDbEntity
  8
0
  6
ByLayer
 62
    7
370
   -1
100
AcDbPolyline
 90
    3
 70
    0
 43
0
 10
-1513.087106809733
 20
-244.8997960639423
 42
-0.3727189106391234
 10
-1738.496942923186
 20
25.59200725431856
 10
-1738.496942923186
 20
30.1002039621344
  0
LWPOLYLINE
  5
1C5
100
AcDbEntity
  8
0
  6
ByLayer
 62
    7
370
   -1
100
AcDbPolyline
 90
    3
 70
    0
 43
0
 10
-1513.087106794832
 20
-244.8997960639426
 42
-0.4142135623801857
 10
-1783.578910135446
 20
25.59200725059418
 10
-1783.578910135446
 20
30.1002039621344
  0
LWPOLYLINE
  5
1C6
100
AcDbEntity
  8
0
  6
ByLayer
 62
    7
370
   -1
100
AcDbPolyline
 90
    3
 70
    0
 43
0
 10
-1728.782899387894
 20
111.4705998236995
 42
0.07238423636161044
 10
-1738.496942923186
 20
34.60840067739991
 10
-1738.496942923186
 20
30.1002039621344
  0
LWPOLYLINE
  5
1C7
100
AcDbEntity
  8
0
  6
ByLayer
 62
    7
370
   -1
100
AcDbPolyline
 90
    3
 70
    0
 43
0
 10
-1747.902125612614
 20
168.8757556388846
 42
0.1305914894705199
 10
-1783.578910135446
 20
34.60840067367462
 10
-1783.578910135446
 20
30.1002039621344
  0
LWPOLYLINE
  5
1C8
100
AcDbEntity
  8
0
  6
ByLayer
 62
    7
370
   -1
100
AcDbPolyline
 90
    3
 70
    0
 43
0
 10
-1444.961225383697
 20
273.4598800885251
 42
0.3567723648219209
 10
-1558.595494054971
 20
402.6379735815101
 42
0.2495420503229885
 10
-1652.239791498302
 20
285.5907664085499
 42
0.2495420503229885
  0
LWPOLYLINE
  5
1C9
100
AcDbEntity
  8
0
  6
ByLayer
 62
    7
370
   -1
100
AcDbPolyline
 90
   11
 70
    0
 43
0
 10
-1152.431369141457
 20
30.10020390998034
 10
-1152.431369156358
 20
-244.8997960676679
 42
-0.4142135630271041
 10
-1242.595303588329
 20
-335.0637304661104
 10
-1513.087106787382
 20
-335.0637304139563
 42
-0.4142135623801722
 10
-1873.742844485459
 20
25.59200724686889
 10
-1873.742844485459
 20
30.10020396585969
 10
-1873.742844485459
 20
34.60840067739995
 42
-0.4142135623801724
 10
-1513.087106787381
 20
395.2641383419495
 10
-1242.595303588329
 20
395.2641383866542
 42
-0.4142135630271039
 10
-1152.431369156358
 20
305.100203995662
 10
-1152.431369141457
 20
30.10020401428756
  0
LWPOLYLINE
  5
1CA
100
AcDbEntity
  8
0
  6
ByLayer
 62
    7
370
   -1
100
AcDbPolyline
 90
    5
 70
    0
 43
0
 10
-1513.091570705888
 20
-244.8997960266897
 10
-1242.595303588329
 20
-244.8997960453162
 42
-0.4142135623730951
 10
-1197.513336376069
 20
-289.9817632575759
 10
-1197.513336376069
 20
-289.9817632575759
 42
-0.4142135623730953
 10
-1242.595303588329
 20
-335.0637304661104
 42
-0.4142135623730953
  0
LWPOLYLINE
  5
1CB
100
AcDbEntity
  8
0
  6
ByLayer
 62
    7
370
   -1
100
AcDbPolyline
 90
    5
 70
    0
 43
0
 10
-1449.877860204098
 20
305.1002039584091
 10
-1242.595303588329
 20
305.100203969585
 42
0.4142135623730951
 10
-1197.513336376069
 20
350.1821711818448
 10
-1197.513336376069
 20
350.1821711818448
 42
0.414213562373095
 10
-1242.595303588329
 20
395.2641383866539
 42
0.414213562373095
  0
LWPOLYLINE
  5
1CC
100
AcDbEntity
  8
0
  6
ByLayer
 62
    7
370
   -1
100
AcDbPolyline
 90
    4
 70
    1
 43
0
 10
-1696.367972873864
 20
595.1002038876286
 10
-1196.367972873864
 20
595.1002038876286
 10
-1196.367972873864
 20
1095.100203887629
 10
-1696.367972873864
 20
1095.100203887629
  0
LWPOLYLINE
  5
1CD
100
AcDbEntity
  8
0
  6
ByLayer
 62
    7
370
   -1
100
AcDbPolyline
 90
    4
 70
    1
 43
0
 10
-1216.367972866414
 20
615.1002040329149
 10
-1676.367972866414
 20
615.1002040813437
 10
-1676.36797281426
 20
1075.100204081344
 10
-1216.36797281426
 20
1075.10020402919
  0
LINE
  5
1CE
100
AcDbEntity
  8
0
  6
ByLayer
 62
    7
370
   -1
100
AcDbLine
 10
1772.22228380221
 20
-1004.899796093745
 11
1697.222283794759
 21
-1000.044329340501
  0
LWPOLYLINE
  5
1CF
100
AcDbEntity
  8
0
  6
ByLayer
 62
    7
370
   -1
100
AcDbPolyline
 90
    5
 70
    0
 43
0
 10
-1711.447762616692
 20
-1230.117852562114
 10
-1377.841205269811
 20
-1230.117852599367
 42
-0.4142135623730951
 10
-1332.759238065002
 20
-1275.199819815352
 10
-1332.759238065002
 20
-1275.199819815352
 42
-0.4142135623730951
 10
-1377.841205277262
 20
-1320.281787016436
 42
-0.4142135623730951
  0
LWPOLYLINE
  5
1D0
100
AcDbEntity
  8
0
  6
ByLayer
 62
    7
370
   -1
100
AcDbPolyline
 90
    2
 70
    0
 43
0
 10
-1738.496942885933
 20
-707.1670329282133
 10
-1738.496942900834
 20
-858.9742378341107
  0
LWPOLYLINE
  5
1D1
100
AcDbEntity
  8
0
  6
ByLayer
 62
    7
370
   -1
100
AcDbPolyline
 90
    2
 70
    0
 43
0
 10
-1738.496942900834
 20
-858.9742378341107
 10
-1738.496942945538
 20
-1225.609655835673
  0
LWPOLYLINE
  5
1D2
100
AcDbEntity
  8
0
  6
ByLayer
 62
    7
370
   -1
100
AcDbPolyline
 90
    6
 70
    0
 43
0
 10
-1738.496942900834
 20
-858.9742378341107
 10
-1738.496942945538
 20
-1212.085065674975
 42
0.4142135623730951
 10
-1720.464156054673
 20
-1230.117852558389
 10
-1711.447762616692
 20
-1230.117852562114
 42
0.4142135623730951
 10
-1693.414975733278
 20
-1212.085065678701
 10
-1693.414975696025
 20
-904.3690170468844
  0
LWPOLYLINE
  5
1D3
100
AcDbEntity
  8
0
  6
ByLayer
 62
    7
370
   -1
100
AcDbPolyline
 90
    2
 70
    0
 43
0
 10
1722.22228380221
 20
-877.431594162179
 10
1722.222283794759
 20
-262.6158535582254
  0
LWPOLYLINE
  5
1D4
100
AcDbEntity
  8
0
  6
ByLayer
 62
    7
370
   -1
100
AcDbPolyline
 90
    6
 70
    0
 43
0
 10
1722.222283794759
 20
-262.6158535582254
 10
1722.222283794759
 20
-980.0443293367753
 42
-0.4142135623730951
 10
1702.222283794759
 20
-1000.044329340501
 10
1692.222283794759
 20
-1000.0443293405
 42
-0.4142135623730949
 10
1672.222283794759
 20
-980.0443293367753
 10
1672.222283787311
 20
-312.9627904993722
  0
LWPOLYLINE
  5
1D5
100
AcDbEntity
  8
0
  6
ByLayer
 62
    7
370
   -1
100
AcDbPolyline
 90
    4
 70
    1
 43
0
 10
-521.3679728738643
 20
-954.8997961123714
 10
478.6320271261393
 20
-954.8997961123714
 10
478.6320271261393
 20
45.1002038876286
 10
-521.3679728738643
 20
45.1002038876286
  0
LWPOLYLINE
  5
1D6
100
AcDbEntity
  8
0
  6
ByLayer
 62
    7
370
   -1
100
AcDbPolyline
 90
   10
 70
    1
 43
0
 10
-1873.742844574866
 20
-1230.117852543488
 10
-1873.742844574866
 20
-1230.117852543488
 42
0.4142135623731009
 10
-1783.578910172699
 20
-1320.281786971733
 10
-1242.595303647933
 20
-1320.281787031337
 42
0.4142135623730948
 10
-1152.431369215963
 20
-1230.117852625444
 10
-1152.431369215963
 20
-1230.117852625444
 10
-1152.431369163809
 20
-680.1178526664226
 42
0.4142135623730951
 10
-1242.595303573427
 20
-589.9539182381777
 10
-1783.578910083292
 20
-589.9539181748476
 42
0.414213562373101
 10
-1873.742844507811
 20
-680.1178525844662
  0
LWPOLYLINE
  5
1D7
100
AcDbEntity
  8
0
  6
ByLayer
 62
    7
370
   -1
100
AcDbPolyline
 90
    5
 70
    0
 43
0
 10
-1377.841205195306
 20
-589.9539182232761
 42
-0.4142135623731013
 10
-1332.759237990496
 20
-635.0358854355363
 10
-1332.759237990496
 20
-644.0522788772432
 42
-0.4142135623730951
 10
-1377.841205210207
 20
-689.1342460820524
 10
-1447.689583995161
 20
-689.1342460746018
  0
LWPOLYLINE
  5
1D8
100
AcDbEntity
  8
0
  6
ByLayer
 62
    7
370
   -1
100
AcDbPolyline
 90
    3
 70
    0
 43
0
 10
-1447.689583995161
 20
-689.1342460746018
 10
-1738.496942885933
 20
-689.1342460448004
 10
-1738.496942900834
 20
-858.9742378341107
  0
LWPOLYLINE
  5
1D9
100
AcDbEntity
  8
0
  6
ByLayer
 62
    7
370
   -1
100
AcDbPolyline
 90
    5
 70
    0
 43
0
 10
-1693.414975696025
 20
-904.3690170468844
 10
-1693.414975673673
 20
-707.1670329319386
 42
0.4142135623730951
 10
-1711.447762557087
 20
-689.1342460485248
 10
-1720.464155995069
 20
-689.1342460485248
 42
0.414213562373095
 10
-1738.496942885933
 20
-707.1670329282133
 42
0.414213562373095
  0
LWPOLYLINE
  5
1DA
100
AcDbEntity
  8
0
  6
ByLayer
 62
    7
370
   -1
100
AcDbPolyline
 90
   14
 70
    1
 43
0
 10
1172.222283794759
 20
-1254.899796116096
 42
-0.4142135623730977
 10
1072.222283787311
 20
-1154.899796116097
 10
1072.222283787311
 20
-1154.899796116097
 42
1.633123935319537e+16
 10
1072.222283787311
 20
-1154.899796116097
 42
-1.633123935319537e+16
 10
1072.222283787311
 20
-1154.899796116097
 10
1072.222283787311
 20
-1154.899796116097
 42
1.633123935319537e+16
 10
1072.222283787311
 20
-1154.899796116097
 42
-1.633123935319537e+16
 10
1072.222283787311
 20
-1154.899796116097
 10
1072.22228377986
 20
245.1002038913539
 42
-0.4142135623730951
 10
1172.222283772409
 20
345.1002038913539
 10
1772.222283772409
 20
345.1002039062552
 42
-0.4142135623730977
 10
1872.22228377986
 20
245.1002039099803
 10
1872.222283794759
 20
-1154.899796101196
 42
-0.4142135623730951
 10
1772.222283794759
 20
-1254.899796101196
  0
LWPOLYLINE
  5
1DB
100
AcDbEntity
  8
0
  6
ByLayer
 62
    7
370
   -1
100
AcDbPolyline
 90
    5
 70
    0
 43
0
 10
1722.22228380221
 20
-877.431594162179
 10
1722.22228380221
 20
-954.8997960974702
 42
0.4142135623730951
 10
1772.22228380221
 20
-1004.899796093745
 10
1822.222283794759
 20
-1004.899796093745
 42
0.4142135623730951
 10
1872.22228380221
 20
-954.899796093745
 42
0.4142135623730951
  0
ENDSEC
  0
SECTION
  2
OBJECTS
  0
DICTIONARY
  5
C
330
0
100
AcDbDictionary
281
    1
  3
ACAD_GROUP
350
D
  0
DICTIONARY
  5
D
330
C
100
AcDbDictionary
281
    1
  0
ENDSEC
  0
EOF
